SplineFontDB: 3.0
FontName: Norican
FullName: Norican
FamilyName: Norican
Weight: Normal
Copyright: Copyright (c) 2011 by vernon adams. All rights reserved.
Version: 1.002
FONDName: Norican
ItalicAngle: 0
UnderlinePosition: -205
UnderlineWidth: 102
Ascent: 1638
Descent: 410
UFOAscent: 1581
UFODescent: -440
LayerCount: 2
Layer: 0 0 "Back"  1
Layer: 1 0 "Fore"  0
FSType: 0
OS2Version: 0
OS2_WeightWidthSlopeOnly: 0
OS2_UseTypoMetrics: 0
CreationTime: 1327576143
ModificationTime: 1328296577
PfmFamily: 17
TTFWeight: 400
TTFWidth: 1
LineGap: 0
VLineGap: 0
Panose: 2 0 5 4 0 0 0 2 0 4
OS2TypoAscent: 2095
OS2TypoAOffset: 0
OS2TypoDescent: -791
OS2TypoDOffset: 0
OS2TypoLinegap: 0
OS2WinAscent: 2095
OS2WinAOffset: 0
OS2WinDescent: -791
OS2WinDOffset: 0
HheadAscent: 1023
HheadAOffset: 0
HheadDescent: -386
HheadDOffset: 0
OS2SubXSize: 1331
OS2SubYSize: 1229
OS2SubXOff: 0
OS2SubYOff: 154
OS2SupXSize: 1331
OS2SupYSize: 1229
OS2SupXOff: 0
OS2SupYOff: 717
OS2StrikeYSize: 102
OS2StrikeYPos: 512
OS2Vendor: 'newt'
OS2CodePages: 00000001.00000000
OS2UnicodeRanges: 00000001.00000000.00000000.00000000
Lookup: 4 0 0 "Alt Ligatures"  {"alt-no"  } []
Lookup: 4 0 1 "Standard Ligatures"  {"Standard Ligatures-1"  } ['liga' ('DFLT' <'dflt' > 'latn' <'dflt' > ) ]
Lookup: 1 0 0 "fina"  {"fina-1" ("fina" ) } []
Lookup: 1 0 0 "inits"  {"inits-1" ("init" ) } []
Lookup: 6 0 0 "contextual chains"  {"No"  "g.fina"  "s.fina"  "V.init"  "W.init"  "y.fina"  "b.fina"  "r.fina"  "c.fina"  "d.fina"  "U.alt"  "m.fina"  "o.fina"  "t.fina"  "f.fina"  "n.fina"  "u.fina"  "a.fina"  "e.fina"  } ['dlig' ('DFLT' <'dflt' > 'latn' <'dflt' > ) ]
Lookup: 258 0 0 "'kern' Horizontal Kerning in Latin lookup 0"  {"'kern' Horizontal Kerning in Latin lookup 0 subtable"  "'kern' Horizontal Kerning lookup 1 kerning class 1"  } ['kern' ('latn' <'dflt' > ) ]
MarkAttachClasses: 1
DEI: 91125
KernClass2: 27 19 "'kern' Horizontal Kerning lookup 1 kerning class 1" 
 50 A Aacute Acircumflex Adieresis Agrave Aring Atilde
 1 D
 1 F
 1 H

StartChar: ll
Encoding: 265 -1 0
Width: 1098
VWidth: 0
Flags: W
HStem: 1317 115<1145.98 1252.73> 1417 115<599.851 707.733>
VStem: 80 207<117.91 417.846> 635 207<117.91 422.555> 635 29<328 440> 711 113<1134.17 1415.08> 1256 113<1057.69 1315.08>
LayerCount: 2
Fore
SplineSet
711 1331 m 0x66
 711 1210.39 583.039 820.727 354 596 c 1
 468.083 1107.71 559.35 1417 668 1417 c 0
 707 1417 711 1364 711 1331 c 0x66
170 -29 m 1
 303 -20 441 88 664 328 c 1
 664 440 l 1x6e
 572 338 359 117 322 117 c 0
 287 117 287 172 287 188 c 0
 287 266 326 422 326 422 c 1
 326 422 824 862 824 1372 c 0
 824 1464 772 1532 684 1532 c 0
 389 1532 80 729 80 207 c 0
 80 109 80 -29 170 -29 c 1
1256 1231 m 0
 1256 1123.85 1129.47 777.655 903 578 c 1
 1015.63 996.314 1105.73 1317 1213 1317 c 0xa2
 1252 1317 1256 1264 1256 1231 c 0
725 -29 m 1
 858 -20 996 88 1219 328 c 1
 1219 440 l 1
 1127 338 914 117 877 117 c 0
 842 117 842 172 842 188 c 0
 842 266 881 422 881 422 c 1
 881 422 1369 815.684 1369 1272 c 0
 1369 1364 1317 1432 1229 1432 c 0
 938.884 1432 635 689.604 635 207 c 0xb2
 635 109 635 -29 725 -29 c 1
EndSplineSet
Ligature2: "Standard Ligatures-1" l l
EndChar

StartChar: A
Encoding: 35 65 1
Width: 1391
VWidth: 0
Flags: W
LayerCount: 2
Fore
SplineSet
1313 1518 m 0
422 -57 m 0,1,2
 563 -57 752 45 895 193 c 1,3,4
 885 61 899 -57 1022 -57 c 0,5,6
 1176 -57 1319 127 1513 330 c 1,7,-1
 1513 442 l 1,8,9
 1233 170 1231 166 1157 166 c 0,10,11
 1098 166 1118 272 1141 385 c 1,12,13
 1161 489 1260 999 1343 1223 c 1,14,15
 1346 1227 1346 1233 1346 1239 c 0,16,17
 1346 1264 1339 1272 1319 1272 c 0,18,19
 1262 1272 1130 1270 1112 1210 c 1,20,21
 1077 1106 942 516 915 377 c 1,22,23
 891 246 739 135 625 135 c 0,24,25
 449 135 338 248 338 463 c 0,26,27
 338 893 891 1421 1253 1421 c 0,28,29
 1393 1421 1503 1343 1544 1151 c 1,30,31
 1597 1165 1716 1260 1716 1321 c 0,32,33
 1716 1470 1417 1518 1313 1518 c 0,34,35
 735 1518 80 895 80 328 c 0,36,37
 80 78 180 -57 422 -57 c 0,1,2
EndSplineSet
EndChar

StartChar: AE
Encoding: 133 198 2
Width: 1878
VWidth: 0
Flags: W
LayerCount: 2
Fore
SplineSet
1747 799 m 1
 1669 803 1599 805 1528 805 c 0
 1442 805 1362 801 1284 795 c 1
 1348 995 1393 1196 1438 1356 c 1
 1569 1350 1712 1311 1831 1311 c 0
 1866 1311 1894 1325 1925 1346 c 1
 2025 1460 l 1
 2038 1473 2044 1479 2044 1491 c 0
 2044 1516 1712 1518 1423 1518 c 0
 692 1518 80 895 80 328 c 0
 80 78 180 -57 422 -57 c 0
 561 -57 750 49 897 195 c 1
 918 109 l 1
 1352 -23 1348 -57 1368 -57 c 0
 1602 -57 1749 106 1999 328 c 1
 1999 438 l 1
 1704 129 1577 119 1554 119 c 0
 1491 119 1227 227 1186 240 c 1
 1174 238 1159 238 1149 238 c 0
 1128 238 1110 240 1092 240 c 0
 1081 240 1069 238 1059 238 c 1
 1133 360 1206 500 1249 657 c 1
 1249 659 l 1
 1389 670 1526 670 1683 670 c 0
 1737 670 1784 729 1784 766 c 0
 1784 784 1774 799 1747 799 c 1
1212 1262 m 0
 1151 1178 1085 967 1026 760 c 1
 850 725 750 715 750 637 c 0
 750 600 782 594 799 594 c 0
 803 594 805 596 807 596 c 0
 870 610 932 623 989 631 c 1
 942 461 901 315 877 279 c 1
 877 276 l 1
 809 197 705 135 625 135 c 0
 449 135 338 248 338 463 c 0
 338 891 889 1417 1358 1421 c 1
 1317 1360 l 1
 1280 1335 1241 1303 1212 1262 c 0
EndSplineSet
EndChar

StartChar: B
Encoding: 36 66 9
Width: 1667
VWidth: 0
Flags: W
LayerCount: 2
Fore
SplineSet
434 668 m 1
 440 688 457 764 457 834 c 1
 344 874 295 936 295 1004 c 0
 295 1241 659 1391 893 1391 c 0
 1110 1391 1368 1346 1368 1106 c 0
 1368 973 1239 881 1059 872 c 1
 1059 756 l 1
 1200 678 1292 500 1292 346 c 0
 1292 211 1217 78 1030 78 c 0
 901 78 774 160 735 266 c 1
 793 420 877 874 881 889 c 0
 918 1020 948 1249 948 1249 c 1
 903 1249 729 1253 719 1192 c 1
 612 625 l 2
 580 455 514 41 319 41 c 0
 215 41 209 135 209 213 c 0
 209 248 211 281 211 303 c 1
 115 303 14 279 14 172 c 0
 14 14 180 -57 301 -57 c 0
 428 -57 541 -16 674 156 c 1
 758 14 887 -57 1094 -57 c 0
 1352 -57 1577 68 1577 328 c 0
 1577 489 1468 684 1196 823 c 1
 1475 827 1546 1022 1546 1126 c 0
 1546 1401 1278 1518 977 1518 c 0
 543 1518 133 1307 133 987 c 0
 133 821 297 711 434 668 c 1
EndSplineSet
EndChar

StartChar: C
Encoding: 37 67 10
Width: 1268
VWidth: 0
Flags: W
HStem: -57 182<545.033 861.967> 340 111<1292 1403> 1417 101<744.689 1005.53>
VStem: 82 215<401.181 838.405>
LayerCount: 2
Fore
SplineSet
954 1518 m 0,0,-1
926 1417 m 1,1,-1
 1059 1417 1094 1149 1096 1149 c 1,4,-1
 1096 1044 741 965 741 881 c 0,7,-1
 741 860 754 840 776 840 c 0,10,-1
 782 840 791 842 799 846 c 0,13,-1
 930 907 1147 1036 1278 1102 c 0,16,-1
 1307 1116 1315 1143 1315 1178 c 0,19,-1
 1315 1352 1159 1518 956 1518 c 0,22,-1
 358 1518 82 958 82 561 c 0,25,-1
 82 252 248 -57 616 -57 c 0,28,-1
 874 -57 1145 96 1403 340 c 1,31,-1
 1403 451 l 1,32,-1
 1180 236 938 125 735 125 c 0,35,-1
 483 125 297 299 297 659 c 0,38,-1
 297 1004 547 1403 926 1417 c 1,1,-1
EndSplineSet
EndChar

StartChar: D
Encoding: 38 68 13
Width: 1726
VWidth: 0
Flags: W
LayerCount: 2
Fore
SplineSet
1425 752 m 0
 1425 334 1180 59 942 59 c 0
 825 59 694 145 655 264 c 1
 829 623 831 934 885 1247 c 1
 791 1247 l 2
 762 1247 674 1243 662 1208 c 1
 543 594 l 1
 475 311 416 182 397 143 c 1
 367 76 315 41 264 41 c 0
 164 41 145 129 145 221 c 0
 145 260 152 293 152 326 c 1
 51 326 -53 299 -53 184 c 0
 -53 74 53 -55 203 -55 c 0
 346 -55 471 -29 584 133 c 1
 682 -2 813 -57 950 -57 c 0
 1368 -57 1683 342 1683 829 c 0
 1683 1139 1468 1518 971 1518 c 0
 346 1518 68 1243 68 1001 c 0
 68 866 160 737 367 672 c 1
 377 690 393 768 393 834 c 1
 276 879 229 944 229 1014 c 0
 229 1188 541 1393 840 1393 c 0
 1257 1393 1425 1094 1425 752 c 0
EndSplineSet
EndChar

StartChar: DZ
Encoding: 229 497 14
Width: 2882
VWidth: 0
Flags: W
LayerCount: 2
Fore
SplineSet
1667 211 m 2
 1626 193 1534 145 1534 72 c 0
 1534 -16 1628 -29 1642 -29 c 0
 1741 -29 1886 39 2005 117 c 1
 2460 -33 2456 -57 2476 -57 c 0
 2644 -57 2771 74 2935 168 c 1
 2935 268 l 1
 2865 209 2761 150 2746 145 c 1
 2712 127 2689 119 2662 119 c 0
 2578 119 2245 225 2130 260 c 1
 2460 610 2734 1159 2879 1384 c 1
 2836 1481 l 1
 2666 1493 2552 1518 2349 1518 c 0
 1853 1518 1630 1438 1630 1370 c 0
 1630 1243 1704 1122 1868 1061 c 1
 1894 1067 1935 1083 1935 1100 c 1
 1890 1139 1874 1210 1874 1280 c 0
 1874 1325 2093 1393 2300 1393 c 0
 2419 1393 2519 1386 2599 1376 c 1
 2152 655 l 1
 2062 512 1976 403 1915 322 c 1
 1667 211 l 2
EndSplineSet
Refer: 13 68 N 1 0 0 1 0 0 2
EndChar

StartChar: Dr
Encoding: 266 -1 15
Width: 2267
VWidth: 0
Flags: W
LayerCount: 2
Fore
SplineSet
1425 752 m 0
 1425 334 1180 59 942 59 c 0
 825 59 694 145 655 264 c 1
 829 623 831 934 885 1247 c 1
 791 1247 l 2
 762 1247 674 1243 662 1208 c 1
 543 594 l 1
 475 311 416 182 397 143 c 1
 367 76 315 41 264 41 c 0
 164 41 145 129 145 221 c 0
 145 260 152 293 152 326 c 1
 51 326 -53 299 -53 184 c 0
 -53 74 53 -55 203 -55 c 0
 346 -55 471 -29 584 133 c 1
 682 -2 813 -57 950 -57 c 0
 1079 -57 1198 -18 1303 47 c 1
 1651 217 1880 465 2001 588 c 1
 1968 510 1819 186 1819 102 c 0
 1819 41 1843 -29 1907 -29 c 0
 2009 -29 2224 164 2388 328 c 1
 2388 440 l 1
 2322 352 2081 137 2046 137 c 0
 2023 137 2021 152 2021 166 c 0
 2021 172 2021 178 2021 182 c 0
 2021 270 2200 602 2247 717 c 0
 2249 721 2249 725 2249 729 c 0
 2249 739 2236 743 2220 743 c 0
 2185 743 2130 729 2099 729 c 0
 2034 729 1976 739 1942 770 c 1
 1976 788 2003 848 2003 887 c 0
 2003 918 1989 940 1958 940 c 0
 1835 940 1763 852 1763 764 c 0
 1763 743 1794 674 1929 641 c 1
 1565 342 l 1
 1640 483 1683 649 1683 829 c 0
 1683 1139 1468 1518 971 1518 c 0
 346 1518 68 1243 68 1001 c 0
 68 866 160 737 367 672 c 1
 377 690 393 768 393 834 c 1
 276 879 229 944 229 1014 c 0
 229 1188 541 1393 840 1393 c 0
 1257 1393 1425 1094 1425 752 c 0
EndSplineSet
EndChar

StartChar: Dz
Encoding: 230 498 16
Width: 2292
VWidth: 0
Flags: W
LayerCount: 2
Fore
SplineSet
1425 752 m 0
 1425 334 1180 59 942 59 c 0
 825 59 694 145 655 264 c 1
 829 623 831 934 885 1247 c 1
 791 1247 l 2
 762 1247 674 1243 662 1208 c 1
 543 594 l 1
 475 311 416 182 397 143 c 1
 367 76 315 41 264 41 c 0
 164 41 145 129 145 221 c 0
 145 260 152 293 152 326 c 1
 51 326 -53 299 -53 184 c 0
 -53 74 53 -55 203 -55 c 0
 346 -55 471 -29 584 133 c 1
 682 -2 813 -57 950 -57 c 0
 1100 -57 1237 -4 1352 84 c 1
 1573 174 1882 526 1931 575 c 1
 1993 561 l 1
 1915 385 1798 156 1798 111 c 0
 1798 96 1894 82 1944 70 c 1
 1645 -27 1470 -154 1470 -369 c 0
 1470 -467 1559 -535 1712 -535 c 1
 1942 -518 2103 -264 2130 63 c 1
 2130 63 2232 141 2468 379 c 1
 2427 453 l 1
 2335 362 2191 211 2099 152 c 1
 2099 152 2097 190 2036 213 c 1
 2058 260 2095 332 2132 418 c 1
 2267 700 l 2
 2269 702 2269 707 2269 713 c 0
 2269 725 2263 743 2243 743 c 0
 2210 743 2152 729 2124 729 c 0
 2054 729 1999 741 1968 772 c 1
 1968 772 2030 805 2030 891 c 0
 2030 928 1999 940 1978 940 c 0
 1858 940 1790 838 1790 770 c 0
 1790 692 1821 659 1864 637 c 1
 1776 561 1681 444 1565 340 c 1
 1640 481 1683 649 1683 829 c 0
 1683 1139 1468 1518 971 1518 c 0
 346 1518 68 1243 68 1001 c 0
 68 866 160 737 367 672 c 1
 377 690 393 768 393 834 c 1
 276 879 229 944 229 1014 c 0
 229 1188 541 1393 840 1393 c 0
 1257 1393 1425 1094 1425 752 c 0
2005 -4 m 1
 1999 -184 1835 -428 1729 -428 c 0
 1663 -428 1645 -362 1645 -311 c 0
 1645 -76 1790 -119 2005 -4 c 1
EndSplineSet
EndChar

StartChar: E
Encoding: 39 69 17
Width: 1403
VWidth: 0
Flags: W
HStem: -57 219<52.375 145> -57 176<882.5 1092.41> 670 135<812.658 1286.91> 1368 150<328.613 838.442 954.547 1206.95>
VStem: 2 148<1043.67 1254.02>
DStem2: 514 631 774 657 0.261013 0.965335<-247.317 0 235.314 640.196>
LayerCount: 2
Fore
SplineSet
948 1518 m 0,0,-1
1272 799 m 0,1,-1
 1193.9 799 1124 805 1053 805 c 0,4,-1
 967 805 887 801 809 795 c 1,7,-1
 872 995 918 1196 963 1356 c 1,10,-1
 1094 1350 1237 1311 1356 1311 c 0,13,-1
 1391 1311 1419 1325 1450 1346 c 1,16,-1
 1550 1460 l 1,17,-1
 1563 1473 1569 1479 1569 1491 c 0,20,-1
 1569 1516 1237 1518 948 1518 c 2,23,-1
 657 1518 l 2,24,-1
 248 1518 2 1356 2 1120 c 0,27,-1
 2 1012 106 899 317 825 c 1,30,-1
 332 838 346 907 346 952 c 1,33,-1
 219 999 150 1069 150 1143 c 0,36,-1
 150 1276 287 1368 635 1368 c 0,39,-1
 696 1368 766 1366 842 1360 c 1,42,-1
 675.837 1247.73 634.477 1052.88 551 760 c 1,45,-1
 446 739 369.701 716.781 326 702 c 0,48,-1
 301.701 693.781 274 686 274 637 c 0,51,-1
 274 555.044 468.703 624.643 514 631 c 1,54,-1
 467 461 426 315 401 279 c 1,57,-1
 145 162 l 1,58,-1
 102 141 -8 106 -8 43 c 0,61,-1
 -8 -45 86 -57 100 -57 c 0,64,-1
 193 -57 330 20 442 109 c 1,67,-1
 877 -23 872 -57 893 -57 c 0,70,-1
 1126 -57 1274 106 1524 328 c 1,73,-1
 1524 438 l 1,74,-1
 1389 297 1194 150 1163 145 c 1,77,-1
 1128 127 1106 119 1079 119 c 0,80,-1
 1016 119 752 227 711 240 c 1,83,-1
 698 238 684 238 674 238 c 0,86,-1
 653 238 635 240 616 240 c 0,89,-1
 606 240 594 238 584 238 c 1,92,-1
 657 360 731 500 774 657 c 1,95,-1
 774 659 l 1,96,-1
 913 670 1051 670 1208 670 c 0,99,-1
 1262 670 1309 729 1309 766 c 0,102,-1
 1309 784 1298 799 1272 799 c 0,1,-1
EndSplineSet
EndChar

StartChar: Eth
Encoding: 143 208 22
Width: 1780
VWidth: 0
Flags: W
LayerCount: 2
Fore
SplineSet
430 631 m 0
 408 625 381 608 381 545 c 0
 381 502 428 504 438 504 c 2
 522 510 l 1
 463 285 414 178 397 143 c 1
 367 76 315 41 264 41 c 0
 164 41 145 129 145 221 c 0
 145 260 152 293 152 326 c 1
 51 326 -53 299 -53 184 c 0
 -53 74 53 -55 203 -55 c 0
 346 -55 471 -29 584 133 c 1
 682 -2 813 -57 950 -57 c 0
 1368 -57 1683 342 1683 829 c 0
 1683 1139 1468 1518 971 1518 c 0
 346 1518 68 1243 68 1001 c 0
 68 866 160 737 367 672 c 1
 377 690 393 768 393 834 c 1
 276 879 229 944 229 1014 c 0
 229 1188 541 1393 840 1393 c 0
 1257 1393 1425 1094 1425 752 c 0
 1425 334 1180 59 942 59 c 0
 825 59 694 145 655 264 c 1
 698 352 731 438 756 522 c 1
 784 522 l 2
 827 522 874 520 922 520 c 0
 975 520 1022 580 1022 616 c 0
 1022 649 926 657 813 657 c 2
 791 657 l 1
 838 860 852 1053 885 1247 c 1
 791 1247 l 2
 762 1247 674 1243 662 1208 c 1
 553 645 l 1
 489 641 442 635 430 631 c 0
EndSplineSet
EndChar

StartChar: Euro
Encoding: 257 8364 23
Width: 1372
VWidth: 0
Flags: W
LayerCount: 2
Fore
SplineSet
76 596 m 1
 55 590 29 575 29 520 c 0
 29 483 74 483 84 483 c 2
 190 487 l 1
 217 213 383 -57 721 -57 c 0
 936 -57 1149 55 1364 238 c 1
 1364 348 l 1
 1184 203 999 125 840 125 c 0
 631 125 467 256 416 498 c 1
 465 500 489 500 514 500 c 0
 555 500 598 498 645 498 c 0
 696 498 741 551 741 582 c 0
 741 610 649 618 541 618 c 0
 494 618 449 616 401 614 c 1
 401 682 401 698 403 717 c 1
 457 719 485 719 510 719 c 0
 551 719 594 717 641 717 c 0
 692 717 737 768 737 801 c 0
 737 829 645 838 537 838 c 0
 498 838 459 838 420 836 c 1
 475 1133 662 1405 928 1417 c 1
 1094 1417 1137 1149 1139 1149 c 1
 1139 1085 928 1036 928 983 c 0
 928 963 938 942 963 942 c 1
 1044 971 1227 1057 1321 1102 c 0
 1348 1114 1358 1145 1358 1178 c 0
 1358 1352 1186 1518 958 1518 c 0
 545 1518 303 1171 221 827 c 1
 59 819 25 829 25 739 c 0
 25 700 70 702 80 702 c 2
 197 709 l 1
 193 672 188 637 186 602 c 1
 131 598 90 596 76 596 c 1
EndSplineSet
EndChar

StartChar: F
Encoding: 40 70 24
Width: 1313
VWidth: 0
Flags: W
LayerCount: 2
Fore
SplineSet
1272 799 m 1
 1194 803 1124 805 1053 805 c 0
 995 805 942 801 891 795 c 1
 922 963 952 1145 989 1335 c 1
 1120 1325 1237 1305 1368 1305 c 1
 1509 1516 l 1
 1419 1516 1331 1518 1233 1518 c 0
 1085 1518 942 1516 813 1507 c 1
 344 1468 63 1260 63 1016 c 0
 63 885 158 752 379 662 c 1
 391 678 408 772 408 829 c 1
 295 879 248 948 248 1022 c 0
 248 1171 535 1341 854 1341 c 0
 868 1341 885 1339 899 1339 c 1
 858 1313 817 1270 784 1221 c 1
 748 1159 707 967 657 750 c 1
 602 733 557 715 530 702 c 1
 508 694 479 680 479 616 c 0
 479 571 530 573 537 575 c 2
 623 600 l 1
 541 262 436 -82 293 -82 c 1
 207 -76 184 -16 184 70 c 0
 184 109 186 156 195 205 c 1
 23 205 -18 131 -18 49 c 0
 -18 -47 68 -180 252 -180 c 0
 627 -180 758 152 860 639 c 1
 973 649 1085 649 1208 649 c 0
 1262 649 1309 721 1309 766 c 0
 1309 784 1298 799 1272 799 c 1
EndSplineSet
EndChar

StartChar: G
Encoding: 41 71 25
Width: 1458
VWidth: 0
Flags: W
LayerCount: 2
Fore
SplineSet
743 -467 m 0
 936 -467 1094 -315 1157 -10 c 1
 1239 23 1475 215 1583 330 c 1
 1583 440 l 1
 1454 313 1284 164 1188 119 c 1
 1307 621 l 1
 1108 621 l 1
 1102 586 1067 446 1061 434 c 1
 961 354 854 293 729 293 c 0
 584 293 477 444 444 586 c 1
 1274 1020 l 1
 1337 1049 l 1
 1403 1077 1444 1087 1444 1188 c 0
 1444 1343 1284 1518 1073 1518 c 0
 561 1518 172 1067 172 559 c 1
 168 541 -35 440 -96 403 c 1
 -111 397 -117 377 -117 356 c 0
 -117 332 -106 299 -88 299 c 0
 -70 299 2 344 70 383 c 2
 190 453 l 1
 258 272 369 117 551 117 c 0
 696 117 924 244 1055 371 c 1
 1038 285 l 1
 1026 199 985 45 985 45 c 1
 528 -88 l 1
 471 -102 446 -164 446 -221 c 0
 446 -369 614 -467 743 -467 c 0
954 -74 m 1
 942 -141 877 -408 766 -408 c 0
 670 -408 621 -319 621 -242 c 0
 621 -131 821 -129 954 -74 c 1
1139 1036 m 1
 1108 1024 979 954 844 887 c 2
 426 678 l 1
 426 1028 694 1430 1042 1430 c 0
 1130 1430 1231 1274 1231 1130 c 0
 1231 1092 1217 1071 1139 1036 c 1
EndSplineSet
EndChar

StartChar: H
Encoding: 42 72 26
Width: 1870
VWidth: 0
Flags: W
HStem: -55 145<1309.5 1550.92> -55 108<318.971 501.621> 328 114<1881 1995> 694 129<1632 1710.91> 1327 189<303.314 842.939> 1348 168<1760.48 1998.73>
VStem: 4 156<1046.31 1229.66> 55 236<78.9844 248.86> 1161 158<164.496 677.815>
DStem2: 735 774 702 631 0.989574 0.144023<-268.495 -53.2512>
LayerCount: 2
Fore
SplineSet
322 819 m 1x3a80
 346 850 352 915 352 954 c 1
 279 985 160 1047 160 1141 c 0x3a80
 160 1294 469 1327 575 1327 c 0
 727 1327 864 1280 1012 1266 c 1
 838 1174 786 1008 739 793 c 1
 735 774 l 1
 627 758 541 741 483 727 c 1
 461 719 432 705 432 641 c 0
 432 592 496 600 489 600 c 1
 702 631 l 1
 659 416 602 53 393 53 c 0
 299 53 291 168 291 256 c 2
 291 315 l 1
 178 315 55 301 55 195 c 0
 55 111 147 -55 383 -55 c 0x7980
 774 -55 854 362 932 657 c 1
 1024 666 1114 674 1206 680 c 1
 1184 590 1161 432 1161 291 c 0
 1161 39 1251 -55 1368 -55 c 0
 1556 -55 1808 123 1993 328 c 1
 1995 442 l 1
 1831 268 1622 90 1470 90 c 0
 1384 90 1319 178 1319 414 c 0
 1319 502 1337 602 1362 688 c 1
 1450 692 1538 694 1632 694 c 0
 1686 694 1733 754 1733 791 c 0
 1733 807 1722 823 1696 823 c 1
 1620 827 1548 829 1477 829 c 2
 1403 829 l 1
 1495 1040 1671 1348 1903 1348 c 0
 1991 1348 2032 1266 2054 1192 c 1
 2062 1171 l 1
 2109 1174 2236 1290 2236 1341 c 0
 2236 1456 2040 1516 1950 1516 c 0xb580
 1628 1516 1366 1147 1245 823 c 1
 1145 819 1051 813 967 805 c 1
 1028 977 1081 1139 1186 1286 c 1
 1251 1327 1290 1411 1303 1489 c 1
 1229 1485 1163 1444 1079 1444 c 0
 889 1444 713 1516 522 1516 c 0
 301 1516 4 1411 4 1149 c 0
 4 981 184 872 322 819 c 1x3a80
EndSplineSet
EndChar

StartChar: I
Encoding: 43 73 27
Width: 1061
VWidth: 0
Flags: W
HStem: -57 98<426.178 609.894> 842 21G<739.5 879.5> 1303 182<885.972 1145>
VStem: 207 194<64.2092 230.921> 362 164<895.356 1043.33>
DStem2: 805 625 1024 647 0.220466 0.975395<-437.541 78.1919 215.875 516.334>
LayerCount: 2
Fore
SplineSet
1057 793 m 1xf0
 1098 979 1157 1153 1249 1311 c 1
 1337 1341 1386 1440 1401 1530 c 1
 1327 1526 1262 1485 1178 1485 c 0
 649 1485 362 1112 362 954 c 0xe8
 362 852 485 727 819 702 c 1
 805 625 l 2
 774 455 707 41 512 41 c 0
 408 41 401 135 401 213 c 0
 401 248 403 281 403 303 c 1
 307 303 207 279 207 172 c 0
 207 14 373 -57 494 -57 c 0
 883 -57 965 352 1024 647 c 1
 1057 793 l 1xf0
526 950 m 0
 526 1012 698 1303 1145 1303 c 1
 975 1210 905 1032 854 842 c 1
 625 854 526 897 526 950 c 0
EndSplineSet
EndChar

StartChar: IJ
Encoding: 200 306 28
Width: 1851
VWidth: 0
Flags: W
LayerCount: 2
Fore
SplineSet
1063 827 m 1
 1104 999 1161 1161 1247 1309 c 1
 1389 1303 1548 1303 1743 1303 c 1
 1593 1210 1522 1030 1481 840 c 1
 1421 575 1348 268 1315 74 c 1
 897 -39 l 2
 838 -55 813 -127 813 -184 c 0
 813 -330 977 -428 1104 -428 c 0
 1290 -428 1442 -281 1505 10 c 1
 1602 45 1870 199 1985 334 c 1
 1985 446 l 1
 1790 256 1669 219 1528 133 c 1
 1675 840 l 1
 1714 1008 1763 1165 1847 1311 c 1
 1935 1341 1985 1440 1999 1530 c 1
 1925 1526 1860 1485 1776 1485 c 0
 1563 1485 1384 1485 1223 1483 c 1
 1210 1485 1194 1485 1178 1485 c 0
 649 1485 362 1112 362 954 c 0
 362 852 485 727 819 702 c 1
 805 625 l 2
 774 455 707 41 512 41 c 0
 408 41 401 135 401 213 c 0
 401 248 403 281 403 303 c 1
 307 303 207 279 207 172 c 0
 207 14 373 -57 494 -57 c 0
 883 -57 965 352 1024 647 c 1
 1034 692 l 1
 1116 698 1208 713 1307 739 c 1
 1331 766 1337 821 1337 854 c 1
 1235 838 1130 827 1063 827 c 1
526 950 m 0
 526 1012 698 1303 1145 1303 c 1
 975 1210 905 1032 854 842 c 1
 625 854 526 897 526 950 c 0
1298 -66 m 1
 1278 -160 1225 -356 1126 -356 c 0
 1038 -356 995 -276 995 -205 c 0
 995 -106 1169 -109 1298 -66 c 1
EndSplineSet
EndChar

StartChar: J
Encoding: 44 74 35
Width: 1077
VWidth: 0
Flags: W
HStem: -428 72<267.711 417.942> 748 114<904.85 1155.04> 840 21G<582 729.5 920.5 942> 1303 182<710.858 969>
VStem: 39 182<-306.206 -138.55> 707 194<840 994.277>
DStem2: 524 -66 731 10 0.197988 0.980204<-147.186 0 140.594 146.366 240.598 772.966>
LayerCount: 2
Fore
SplineSet
1073 1311 m 1xbc
 1161 1341 1210 1440 1225 1530 c 1
 1151 1526 1085 1485 1001 1485 c 0
 432 1485 143 1051 193 922 c 1
 221 823 350 717 676 700 c 1
 676 698 l 1
 653 575 573 268 541 74 c 1
 123 -39 l 2
 63 -55 39 -127 39 -184 c 0
 39 -330 203 -428 330 -428 c 0
 516 -428 668 -281 731 10 c 1
 827 45 1096 199 1210 334 c 1
 1210 446 l 1
 1016 256 895 219 754 133 c 1
 872 700 l 1
 954 707 1047 721 1145 748 c 1
 1169 774 1176 829 1176 862 c 1xdc
 1073 846 983 840 901 840 c 1
 940 1008 989 1165 1073 1311 c 1xbc
350 950 m 0
 350 1012 522 1303 969 1303 c 1
 819 1210 752 1030 707 840 c 1xbc
 457 850 350 895 350 950 c 0
524 -66 m 1
 504 -160 451 -356 352 -356 c 0
 264 -356 221 -276 221 -205 c 0
 221 -106 395 -109 524 -66 c 1
EndSplineSet
EndChar

StartChar: K
Encoding: 45 75 37
Width: 1888
VWidth: 0
Flags: W
LayerCount: 2
Fore
SplineSet
317 819 m 1
 342 850 348 915 348 954 c 1
 274 985 156 1047 156 1141 c 0
 156 1294 465 1327 571 1327 c 0
 717 1327 848 1282 987 1266 c 1
 813 1176 762 1008 715 793 c 2
 694 698 l 1
 647 506 602 53 369 53 c 0
 274 53 266 168 266 256 c 2
 266 315 l 1
 154 315 31 301 31 195 c 0
 31 111 123 -55 358 -55 c 0
 709 -55 803 287 891 625 c 1
 1085 719 l 1
 1284 270 l 1
 1397 35 1485 -53 1573 -53 c 0
 1651 -53 1837 135 2009 324 c 1
 2009 436 l 1
 1819 246 1708 137 1647 117 c 0
 1585 96 1540 213 1442 393 c 1
 1233 803 l 1
 1470 1018 1565 1348 1862 1348 c 0
 1950 1348 1991 1266 2013 1192 c 1
 2021 1171 l 1
 2068 1174 2195 1290 2195 1341 c 0
 2195 1493 1884 1518 1862 1518 c 0
 1530 1518 1292 1110 920 731 c 1
 938 793 l 1
 991 971 1051 1137 1161 1286 c 1
 1227 1327 1266 1411 1278 1489 c 1
 1204 1485 1139 1444 1055 1444 c 0
 870 1444 702 1516 518 1516 c 0
 297 1516 0 1411 0 1149 c 0
 0 981 180 872 317 819 c 1
EndSplineSet
EndChar

StartChar: L
Encoding: 46 76 38
Width: 1255
VWidth: 0
Flags: W
LayerCount: 2
Fore
SplineSet
702 1067 m 1
 721 1155 899 1405 1001 1417 c 1
 1137 1417 1167 1147 1171 1147 c 1
 1167 1042 817 963 817 881 c 0
 817 860 829 840 852 840 c 0
 858 840 866 842 874 846 c 0
 1006 907 1223 1036 1354 1102 c 0
 1382 1116 1391 1143 1391 1178 c 0
 1391 1352 1225 1518 1053 1518 c 0
 956 1518 694 1335 633 1290 c 0
 569 1243 522 1217 500 1137 c 2
 268 309 l 1
 6 190 l 2
 -37 170 -147 135 -147 72 c 0
 -147 -16 -53 -29 -39 -29 c 0
 59 -29 205 39 324 117 c 1
 737 -33 733 -57 754 -57 c 0
 987 -57 1200 150 1376 326 c 1
 1376 438 l 1
 1081 131 969 119 940 119 c 0
 872 119 594 227 551 240 c 1
 520 248 498 258 469 266 c 1
 586 541 651 817 702 1067 c 1
EndSplineSet
EndChar

StartChar: Lslash
Encoding: 208 321 40
Width: 1368
VWidth: 0
Flags: W
LayerCount: 2
Fore
SplineSet
193 989 m 1
 181 980 167 967 167 940 c 0
 167 916 176 880 205 880 c 0
 216 880 227 884 231 885 c 2
 380 928 l 1
 207 309 l 1
 -55 190 l 2
 -98 170 -208 135 -208 72 c 0
 -208 -16 -114 -29 -100 -29 c 0
 -2 -29 144 39 263 117 c 1
 676 -33 672 -57 693 -57 c 0
 926 -57 1139 150 1315 326 c 1
 1315 438 l 1
 1020 131 908 119 879 119 c 0
 810 119 533 228 490 240 c 0
 459 249 437 257 408 266 c 1
 514 515 577 765 626 995 c 1
 686 1010 l 2
 721 1019 760 1029 799 1042 c 0
 837 1054 862 1103 862 1136 c 0
 862 1155 856 1163 827 1163 c 0
 792 1163 735 1150 674 1130 c 0
 671 1129 668 1128 665 1128 c 1
 721 1237 856 1407 940 1417 c 1
 1076 1417 1106 1147 1110 1147 c 1
 1106 1042 756 963 756 881 c 0
 756 860 768 840 791 840 c 0
 797 840 805 842 813 846 c 0
 945 907 1162 1036 1293 1102 c 0
 1321 1116 1330 1143 1330 1178 c 0
 1330 1352 1164 1518 992 1518 c 0
 895 1518 633 1335 572 1290 c 0
 507 1243 462 1217 439 1137 c 2
 417 1060 l 1
 305 1027 215 998 193 989 c 1
EndSplineSet
EndChar

StartChar: M
Encoding: 47 77 41
Width: 1712
VWidth: 0
Flags: W
LayerCount: 2
Fore
SplineSet
-365 -260 m 0
 -195 -260 41 -14 121 131 c 1
 600 1128 l 1
 614 1128 l 1
 586 41 l 2
 586 23 598 -6 639 -18 c 1
 692 10 1206 1028 1303 1219 c 0
 1305 1225 1311 1231 1321 1231 c 0
 1331 1231 1331 1225 1331 1214 c 0
 1331 1194 1303 1087 1296 1026 c 1
 1255 791 1171 391 1171 154 c 0
 1171 4 1212 -55 1284 -55 c 0
 1401 -55 1614 111 1833 324 c 1
 1833 438 l 1
 1735 342 1522 141 1458 141 c 0
 1423 141 1411 176 1411 238 c 0
 1411 492 1540 1139 1624 1575 c 1
 1622 1577 1616 1577 1616 1579 c 1
 1544 1577 1360 1491 1323 1430 c 1
 1325 1432 l 1
 954 680 897 596 846 485 c 1
 831 485 l 1
 854 842 860 1202 907 1554 c 1
 903 1556 895 1559 895 1561 c 1
 778 1561 662 1491 608 1391 c 1
 455 1065 201 539 49 213 c 1
 -80 -16 -412 14 -412 -123 c 0
 -412 -229 -393 -260 -365 -260 c 0
EndSplineSet
EndChar

StartChar: N
Encoding: 48 78 42
Width: 1473
VWidth: 0
Flags: W
HStem: -57 204<1038.5 1267.5> 330 110<1487 1597> 1318.2 197.803<1061.42 1307.62>
VStem: 66 206<0 204.46> 963 225<155.018 742.188>
DStem2: 1341 195 1460 193 0.722458 0.691415<-93.1524 276.845>
LayerCount: 2
Fore
SplineSet
1341 195 m 5
 1307 160 1278 147 1257 147 c 4
 1198 147 1188 260 1188 346 c 4
 1188 659 1354 1341 1354 1423 c 4
 1354 1475 1331 1516 1270 1516 c 4
 1188 1516 932 1495 549 1040 c 5
 565 1122 l 5
 565 1161 643 1397 643 1497 c 4
 643 1509 635 1516 623 1516 c 4
 580 1516 487 1460 453 1438 c 6
 23 1167 l 6
 2 1153 -2 1139 -2 1126 c 4
 -2 1100 4 1075 25 1075 c 5
 55 1085 l 5
 377 1313 l 5
 295 995 l 5
 209 612 66 211 66 0 c 5
 272 0 l 5
 297 100 330.913 299.691 371 442 c 4
 471 797 708.129 1144.57 1033 1309 c 4
 1045.52 1315.33 1056.62 1318.2 1066.23 1318.2 c 4
 1095.24 1318.2 1110.72 1292.14 1110.72 1256.85 c 4
 1110.72 1240.05 1107.22 1221.17 1100 1202 c 5
 1010 918.059 963 581.444 963 262 c 4
 963 143 977 -57 1100 -57 c 4
 1194 -57 1387.37 126.975 1460 193 c 4
 1475.37 206.975 1585 319 1595 330 c 5
 1597 440 l 5
 1341 195 l 5
EndSplineSet
EndChar

StartChar: O
Encoding: 49 79 46
Width: 1653
VWidth: 0
Flags: W
HStem: -57 217<633.806 977.071> 496 131<1252.8 1395> 1126 113<1061.31 1348.41> 1411 107<799.728 1139>
VStem: 100 228<485.719 905.307> 858 172<831.77 1091.56> 1475 110<638.317 988.231>
LayerCount: 2
Fore
SplineSet
1585 768 m 0
 1585 1090 1395 1239 1217 1239 c 0
 967 1239 858 1090 858 926 c 0
 858 637 1110 496 1382 496 c 2
 1395 496 l 1
 1296 311 1108 160 842 160 c 0
 578 160 328 342 328 748 c 0
 328 1044 602 1411 1040 1411 c 0
 1071 1411 1104 1409 1139 1403 c 1
 1143 1505 l 1
 1096 1513 1049 1518 1006 1518 c 0
 442 1518 100 1053 100 664 c 0
 100 154 391 -57 715 -57 c 0
 1047 -57 1415 164 1540 510 c 1
 1653 532 1763 580 1853 651 c 1
 1853 743 l 1
 1757 686 1663 651 1573 637 c 1
 1581 678 1585 723 1585 768 c 0
1030 999 m 0
 1030 1073 1077 1126 1190 1126 c 0
 1382 1126 1475 979 1475 799 c 0
 1475 743 1466 684 1448 627 c 1
 1206 631 1030 786 1030 999 c 0
EndSplineSet
EndChar

StartChar: OE
Encoding: 212 338 47
Width: 2105
VWidth: 0
Flags: W
LayerCount: 2
Fore
SplineSet
1145 109 m 1
 1579 -23 1575 -57 1595 -57 c 0
 1829 -57 1976 106 2226 328 c 1
 2226 438 l 1
 1931 129 1802 119 1782 119 c 0
 1718 119 1454 227 1413 240 c 1
 1399 238 1384 238 1376 238 c 0
 1358 238 1337 240 1319 240 c 0
 1309 240 1296 238 1286 238 c 1
 1360 360 1434 500 1477 657 c 1
 1477 659 l 1
 1616 670 1753 670 1911 670 c 0
 1964 670 2011 729 2011 766 c 0
 2011 784 2001 799 1974 799 c 0
 1896 799 1827 805 1755 805 c 0
 1671 805 1589 801 1511 795 c 1
 1575 995 1620 1196 1665 1356 c 1
 1796 1350 1939 1311 2058 1311 c 0
 2093 1311 2122 1325 2152 1346 c 1
 2253 1460 l 2
 2265 1473 2271 1479 2271 1491 c 0
 2271 1516 1939 1518 1651 1518 c 2
 1057 1518 l 2
 401 1518 100 965 100 514 c 0
 100 205 268 -57 623 -57 c 0
 793 -57 979 8 1110 119 c 1
 1145 109 l 1
1544 1360 m 1
 1415 1272 1348 1092 1253 760 c 1
 1077 725 977 715 977 637 c 0
 977 600 1010 594 1026 594 c 0
 1030 594 1032 596 1034 596 c 0
 1098 610 1159 623 1217 631 c 1
 1169 461 1128 315 1104 279 c 1
 1102 272 l 1
 1018 207 907 160 750 160 c 0
 465 160 326 371 326 618 c 0
 326 967 567 1391 1051 1391 c 0
 1075 1391 1520 1364 1544 1360 c 1
EndSplineSet
EndChar

StartChar: Oslash
Encoding: 151 216 52
Width: 1653
VWidth: 0
Flags: W
LayerCount: 2
Fore
SplineSet
1585 768 m 0
 1585 994 1491 1134 1374 1198 c 1
 1591 1477 l 2
 1597 1485 1602 1501 1602 1509 c 0
 1602 1542 1563 1536 1550 1536 c 0
 1487 1536 1479 1499 1393 1393 c 1
 1268 1235 l 1
 1251 1238 1234 1239 1217 1239 c 0
 967 1239 858 1090 858 926 c 0
 858 862 870 806 892 756 c 1
 515 274 l 1
 403 369 328 525 328 748 c 0
 328 1044 602 1411 1040 1411 c 0
 1071 1411 1104 1409 1139 1403 c 1
 1143 1505 l 1
 1096 1513 1049 1518 1006 1518 c 0
 442 1518 100 1053 100 664 c 0
 100 365 199 169 347 58 c 1
 317 19 295 -10 283 -27 c 1
 262 -63 209 -111 209 -139 c 0
 209 -156 236 -162 252 -162 c 0
 328 -162 401 -53 401 -53 c 1
 443 1 l 1
 526 -38 619 -57 715 -57 c 0
 1047 -57 1415 164 1540 510 c 1
 1653 532 1763 580 1853 651 c 1
 1853 743 l 1
 1757 686 1663 651 1573 637 c 1
 1581 678 1585 723 1585 768 c 0
1382 496 m 2
 1395 496 l 1
 1296 311 1108 160 842 160 c 0
 760 160 680 177 608 213 c 1
 955 660 l 1
 1053 550 1213 496 1382 496 c 2
1030 999 m 0
 1030 1073 1077 1126 1190 1126 c 0
 1382 1126 1475 979 1475 799 c 0
 1475 743 1466 684 1448 627 c 1
 1206 631 1030 786 1030 999 c 0
EndSplineSet
EndChar

StartChar: P
Encoding: 50 80 54
Width: 1317
VWidth: 0
Flags: W
LayerCount: 2
Fore
SplineSet
715 602 m 1
 764 594 811 590 856 590 c 0
 1268 590 1528 854 1528 1100 c 0
 1528 1315 1329 1518 860 1518 c 0
 469 1518 47 1358 47 1069 c 0
 47 909 207 797 346 754 c 1
 365 793 373 868 373 913 c 1
 281 948 209 987 209 1094 c 0
 209 1272 571 1393 799 1393 c 0
 1120 1393 1274 1235 1274 1071 c 0
 1274 893 1100 711 760 711 c 0
 752 711 743 711 735 711 c 1
 772 860 827 1153 840 1249 c 1
 752 1247 l 2
 723 1247 621 1235 612 1190 c 2
 502 614 l 2
 471 451 393 -82 178 -82 c 0
 86 -82 61 -12 61 66 c 0
 61 96 63 137 63 176 c 1
 -33 176 -133 152 -133 53 c 0
 -133 -104 12 -180 160 -180 c 0
 360 -180 621 -31 715 602 c 1
EndSplineSet
EndChar

StartChar: Pr
Encoding: 267 -1 55
Width: 1688
VWidth: 0
Flags: W
LayerCount: 2
Fore
SplineSet
1239 102 m 0
 1239 41 1264 -29 1327 -29 c 0
 1430 -29 1645 164 1808 328 c 1
 1808 440 l 1
 1743 352 1501 137 1466 137 c 0
 1444 137 1440 150 1440 162 c 0
 1440 170 1442 176 1442 182 c 0
 1442 262 1620 569 1667 676 c 0
 1669 680 1669 684 1669 688 c 0
 1669 698 1655 702 1640 702 c 0
 1606 702 1548 688 1520 688 c 0
 1454 688 1397 698 1362 729 c 1
 1362 805 l 2
 1362 836 1348 858 1317 858 c 0
 1229 858 1184 791 1184 723 c 0
 1184 702 1214 639 1350 606 c 1
 1147 197 776 129 518 82 c 1
 633 209 702 559 750 766 c 1
 1210 791 1473 1008 1473 1202 c 0
 1473 1368 1282 1518 860 1518 c 0
 469 1518 47 1358 47 1069 c 0
 47 909 207 797 346 754 c 1
 365 793 373 868 373 913 c 1
 281 948 209 987 209 1094 c 0
 209 1272 571 1393 799 1393 c 0
 1085 1393 1235 1282 1235 1161 c 0
 1235 1040 1083 909 770 874 c 1
 799 975 829 1186 840 1249 c 1
 752 1247 l 2
 723 1247 621 1235 612 1190 c 2
 502 614 l 2
 487 537 414 180 295 74 c 1
 276 72 256 70 238 70 c 0
 135 70 -2 94 -59 94 c 0
 -94 94 -98 45 -98 18 c 0
 -98 -33 -90 -51 -68 -55 c 0
 8 -72 96 -78 182 -78 c 0
 674 -78 1108 -41 1358 430 c 1
 1292 289 1239 162 1239 102 c 0
EndSplineSet
EndChar

StartChar: Q
Encoding: 51 81 56
Width: 1632
VWidth: 0
Flags: W
HStem: -518 94<282.807 509.874> -57 217<594.806 938.071> 496 131<1213.8 1356> 1126 113<1022.31 1309.41> 1411 107<760.728 1100>
VStem: 61 228<485.719 905.307> 111 145<-392.295 -266.5> 819 172<831.77 1091.56> 1436 110<638.317 988.231>
LayerCount: 2
Fore
SplineSet
563 -236 m 1xfb80
 178 -209 l 1
 129 -209 111 -244 111 -289 c 0
 111 -461 291 -518 420 -518 c 0
 586 -518 692 -436 729 -348 c 1
 797 -342 1004 -305 1065 -272 c 1
 1055 -152 l 1
 995 -195 834 -217 754 -229 c 1
 977 371 l 1
 891 371 801 371 784 326 c 0
 756 252 604 -188 563 -236 c 1xfb80
537 -334 m 1
 520 -373 494 -424 434 -424 c 0
 332 -424 256 -375 256 -346 c 0
 256 -324 266 -324 301 -324 c 1
 330 -326 371 -334 422 -334 c 2
 537 -334 l 1
EndSplineSet
Refer: 46 79 N 1 0 0 1 -39 0 2
EndChar

StartChar: R
Encoding: 52 82 57
Width: 1616
VWidth: 0
Flags: W
LayerCount: 2
Fore
SplineSet
891 1518 m 0
762 688 m 1,1,2
 799 868 836 1061 858 1247 c 1,3,4
 831 1249 809 1249 791 1249 c 0,5,6
 655 1249 645 1204 629 1155 c 0,7,8
 594 1051 477 53 238 53 c 0,9,10
 133 53 113 154 113 242 c 0,11,12
 113 268 115 295 117 315 c 1,13,14
 113 317 106 319 102 319 c 0,15,16
 -12 319 -115 283 -115 205 c 0,17,18
 -115 31 63 -57 215 -57 c 0,19,20
 590 -57 684 360 748 600 c 1,21,22
 854 459 950 211 973 150 c 1,23,24
 1028 72 1059 -57 1233 -57 c 0,25,26
 1405 -57 1604 186 1739 332 c 1,27,-1
 1737 434 l 1,28,29
 1647 350 1409 96 1335 96 c 0,30,31
 1270 96 1141 561 981 649 c 1,32,33
 1331 739 1544 850 1544 1098 c 0,34,35
 1544 1360 1219 1518 891 1518 c 0,36,37
 489 1518 72 1348 72 1071 c 0,38,39
 72 899 223 801 369 754 c 1,40,41
 387 801 395 862 395 913 c 1,42,43
 317 944 233 987 233 1085 c 0,44,45
 233 1282 582 1393 870 1393 c 0,46,47
 1116 1393 1278 1239 1278 1083 c 0,48,49
 1278 920 1081 688 762 688 c 1,1,2
EndSplineSet
EndChar

StartChar: S
Encoding: 53 83 61
Width: 1069
VWidth: 0
Flags: W
LayerCount: 2
Fore
SplineSet
805 1518 m 0
387 1126 m 0,1,2
 387 1313 592 1423 756 1423 c 0,3,4
 872 1423 965 1376 965 1225 c 0,5,6
 965 1171 762 1094 698 1057 c 1,7,-1
 698 958 l 1,8,9
 756 979 1145 1198 1145 1227 c 0,10,11
 1145 1450 944 1518 803 1518 c 0,12,13
 528 1518 170 1337 170 1024 c 0,14,15
 170 752 709 492 709 219 c 0,16,17
 709 23 485 -88 328 -88 c 0,18,19
 133 -88 135 8 135 111 c 0,20,21
 135 145 137 182 139 209 c 1,22,-1
 96 207 l 2,23,24
 8 203 -70 150 -70 59 c 0,25,26
 -70 -106 109 -180 252 -180 c 0,27,28
 557 -180 926 -10 926 324 c 0,29,30
 926 723 387 862 387 1126 c 0,1,2
EndSplineSet
EndChar

StartChar: T
Encoding: 54 84 63
Width: 1085
VWidth: 0
Flags: W
LayerCount: 2
Fore
SplineSet
383 672 m 1
 395 688 412 782 412 840 c 1
 299 889 252 958 252 1032 c 0
 252 1202 508 1393 797 1393 c 0
 846 1393 891 1384 934 1372 c 1
 932 1372 l 2
 883 1372 825 1358 776 1305 c 1
 711 1130 559 41 297 41 c 1
 211 47 188 106 188 193 c 0
 188 231 190 279 199 328 c 1
 27 328 -14 254 -14 172 c 0
 -14 76 72 -57 256 -57 c 0
 803 -57 915 862 1016 1343 c 1
 1120 1305 1219 1253 1331 1253 c 0
 1507 1253 1651 1356 1700 1524 c 1
 1632 1505 1532 1444 1411 1444 c 0
 1219 1444 999 1518 817 1518 c 0
 389 1518 68 1270 68 1026 c 0
 68 895 162 762 383 672 c 1
EndSplineSet
EndChar

StartChar: Thorn
Encoding: 157 222 64
Width: 1554
VWidth: 0
Flags: W
LayerCount: 2
Fore
SplineSet
674 397 m 1
 756 381 834 373 905 373 c 0
 1317 373 1548 616 1548 848 c 0
 1548 1063 1354 1268 922 1268 c 0
 897 1268 870 1268 844 1266 c 1
 877 1462 l 1
 801 1462 l 2
 772 1462 657 1448 649 1403 c 2
 502 614 l 2
 471 451 393 -82 178 -82 c 0
 86 -82 61 -12 61 66 c 0
 61 96 63 137 63 176 c 1
 -33 176 -133 152 -133 53 c 0
 -133 -104 12 -180 160 -180 c 0
 344 -180 559 -63 674 397 c 1
877 1145 m 0
 1206 1145 1384 977 1384 811 c 0
 1384 651 1219 496 864 496 c 0
 811 496 756 498 694 506 c 1
 719 612 776 905 821 1143 c 1
 840 1145 858 1145 877 1145 c 0
EndSplineSet
EndChar

StartChar: U
Encoding: 55 85 65
Width: 1595
VWidth: 0
Flags: W
HStem: -57 204<573.33 873.927> 1339 181<1270.64 1380.53>
VStem: 223 238<260.878 719.921> 1147 119<1114.31 1338.09> 1432 122<1028 1276.99>
LayerCount: 2
Fore
SplineSet
799 1509 m 0
 799 1524 784 1530 772 1530 c 0
 709 1530 266 1235 -43 1057 c 1
 -43 946 l 1
 145 1059 362 1196 406 1221 c 1
 520 1309 l 2
 526 1313 528 1315 532 1315 c 0
 535 1315 537 1313 537 1311 c 1
 360 1069 223 696 223 403 c 0
 223 133 334 -57 625 -57 c 0
 1118 -57 1489 422 1552 920 c 1
 1728.01 955.748 1883.77 1073.72 1971 1147 c 1
 1971 1261 l 1
 1769.53 1063.79 1554 1024 1554 1024 c 1
 1554 1067 1571 1520 1362 1520 c 0
 1204 1520 1147 1362 1147 1247 c 0
 1147 1034 1352 936 1425 924 c 1
 1403 547 1118 147 745 147 c 0
 535 147 461 276 461 457 c 0
 461 844 799 1464 799 1509 c 0
1321 1339 m 0
 1391 1339 1432 1188 1432 1067 c 0
 1432 1055 1430 1040 1430 1028 c 1
 1343 1047 1266 1135 1266 1266 c 0
 1266 1300 1276 1339 1321 1339 c 0
EndSplineSet
Substitution2: "inits-1" U.init
EndChar

StartChar: V
Encoding: 56 86 72
Width: 1415
VWidth: 0
Flags: W
LayerCount: 2
Fore
SplineSet
698 182 m 0
 584 182 543 297 543 459 c 0
 543 850 778 1516 778 1509 c 1
 778 1524 760 1530 752 1530 c 0
 688 1530 246 1235 -63 1057 c 1
 -63 946 l 1
 125 1059 342 1196 385 1221 c 1
 500 1309 l 2
 506 1313 508 1315 512 1315 c 0
 514 1315 514 1313 514 1309 c 0
 514 1286 455 1188 430 1151 c 0
 348 1028 260 721 260 451 c 0
 260 180 348 -57 621 -57 c 0
 1051 -57 1335 559 1413 918 c 1
 1559 942 1702 1018 1774 1065 c 1
 1774 1180 l 1
 1604 1049 1425 1022 1425 1022 c 1
 1425 1118 1427 1518 1223 1518 c 0
 1065 1518 1008 1360 1008 1245 c 0
 1008 1032 1212 934 1286 922 c 1
 1196 653 913 182 698 182 c 0
1188 1339 m 0
 1257 1339 1298 1188 1298 1067 c 0
 1298 1055 1296 1040 1296 1028 c 1
 1210 1047 1133 1135 1133 1266 c 0
 1133 1300 1143 1339 1188 1339 c 0
EndSplineSet
Substitution2: "inits-1" V.init
EndChar

StartChar: W
Encoding: 57 87 73
Width: 1978
VWidth: 0
Flags: W
LayerCount: 2
Fore
SplineSet
1776 1339 m 0
 1845 1339 1886 1188 1886 1067 c 0
 1886 1055 1884 1040 1884 1028 c 1
 1798 1047 1720 1135 1720 1266 c 0
 1720 1300 1731 1339 1776 1339 c 0
1221 1174 m 0
 993 1174 920 713 920 451 c 0
 920 399 922 356 928 326 c 1
 883 250 760 182 694 182 c 0
 498 182 473 403 473 553 c 0
 473 872 768 1419 768 1509 c 0
 768 1524 754 1530 741 1530 c 0
 678 1530 236 1235 -74 1057 c 1
 -74 946 l 1
 115 1059 332 1196 375 1221 c 1
 489 1309 l 1
 496 1313 498 1315 502 1315 c 0
 504 1315 504 1313 504 1309 c 0
 504 1288 446 1188 420 1151 c 0
 274 952 190 649 190 403 c 0
 190 211 279 -55 510 -55 c 0
 643 -55 844 88 938 215 c 1
 938 215 983 -57 1235 -57 c 0
 1620 -57 1978 553 2001 918 c 1
 2138 942 2263 1018 2331 1065 c 1
 2331 1180 l 1
 2171 1049 2003 1022 2003 1022 c 1
 2003 1118 2015 1518 1810 1518 c 0
 1653 1518 1595 1360 1595 1245 c 0
 1595 1032 1800 934 1874 922 c 1
 1874 672 1630 217 1352 217 c 0
 1233 217 1114 279 1114 401 c 0
 1114 406 1303 844 1303 1059 c 0
 1303 1122 1286 1174 1221 1174 c 0
EndSplineSet
Substitution2: "inits-1" W.init
EndChar

StartChar: X
Encoding: 58 88 74
Width: 1544
VWidth: 0
Flags: W
LayerCount: 2
Fore
SplineSet
-25 66 m 0
 -25 -43 49 -59 123 -59 c 0
 303 -59 406 57 487 150 c 0
 516 182 641 322 786 494 c 1
 805 451 l 1
 952 86 1063 -57 1186 -57 c 0
 1317 -57 1458 106 1667 328 c 1
 1665 440 l 1
 1473 252 1382 135 1307 135 c 0
 1241 135 1188 231 1087 459 c 1
 981 727 l 1
 1063 827 1143 928 1210 1018 c 1
 1403 1303 1622 1368 1622 1462 c 0
 1622 1501 1577 1518 1532 1518 c 0
 1505 1518 1479 1511 1464 1501 c 0
 1364 1427 1317 1386 1063 1038 c 1
 1020 987 975 930 926 868 c 1
 823 1130 727 1374 705 1427 c 1
 674 1493 635 1518 594 1518 c 0
 561 1518 528 1501 498 1483 c 0
 465 1462 424 1436 35 1212 c 1
 35 1102 l 1
 223 1212 240 1212 281 1239 c 0
 330 1270 369 1284 395 1284 c 0
 440 1284 449 1243 473 1196 c 1
 528 1081 641 838 731 625 c 1
 524 371 315 135 215 135 c 0
 170 135 113 147 66 147 c 0
 14 147 -25 133 -25 66 c 0
EndSplineSet
EndChar

StartChar: Y
Encoding: 59 89 75
Width: 1554
VWidth: 0
Flags: W
HStem: -774 80<375.5 661.426> -18 266<394 695.933> 328 112<1561 1673>
VStem: 152 317<-675.292 -477.743> 266 258<145.5 525.935>
DStem2: 242 1219 276 1151 0.837651 0.546206<-34.6545 365.676> 1012 -41 1001 -139 0.882111 0.471041<-625.51 -55.8652> 1214 739 1286 86 0.244977 0.969529<-200.803 775.4> 1286 86 1268 -33 0.746493 0.665393<0 449.918>
LayerCount: 2
Fore
SplineSet
1001 -139 m 1xf0
 965 -260 l 1
 907 -467 688 -694 553 -694 c 1
 510 -688 469 -643 469 -547 c 0
 469 -455 586 -365 723 -301 c 1
 1001 -139 l 1xf0
584 1364 m 1
 477 1053 l 2
 389 795 266 463 266 248 c 0xe8
 266 43 350 -18 438 -18 c 0
 610 -18 954 207 1171 457 c 1
 1012 -41 l 1
 203 -473 l 2
 168 -492 152 -526 152 -565 c 0xf0
 152 -705 309 -774 442 -774 c 0
 893 -774 1137 -375 1268 -33 c 1
 1673 328 l 1
 1673 440 l 1
 1286 86 l 1
 1640 1487 l 1
 1423 1487 l 1
 1395 1477 1313 1151 1305 1114 c 2
 1214 739 l 1
 1147 457 786 248 602 248 c 0
 561 248 524 311 524 358 c 0
 524 498 682 926 758 1225 c 0
 795 1372 829 1460 829 1489 c 0
 829 1507 801 1518 764 1518 c 0
 729 1518 686 1509 653 1487 c 2
 242 1219 l 1
 221 1204 221 1190 221 1174 c 0
 221 1149 238 1137 254 1137 c 0
 256 1137 262 1141 266 1145 c 1xe8
 276 1151 l 1
 584 1364 l 1
EndSplineSet
EndChar

StartChar: Z
Encoding: 60 90 78
Width: 1450
VWidth: 0
Flags: W
HStem: -57 176<1024.25 1244> 1393 125<484.048 1164.27>
VStem: 117 243<1210.04 1404>
LayerCount: 2
Fore
SplineSet
236 211 m 2
 195 193 102 145 102 72 c 0
 102 -16 197 -29 211 -29 c 0
 309 -29 455 39 573 117 c 1
 1028 -33 1024 -57 1044 -57 c 0
 1212 -57 1339 74 1503 168 c 1
 1503 268 l 1
 1434 209 1329 150 1315 145 c 1
 1280 127 1257 119 1231 119 c 0
 1147 119 813 225 698 260 c 1
 1028 610 1303 1159 1448 1384 c 1
 1405 1481 l 1
 1235 1493 1120 1518 918 1518 c 0
 365 1518 117 1438 117 1370 c 0
 117 1243 190 1122 354 1061 c 1
 381 1067 422 1083 422 1100 c 1
 377 1139 360 1210 360 1280 c 0
 360 1325 580 1393 786 1393 c 0
 938 1393 1063 1386 1167 1376 c 1
 721 655 l 1
 631 512 545 403 483 322 c 1
 236 211 l 2
EndSplineSet
EndChar

StartChar: a
Encoding: 67 97 80
Width: 928
VWidth: 0
Flags: W
HStem: -29 215<548 772> -29 160<86.5 338> 328 112<939 1051> 764 76<494.829 637>
VStem: -4 213<150.254 421.656>
LayerCount: 2
Fore
SplineSet
150 -29 m 0x78
 291 -29 428 92 510 199 c 1
 506 172 502 137 502 102 c 0
 502 35 518 -29 578 -29 c 0
 678 -29 971 244 1051 328 c 1
 1051 440 l 1
 918 299 799 186 745 186 c 0xb8
 723 186 715 205 715 250 c 0
 715 332 817 766 825 807 c 1
 768 825 717 840 657 840 c 0
 301 840 -4 520 -4 225 c 0
 -4 121 23 -29 150 -29 c 0x78
637 764 m 1
 522 272 l 1
 467 213 369 131 307 131 c 0x78
 233 131 209 203 209 281 c 0
 209 492 412 764 637 764 c 1
EndSplineSet
Substitution2: "fina-1" a.fina
EndChar

StartChar: acute
Encoding: 115 180 84
Width: 1706
VWidth: 0
Flags: W
LayerCount: 2
Fore
SplineSet
1053 805 m 0
1380 1118 m 1,1,2
 1395 1122 1399 1135 1399 1147 c 0,3,4
 1399 1186 1339 1249 1292 1249 c 1,5,6
 1182 1243 963 1079 872 995 c 1,7,-1
 895 940 l 1,8,9
 967 965 1137 1022 1292 1083 c 2,10,-1
 1380 1118 l 1,1,2
EndSplineSet
EndChar

StartChar: ae
Encoding: 165 230 86
Width: 1219
VWidth: 0
Flags: W
LayerCount: 2
Fore
SplineSet
209 -29 m 0
 305 -29 467 20 547 129 c 1
 547 131 l 1
 582 23 678 -29 788 -29 c 0
 967 -29 1133 104 1339 332 c 1
 1339 442 l 1
 1210 324 1012 86 887 86 c 0
 756 86 719 197 719 317 c 0
 719 373 731 430 762 494 c 1
 811 416 887 385 942 385 c 0
 1094 385 1241 514 1241 668 c 0
 1241 786 1149 840 1042 840 c 0
 956 840 860 807 793 748 c 1
 813 840 l 1
 315 840 -4 520 -4 225 c 0
 -4 86 66 -29 209 -29 c 0
653 764 m 1
 535 246 l 1
 473 184 375 131 307 131 c 0
 231 131 209 203 209 281 c 0
 209 492 375 702 653 764 c 1
791 569 m 1
 811 629 889 754 1008 754 c 0
 1065 754 1102 733 1102 657 c 0
 1102 563 1036 471 958 471 c 0
 899 471 838 508 791 569 c 1
EndSplineSet
EndChar

StartChar: ampersand
Encoding: 8 38 89
Width: 1442
VWidth: 0
Flags: W
LayerCount: 2
Fore
SplineSet
799 -494 m 0
 799 -504 805 -518 811 -526 c 1
 1067 -526 1298 -197 1298 41 c 0
 1298 133 1247 252 1196 328 c 1
 1368 434 1565 764 1565 932 c 0
 1565 961 1550 977 1522 975 c 2
 1483 973 l 1
 1444 942 1442 788 1413 733 c 0
 1358 631 1251 487 1143 418 c 1
 1020 621 825 887 825 1133 c 0
 825 1264 877 1395 1028 1395 c 0
 1124 1395 1219 1325 1219 1223 c 0
 1219 1157 1067 1108 1018 1081 c 1
 1022 1061 1032 1040 1047 1024 c 1
 1116 1057 1407 1153 1407 1241 c 0
 1407 1425 1206 1518 1047 1518 c 0
 827 1518 567 1315 567 1083 c 0
 567 1022 580 965 596 905 c 1
 369 770 70 614 70 319 c 0
 70 98 276 -29 479 -29 c 0
 649 -29 807 55 956 154 c 1
 995 76 1042 -16 1042 -104 c 0
 1042 -365 799 -430 799 -494 c 0
911 238 m 1
 825 182 756 145 666 145 c 0
 492 145 342 303 342 475 c 0
 342 629 483 725 618 805 c 1
 911 238 l 1
EndSplineSet
EndChar

StartChar: asciicircum
Encoding: 64 94 91
Width: 1706
VWidth: 0
Flags: W
LayerCount: 2
Fore
SplineSet
664 717 m 1
 711 760 1016 1108 1120 1214 c 1
 1182 1108 1372 752 1403 709 c 1
 1475 750 l 1
 1473 758 1214 1382 1149 1382 c 0
 1065 1382 692 913 604 760 c 1
 664 717 l 1
EndSplineSet
EndChar

StartChar: asciitilde
Encoding: 96 126 92
Width: 1118
VWidth: 0
Flags: W
LayerCount: 2
Fore
SplineSet
887 901 m 1
 1012 920 l 1
 1008 936 1016 1182 836 1182 c 0
 676 1182 471 1065 328 1065 c 0
 285 1065 254 1092 246 1188 c 1
 137 1167 l 1
 141 1151 133 905 313 905 c 0
 504 905 676 1030 811 1030 c 0
 848 1030 877 995 887 901 c 1
EndSplineSet
EndChar

StartChar: asterisk
Encoding: 12 42 93
Width: 870
VWidth: 0
Flags: W
LayerCount: 2
Fore
SplineSet
362 1024 m 1
 274 930 123 823 123 754 c 0
 123 721 178 670 211 670 c 0
 266 670 397 934 420 987 c 1
 444 932 567 668 625 668 c 0
 657 668 719 719 719 754 c 0
 719 819 565 924 479 1022 c 1
 635 1063 838 1075 838 1141 c 0
 838 1171 801 1253 766 1253 c 0
 707 1253 553 1128 459 1081 c 1
 483 1153 545 1339 545 1409 c 0
 545 1468 481 1462 438 1462 c 0
 393 1462 383 1417 383 1352 c 0
 383 1290 393 1212 393 1137 c 0
 393 1122 391 1108 391 1094 c 1
 365 1110 152 1266 104 1266 c 0
 68 1266 35 1184 35 1153 c 0
 35 1092 219 1057 362 1024 c 1
EndSplineSet
EndChar

StartChar: at
Encoding: 34 64 94
Width: 1587
VWidth: 0
Flags: W
LayerCount: 2
Fore
SplineSet
1526 514 m 0
 1526 956 1255 1139 946 1139 c 0
 528 1139 55 809 55 334 c 0
 55 -129 418 -313 780 -313 c 0
 979 -313 1186 -274 1350 -199 c 1
 1290 -76 l 1
 1098 -154 915 -190 754 -190 c 0
 430 -190 203 8 203 352 c 0
 203 741 602 1018 938 1018 c 0
 1184 1018 1397 870 1397 512 c 0
 1397 266 1245 86 1145 86 c 0
 1079 86 1065 143 1065 201 c 0
 1065 229 1069 260 1073 281 c 0
 1087 356 1178 770 1184 807 c 1
 1126 825 1073 840 1016 840 c 0
 659 840 354 520 354 225 c 0
 354 41 455 -31 569 -31 c 0
 705 -31 860 68 899 199 c 1
 899 80 999 0 1137 0 c 0
 1393 0 1526 287 1526 514 c 0
995 764 m 1
 881 272 l 1
 823 164 743 100 678 100 c 0
 614 100 567 158 567 281 c 0
 567 492 770 764 995 764 c 1
EndSplineSet
EndChar

StartChar: b
Encoding: 68 98 96
Width: 986
VWidth: 0
Flags: W
LayerCount: 2
Fore
SplineSet
430 924 m 1
 430 997 608 1466 678 1466 c 0
 725 1466 745 1440 745 1399 c 0
 745 1272 565 1010 430 924 c 1
287 1108 m 0
 178 715 78 420 78 133 c 0
 78 37 104 -57 291 -57 c 0
 711 -57 947 209 1074 332 c 1
 1075 446 l 1
 986 358 858 207 768 156 c 1
 883 250 913 428 913 547 c 0
 913 682 850 776 702 776 c 0
 627 776 500 672 481 600 c 1
 670 600 737 532 737 436 c 0
 737 283 555 76 410 76 c 0
 322 76 293 141 293 236 c 0
 293 375 358 582 395 733 c 1
 778 1087 895 1311 895 1450 c 0
 895 1528 854 1581 741 1581 c 0
 530 1581 340 1300 287 1108 c 0
EndSplineSet
Substitution2: "fina-1" b.fina
EndChar

StartChar: backslash
Encoding: 62 92 97
Width: 821
VWidth: 0
Flags: W
LayerCount: 2
Fore
SplineSet
158 1415 m 1
 170 1372 766 258 860 8 c 1
 883 -49 930 -94 930 -152 c 0
 930 -170 926 -182 907 -182 c 0
 766 -182 745 -63 713 -2 c 1
 -66 1554 l 1
 -68 1561 -72 1583 -72 1587 c 0
 -72 1604 -61 1620 -51 1620 c 0
 72 1620 106 1581 158 1415 c 1
EndSplineSet
EndChar

StartChar: bar
Encoding: 94 124 98
Width: 739
VWidth: 0
Flags: W
LayerCount: 2
Fore
SplineSet
459 1374 m 0
 449 1331 152 119 119 -33 c 0
 109 -80 90 -170 90 -170 c 1
 90 -170 111 -170 203 -170 c 0
 264 -170 256 -92 268 -43 c 2
 645 1513 l 2
 645 1516 625 1518 573 1518 c 0
 483 1518 487 1499 459 1374 c 0
EndSplineSet
EndChar

StartChar: braceleft
Encoding: 93 123 99
Width: 813
VWidth: 0
Flags: W
LayerCount: 2
Fore
SplineSet
88 360 m 0
 88 346 86 334 86 319 c 0
 86 80 174 -131 369 -131 c 0
 399 -131 432 -127 469 -115 c 1
 481 -20 l 1
 463 -29 444 -31 428 -31 c 0
 324 -31 291 115 291 281 c 0
 291 406 319 543 319 639 c 0
 319 698 299 739 225 782 c 1
 307 801 362 823 397 985 c 1
 438 1184 561 1481 731 1481 c 0
 745 1481 762 1479 780 1473 c 1
 801 1587 l 1
 774 1591 748 1593 723 1593 c 0
 442 1593 299 1348 219 1047 c 0
 195 954 199 885 139 885 c 0
 109 885 92 885 61 887 c 1
 35 711 l 1
 80 694 121 739 121 629 c 1
 117 532 92 449 88 360 c 0
EndSplineSet
EndChar

StartChar: braceright
Encoding: 95 125 100
Width: 813
VWidth: 0
Flags: W
LayerCount: 2
Fore
SplineSet
725 1102 m 0
 725 1114 725 1128 725 1143 c 0
 725 1382 639 1593 444 1593 c 0
 414 1593 381 1589 344 1577 c 1
 332 1483 l 1
 350 1491 369 1493 385 1493 c 0
 489 1493 522 1348 522 1182 c 0
 522 1057 494 920 494 821 c 0
 494 764 514 723 588 680 c 1
 506 662 449 639 416 477 c 1
 373 279 252 -18 82 -18 c 0
 68 -18 51 -16 33 -10 c 1
 12 -125 l 1
 39 -129 66 -131 90 -131 c 0
 371 -131 514 115 594 416 c 0
 618 508 614 578 674 578 c 0
 705 578 721 578 752 575 c 1
 778 752 l 1
 733 768 692 723 692 834 c 1
 696 930 721 1014 725 1102 c 0
EndSplineSet
EndChar

StartChar: bracketleft
Encoding: 61 91 101
Width: 983
VWidth: 0
Flags: W
LayerCount: 2
Fore
SplineSet
35 -133 m 2
 33 -139 33 -154 33 -162 c 0
 33 -180 45 -199 57 -199 c 0
 66 -199 72 -197 86 -190 c 1
 238 -188 369 -184 520 -180 c 1
 549 -162 582 -135 582 -113 c 0
 582 -96 573 -78 555 -74 c 1
 512 -74 342 -76 279 -76 c 1
 283 -33 653 1421 653 1421 c 1
 717 1421 885 1430 928 1430 c 1
 956 1436 977 1464 977 1487 c 0
 977 1509 965 1536 944 1536 c 2
 518 1536 l 2
 481 1536 451 1526 438 1479 c 1
 35 -133 l 2
EndSplineSet
EndChar

StartChar: bracketright
Encoding: 63 93 102
Width: 989
VWidth: 0
Flags: W
LayerCount: 2
Fore
SplineSet
954 1481 m 2
 956 1487 956 1501 956 1509 c 0
 956 1528 944 1546 932 1546 c 0
 924 1546 918 1544 903 1538 c 1
 752 1536 621 1532 469 1528 c 1
 440 1509 408 1483 408 1460 c 0
 408 1444 416 1425 434 1421 c 1
 477 1421 647 1423 711 1423 c 1
 707 1380 317 -70 336 -74 c 1
 272 -74 104 -72 61 -72 c 1
 41 -76 25 -94 16 -111 c 1
 6 -133 25 -160 45 -178 c 1
 195 -182 322 -186 471 -188 c 1
 483 -195 487 -197 496 -197 c 0
 508 -197 530 -178 539 -160 c 0
 543 -152 551 -137 551 -131 c 1
 954 1481 l 2
EndSplineSet
EndChar

StartChar: breve
Encoding: 234 728 103
Width: 1706
VWidth: 0
Flags: W
LayerCount: 2
Fore
SplineSet
1053 805 m 0
1452 1257 m 1,1,-1
 1350 1282 l 1,2,3
 1350 1282 1266 1100 1126 1100 c 0,4,5
 989 1100 989 1280 989 1282 c 1,6,-1
 868 1257 l 1,7,8
 874 1243 864 948 1120 948 c 0,9,10
 1329 948 1430 1135 1452 1257 c 1,1,-1
EndSplineSet
EndChar

StartChar: brokenbar
Encoding: 102 166 104
Width: 739
VWidth: 0
Flags: W
LayerCount: 2
Fore
SplineSet
96 -145 m 2
 96 -147 92 -170 203 -170 c 0
 238 -170 256 -92 268 -43 c 2
 416 571 l 1
 414 580 354 600 311 600 c 0
 283 600 266 592 262 571 c 2
 96 -145 l 2
645 1513 m 2
 645 1516 625 1518 573 1518 c 0
 481 1518 489 1499 459 1374 c 2
 338 881 l 1
 338 870 346 858 467 858 c 0
 483 858 489 868 492 881 c 2
 645 1513 l 2
EndSplineSet
EndChar

StartChar: bullet
Encoding: 252 8226 105
Width: 422
VWidth: 0
Flags: W
LayerCount: 2
Fore
SplineSet
158 403 m 0
 346 403 504 582 504 723 c 0
 504 805 442 881 281 881 c 0
 121 881 -2 700 -2 561 c 0
 -2 479 45 403 158 403 c 0
EndSplineSet
EndChar

StartChar: c
Encoding: 69 99 106
Width: 696
VWidth: 0
Flags: W
HStem: -29 170<146.5 406.401> 330 112<711 823> 743 97<345.96 543>
VStem: -4 219<179.138 448.273>
LayerCount: 2
Fore
SplineSet
227 -29 m 0
 428 -29 641 154 823 330 c 1
 823 442 l 1
 672 293 481 141 344 141 c 0
 252 141 215 229 215 338 c 0
 215 514 311 743 432 743 c 0
 522 743 520 616 575 616 c 0
 651 616 707 659 707 717 c 0
 707 827 578 840 508 840 c 0
 209 840 -4 487 -4 231 c 0
 -4 86 66 -29 227 -29 c 0
EndSplineSet
Substitution2: "fina-1" c.fina
EndChar

StartChar: caron
Encoding: 233 711 107
Width: 1706
VWidth: 0
Flags: W
LayerCount: 2
Fore
SplineSet
1053 805 m 0
1411 1339 m 1,1,-1
 1315 1362 l 1,2,3
 1315 1362 1182 1198 1094 1092 c 1,4,5
 1049 1198 979 1362 979 1362 c 1,6,-1
 866 1339 l 1,7,8
 868 1331 993 944 1065 944 c 0,9,10
 1149 944 1323 1186 1411 1339 c 1,1,-1
EndSplineSet
EndChar

StartChar: cedilla
Encoding: 119 184 110
Width: 709
VWidth: 0
Flags: W
LayerCount: 2
Fore
SplineSet
360 0 m 0
360 0 m 0,1,2
 268 0 221 -45 221 -90 c 0,3,4
 221 -123 246 -158 299 -174 c 1,5,6
 299 -348 215 -430 215 -430 c 1,7,-1
 231 -492 l 1,8,9
 397 -459 465 -201 465 -117 c 0,10,11
 465 -45 438 0 360 0 c 0,1,2
EndSplineSet
EndChar

StartChar: cent
Encoding: 98 162 111
Width: 778
VWidth: 0
Flags: W
LayerCount: 2
Fore
SplineSet
698 410 m 1
 592 328 485 266 397 266 c 2
 381 266 l 1
 518 860 l 1
 575 834 582 741 629 741 c 0
 705 741 760 784 760 842 c 0
 760 952 631 965 561 965 c 0
 555 965 549 963 543 963 c 1
 651 1430 l 1
 651 1462 623 1466 616 1466 c 0
 586 1466 584 1444 541 1270 c 2
 463 952 l 1
 193 891 8 586 8 356 c 0
 8 217 82 106 256 96 c 1
 217 -70 180 -236 160 -336 c 1
 152 -389 l 1
 145 -424 141 -444 141 -465 c 0
 141 -485 152 -494 170 -494 c 0
 231 -494 221 -424 236 -360 c 2
 342 102 l 1
 475 125 612 219 739 330 c 1
 698 410 l 1
324 383 m 1
 315 354 307 324 301 291 c 1
 248 326 227 389 227 463 c 0
 227 621 317 821 440 860 c 1
 324 383 l 1
EndSplineSet
EndChar

StartChar: circumflex
Encoding: 232 710 112
Width: 1706
VWidth: 0
Flags: W
LayerCount: 2
Fore
SplineSet
1053 805 m 0
858 944 m 1,1,2
 905 987 1016 1108 1120 1214 c 1,3,4
 1182 1108 1245 987 1276 944 c 1,5,-1
 1348 985 l 1,6,7
 1346 993 1214 1382 1149 1382 c 0,8,9
 1065 1382 887 1141 799 987 c 1,10,-1
 858 944 l 1,1,2
EndSplineSet
EndChar

StartChar: ck
Encoding: 269 -1 113
Width: 1599
VWidth: 0
Flags: W
HStem: -29 152.758<146.5 416.99 1255.51 1407.15> 387.511 69.4893<1059.65 1187.56> 743 95.7541<353.245 522.789 1196.95 1429.45> 1205.71 161.652<750.228 965.363>
VStem: -4 219<173.197 487.354> 539.374 98.7316<837.339 1119.34> 689 159<0 55.9644> 975.4 197.05<943.877 1192.48> 1213.41 175.313<120.608 367.363> 1363 169.166<559.543 734.878>
DStem2: 689 0 986 360 0.248151 0.968722<44.6572 453.073 742.749 1152.56>
LayerCount: 2
Back
SplineSet
1731 440 m 5xf8
 1637 342 1436 145 1422 131 c 4
 1416 125 1410 121 1405 121 c 4
 1391 121 1387 156 1387 188 c 4xf8
 1387 211 1389 236 1389 262 c 4
 1389 342 1371 424 1225 424 c 5
 1405 489 1532 526 1532 698 c 4xf4
 1532 776 1479 840 1399 840 c 4
 1278 840 1154 795 1051 674 c 5
 1049 674 1219 1243 1278 1458 c 5
 1268 1462 1250 1462 1233 1462 c 4
 1092 1462 1070 1456 1002 1204 c 5
 1002 1204 709 131 693 0 c 5
 848 0 l 5
 926 66 982 342 986 360 c 6
 992 387 l 5
 1180 387 1213 356 1213 303 c 4
 1213 256 1199 180 1199 113 c 4
 1199 37 1217 -29 1293 -29 c 4
 1375 -29 1436 37 1731 328 c 5
 1731 440 l 5xf8
1007 457 m 5
 1019 575 1214 741 1285 741 c 4
 1337 741 1363 709 1363 647 c 4xf4
 1363 512 1179 457 1074 457 c 6
 1007 457 l 5
370.234 123.758 m 4
 258.009 123.758 215 215.366 215 338 c 4
 215 514 311 743 432 743 c 4
 522 743 520 616 575 616 c 4
 651 616 707 659 707 717 c 4
 707 827 578 840 508 840 c 4
 209 840 -4 487 -4 231 c 4
 -4 86 66 -29 227 -29 c 4
 428 -29 661 114 823 330 c 5
 823 442 l 5
 664.243 248.041 488.247 123.758 370.234 123.758 c 4
EndSplineSet
Fore
SplineSet
1007 457 m 1xff40
 1019 575 1214 741 1285 741 c 0
 1337 741 1363 709 1363 647 c 0
 1363 512 1179 457 1074 457 c 2
 1007 457 l 1xff40
456.706 838.754 m 0
 201.956 838.754 -4 568.497 -4 231 c 0
 -4 86 66 -29 227 -29 c 0
 355.648 -29 498.395 38.7677 624 151.467 c 1
 597 244.555 l 1
 512.601 167.873 432.329 123.758 370.234 123.758 c 0
 258.009 123.758 215 215.366 215 338 c 0
 215 514 319.848 743 452 743 c 0
 554.587 743 552.308 556 615 556 c 0
 691 556 747 599 747 657 c 0
 747 766.21 638.105 865.918 638.105 988.279 c 0
 638.105 1096.11 718.314 1205.71 854.914 1205.71 c 0
 948.037 1205.71 975.4 1169.49 975.4 1118.99 c 0
 975.4 1064.43 943.457 993.203 928 933 c 2
 689 0 l 1
 848 0 l 1
 922.894 95.0164 955.514 222.812 986 360 c 2
 992 387 l 1
 996.061 386.758 1000.61 386.667 1005.57 386.667 c 0
 1020.67 386.667 1039.51 387.511 1059.65 387.511 c 0
 1128.88 387.511 1213.41 377.545 1213.41 289.094 c 0
 1213.41 235.996 1197.84 162.645 1197.84 99.5875 c 0
 1197.84 32.558 1218.33 -29.513 1292.68 -29.513 c 0
 1384.45 -29.513 1454.7 56.1414 1504.72 106.27 c 0
 1579.34 181.038 1652.09 257.784 1731 328 c 1
 1731 440 l 1
 1731 440 1435.95 118.972 1405.33 118.972 c 0
 1387.16 118.972 1387.1 175.454 1387.1 194.3 c 0
 1387.1 217.973 1388.72 242.569 1388.72 266.473 c 0xff80
 1388.72 362.27 1338.65 425.606 1247.13 425.606 c 0
 1239.85 425.606 1232.46 425.084 1225 424 c 1
 1356.63 471.894 1532.17 512.286 1532.17 688.528 c 0
 1532.17 785.445 1478.28 840.507 1380.63 840.507 c 0
 1233.44 840.507 1119.71 758.095 1051 674 c 1
 1153 1012 l 2
 1165.28 1055.72 1172.45 1099.8 1172.45 1141.31 c 0
 1172.45 1265.84 1107.96 1367.36 923.439 1367.36 c 0
 754.986 1367.36 539.374 1234.96 539.374 1009.28 c 0
 539.374 916.224 561.333 812.126 619.655 740.39 c 1
 579.18 806.052 539.293 838.754 456.706 838.754 c 0
EndSplineSet
LCarets2: 1 0 
Ligature2: "Standard Ligatures-1" c k
EndChar

StartChar: colon
Encoding: 28 58 114
Width: 422
VWidth: 0
Flags: W
LayerCount: 2
Fore
SplineSet
158 729 m 0
 250 729 328 817 328 887 c 0
 328 928 297 965 217 965 c 0
 137 965 78 874 78 807 c 0
 78 766 100 729 158 729 c 0
158 -29 m 0
 250 -29 328 59 328 129 c 0
 328 170 297 207 217 207 c 0
 137 207 78 117 78 49 c 0
 78 8 100 -29 158 -29 c 0
EndSplineSet
EndChar

StartChar: comma
Encoding: 14 44 115
Width: 483
VWidth: 0
Flags: W
LayerCount: 2
Fore
SplineSet
252 207 m 0
 172 207 113 117 113 49 c 0
 113 8 135 -29 190 -29 c 1
 166 -137 127 -244 127 -244 c 1
 184 -264 l 1
 215 -211 356 10 356 90 c 0
 356 162 330 207 252 207 c 0
EndSplineSet
EndChar

StartChar: commaaccent
Encoding: 258 63171 116
Width: 709
VWidth: 0
Flags: W
LayerCount: 2
Fore
SplineSet
365 0 m 0
360 -90 m 0,1,2
 281 -90 221 -180 221 -248 c 0,3,4
 221 -289 244 -326 299 -326 c 1,5,6
 291 -424 276 -520 276 -520 c 1,7,-1
 334 -541 l 1,8,9
 356 -483 465 -250 465 -166 c 0,10,11
 465 -119 438 -90 360 -90 c 0,1,2
EndSplineSet
EndChar

StartChar: copyright
Encoding: 105 169 117
Width: 1819
VWidth: 0
Flags: W
LayerCount: 2
Fore
SplineSet
1006 1196 m 0
 1061 1196 1104 1079 1104 1036 c 0
 1104 977 881 932 881 866 c 0
 881 848 891 831 909 831 c 0
 922 831 1186 965 1231 995 c 0
 1253 1010 1257 1026 1257 1053 c 0
 1257 1176 1143 1272 1024 1272 c 0
 692 1272 467 981 467 664 c 0
 467 455 584 266 811 266 c 0
 1001 266 1182 397 1313 522 c 1
 1313 616 l 1
 1202 508 1047 399 885 399 c 0
 694 399 618 555 618 727 c 0
 618 934 778 1196 1006 1196 c 0
1585 758 m 1
 1585 317 1235 37 862 37 c 0
 561 37 221 244 221 729 c 0
 221 1157 598 1425 954 1425 c 0
 1352 1425 1575 1106 1585 758 c 1
961 1518 m 0
 420 1518 111 1090 111 711 c 0
 111 166 508 -57 852 -57 c 0
 1434 -57 1708 350 1708 752 c 0
 1708 1137 1448 1518 961 1518 c 0
EndSplineSet
EndChar

StartChar: currency
Encoding: 100 164 118
Width: 1176
VWidth: 0
Flags: W
LayerCount: 2
Fore
SplineSet
956 901 m 0
 956 983 932 1063 885 1126 c 1
 1077 1354 l 2
 1083 1360 1090 1384 1090 1386 c 2
 1090 1384 l 1
 1053 1419 1022 1432 995 1432 c 0
 940 1432 907 1378 907 1376 c 1
 909 1378 l 1
 905 1372 809 1245 784 1217 c 1
 731 1245 668 1264 594 1264 c 0
 514 1264 446 1245 387 1217 c 1
 279 1360 217 1432 180 1432 c 0
 135 1432 115 1380 115 1360 c 0
 115 1309 170 1260 174 1257 c 1
 270 1130 l 1
 193 1047 152 932 152 819 c 0
 152 727 176 653 215 598 c 1
 168 539 129 487 109 457 c 0
 72 403 43 406 43 344 c 0
 43 315 94 295 111 295 c 0
 156 295 213 367 250 412 c 2
 326 502 l 1
 383 471 449 457 514 457 c 0
 586 457 655 473 719 504 c 1
 864 313 l 2
 887 283 918 270 946 270 c 0
 987 270 1024 297 1024 326 c 0
 1024 332 1022 340 1018 346 c 0
 950 438 950 426 829 584 c 1
 907 659 956 768 956 901 c 0
584 1112 m 0
 731 1112 788 1010 788 893 c 0
 788 758 690 608 522 608 c 0
 379 608 328 717 328 821 c 0
 328 961 418 1112 584 1112 c 0
EndSplineSet
EndChar

StartChar: d
Encoding: 70 100 119
Width: 913
VWidth: 0
Flags: W
LayerCount: 2
Fore
SplineSet
147 -29 m 0
 231 -29 389 61 541 238 c 1
 530 193 524 145 524 104 c 0
 524 29 545 -29 606 -29 c 0
 692 -29 883 174 1036 328 c 1
 1036 440 l 1
 909 307 805 199 772 199 c 0
 750 199 741 211 741 262 c 0
 741 377 958 1130 1022 1321 c 1
 1036 1368 1055 1442 1057 1460 c 1
 1022 1460 l 2
 852 1460 842 1430 809 1294 c 1
 676 819 l 1
 649 827 610 840 545 840 c 0
 297 840 10 471 10 182 c 0
 10 98 31 -29 147 -29 c 0
657 731 m 1
 569 344 l 2
 557 295 395 158 303 158 c 0
 254 158 221 190 221 285 c 0
 221 489 383 770 563 770 c 0
 623 770 655 737 657 731 c 1
EndSplineSet
Substitution2: "fina-1" d.fina
EndChar

StartChar: degree
Encoding: 111 176 120
Width: 682
VWidth: 0
Flags: W
LayerCount: 2
Fore
SplineSet
362 1432 m 0
 465 1432 506 1360 506 1278 c 0
 506 1184 436 1079 319 1079 c 0
 219 1079 182 1155 182 1229 c 0
 182 1325 246 1432 362 1432 c 0
623 1284 m 0
 623 1415 539 1538 369 1538 c 0
 164 1538 59 1378 59 1227 c 0
 59 1051 190 973 313 973 c 0
 471 973 623 1090 623 1284 c 0
EndSplineSet
EndChar

StartChar: dieresis
Encoding: 104 168 121
Width: 1706
VWidth: 0
Flags: W
LayerCount: 2
Fore
SplineSet
688 840 m 0
450 984 m 0,1,2
 542 984 622 1073 622 1142 c 0,3,4
 622 1183 589 1220 511 1220 c 0,5,6
 429 1220 372 1130 372 1062 c 0,7,8
 372 1021 394 984 450 984 c 0,1,2
934 984 m 0,9,10
 1026 984 1104 1073 1104 1142 c 0,11,12
 1104 1183 1073 1220 993 1220 c 0,13,14
 913 1220 854 1130 854 1062 c 0,15,16
 854 1021 876 984 934 984 c 0,9,10
EndSplineSet
EndChar

StartChar: divide
Encoding: 182 247 122
Width: 862
VWidth: 0
Flags: W
LayerCount: 2
Fore
SplineSet
164 725 m 5
 143 719 115 702 115 639 c 4
 115 596 162 598 172 598 c 4
 428 616 473 616 518 616 c 4
 580 616 643 614 717 614 c 4
 770 614 817 674 817 711 c 4
 817 743 690 752 547 752 c 4
 471 752 207 733 164 725 c 5
381 254 m 0
 473 254 551 342 551 412 c 0
 551 453 520 489 440 489 c 0
 360 489 301 399 301 332 c 0
 301 291 324 254 381 254 c 0
483 864 m 0
 553 864 612 952 612 1022 c 0
 612 1063 582 1100 502 1100 c 0
 434 1100 383 1010 383 942 c 0
 383 901 412 864 483 864 c 0
EndSplineSet
EndChar

StartChar: dollar
Encoding: 6 36 123
Width: 1069
VWidth: 0
Flags: W
LayerCount: 2
Fore
SplineSet
670 1503 m 1
 424 1458 170 1288 170 1024 c 0
 170 899 319 782 461 664 c 1
 403 428 348 193 315 35 c 1
 133 39 135 133 135 233 c 0
 135 266 137 305 139 332 c 1
 96 330 l 2
 8 326 -70 272 -70 182 c 0
 -70 16 109 -57 252 -57 c 0
 266 -57 283 -57 297 -55 c 1
 289 -109 l 2
 283 -143 279 -164 279 -184 c 0
 279 -205 289 -213 307 -213 c 0
 369 -213 360 -143 373 -80 c 1
 379 -47 l 1
 651 -8 926 158 926 446 c 0
 926 641 745 762 594 872 c 1
 721 1421 l 1
 731 1421 743 1423 756 1423 c 0
 872 1423 965 1376 965 1225 c 0
 965 1171 762 1094 698 1057 c 1
 698 958 l 1
 756 979 1145 1198 1145 1227 c 0
 1145 1450 944 1518 803 1518 c 0
 782 1518 762 1516 741 1513 c 1
 788 1710 l 1
 788 1743 760 1747 754 1747 c 0
 723 1747 709 1726 678 1550 c 1
 670 1503 l 1
709 342 m 0
 709 174 545 70 399 41 c 1
 530 604 l 1
 629 518 709 432 709 342 c 0
387 1126 m 0
 387 1272 514 1372 647 1407 c 1
 526 924 l 1
 446 987 387 1051 387 1126 c 0
EndSplineSet
EndChar

StartChar: dotaccent
Encoding: 235 729 124
Width: 743
VWidth: 0
Flags: W
LayerCount: 2
Fore
SplineSet
352 817 m 0
410 1044 m 0,1,2
 502 1044 582 1133 582 1202 c 0,3,4
 582 1243 549 1280 471 1280 c 0,5,6
 389 1280 332 1190 332 1122 c 0,7,8
 332 1081 354 1044 410 1044 c 0,1,2
EndSplineSet
EndChar

StartChar: dotaccentcmb
Encoding: 240 775 125
Width: 743
VWidth: 0
Flags: W
LayerCount: 2
Fore
SplineSet
352 817 m 0
410 1044 m 0,1,2
 502 1044 582 1133 582 1202 c 0,3,4
 582 1243 549 1280 471 1280 c 0,5,6
 389 1280 332 1190 332 1122 c 0,7,8
 332 1081 354 1044 410 1044 c 0,1,2
EndSplineSet
EndChar

StartChar: dotlessi
Encoding: 199 305 126
Width: 469
VWidth: 0
Flags: W
LayerCount: 2
Fore
SplineSet
346 836 m 0
117 -29 m 1,1,2
 240 -23 365 104 590 326 c 1,3,-1
 590 438 l 1,4,5
 528 369 299 133 266 133 c 0,6,7
 236 133 231 180 231 199 c 0,8,9
 231 299 356 694 389 807 c 1,10,11
 279 807 209 809 168 702 c 0,12,13
 139 627 29 209 29 102 c 0,14,15
 29 41 53 -29 117 -29 c 1,1,2
EndSplineSet
EndChar

StartChar: dotlessj
Encoding: 231 567 127
Width: 442
VWidth: 0
Flags: W
LayerCount: 2
Fore
SplineSet
313 821 m 0
-18 2 m 1,1,2
 -18 2 -389 -295 -440 -588 c 1,3,4
 -451 -672 -438 -791 -346 -791 c 0,5,6
 -182 -791 6 -639 41 -514 c 0,7,8
 96 -317 104 -272 158 -16 c 1,9,10
 287 45 420 178 567 328 c 1,11,-1
 567 440 l 1,12,13
 397 268 217 115 195 106 c 1,14,15
 195 207 342 694 375 807 c 1,16,17
 264 807 195 809 154 702 c 0,18,19
 127 633 47 279 20 137 c 1,20,-1
 -18 2 l 1,1,2
-313 -580 m 1,21,22
 -287 -469 -264 -403 -23 -117 c 1,23,24
 -59 -301 -117 -682 -244 -682 c 0,25,26
 -303 -682 -326 -627 -313 -580 c 1,21,22
EndSplineSet
EndChar

StartChar: e
Encoding: 71 101 128
Width: 724
VWidth: 0
Flags: W
HStem: -31.1411 113.141<207.745 476.801> 381 86<358.95 558.842> 750 90<408.968 604.828>
VStem: 27 204<140.633 484.814> 614 140<522.841 740.435>
LayerCount: 2
Fore
SplineSet
303 565 m 1
 324 625 401 750 520 750 c 0
 578 750 614 729 614 653 c 0
 614 559 549 467 471 467 c 0
 412 467 350 504 303 565 c 1
291.547 -31.1411 m 0
 488.139 -31.1411 654.332 110.565 852 328 c 1
 852 438 l 1
 723 319 524 82 399 82 c 0
 268 82 231 193 231 313 c 0
 231 369 244 426 274 489 c 1
 324 412 399 381 455 381 c 0
 606 381 754 510 754 664 c 0
 754 797 649 840 518 840 c 0
 227 840 27 547 27 258 c 0
 27 86.2939 130.374 -31.1411 291.547 -31.1411 c 0
EndSplineSet
Substitution2: "fina-1" e.fina
EndChar

StartChar: eight
Encoding: 26 56 135
Width: 1286
VWidth: 0
Flags: W
LayerCount: 2
Fore
SplineSet
416 -57 m 0
 676 -57 1038 102 1038 399 c 0
 1038 580 913 696 786 811 c 1
 948 946 1092 1010 1243 1096 c 1
 1210 1143 l 1
 1071 1137 793 956 674 895 c 1
 549 963 500 1049 500 1128 c 0
 500 1264 641 1386 819 1386 c 0
 956 1386 1036 1270 1036 1270 c 1
 1087 1270 1149 1360 1149 1430 c 0
 1149 1503 965 1518 911 1518 c 0
 557 1518 221 1264 221 967 c 0
 221 877 287 780 389 692 c 1
 373 647 53 500 53 262 c 0
 53 39 225 -57 416 -57 c 0
508 590 m 1
 633 528 756 420 756 297 c 0
 756 141 600 41 461 41 c 0
 338 41 272 119 272 215 c 0
 272 408 471 561 508 590 c 1
EndSplineSet
EndChar

StartChar: emdash
Encoding: 245 8212 136
Width: 1196
VWidth: 0
Flags: W
LayerCount: 2
Fore
SplineSet
121 725 m 1
 100 719 72 702 72 639 c 0
 72 596 119 598 129 598 c 0
 629 616 743 616 823 616 c 0
 891 616 961 614 1042 614 c 0
 1096 614 1143 674 1143 711 c 0
 1143 743 1006 752 852 752 c 0
 707 752 199 733 121 725 c 1
EndSplineSet
EndChar

StartChar: endash
Encoding: 244 8211 137
Width: 930
VWidth: 0
Flags: W
LayerCount: 2
Fore
SplineSet
121 725 m 1
 100 719 72 702 72 639 c 0
 72 596 119 598 129 598 c 0
 500 616 578 616 639 616 c 0
 682 616 727 614 776 614 c 0
 829 614 877 674 877 711 c 0
 877 743 780 752 668 752 c 0
 559 752 180 733 121 725 c 1
EndSplineSet
EndChar

StartChar: equal
Encoding: 31 61 138
Width: 1120
VWidth: 0
Flags: W
LayerCount: 2
Fore
SplineSet
258 725 m 1
 238 719 209 702 209 639 c 0
 209 596 256 598 266 598 c 0
 594 616 659 616 715 616 c 0
 758 616 803 614 852 614 c 0
 905 614 952 674 952 711 c 0
 952 743 856 752 743 752 c 0
 532 752 297 733 258 725 c 1
217 500 m 1
 197 494 168 477 168 414 c 0
 168 371 215 373 225 373 c 0
 553 391 618 391 674 391 c 0
 717 391 762 389 811 389 c 0
 864 389 911 449 911 485 c 0
 911 518 815 526 702 526 c 0
 492 526 256 508 217 500 c 1
EndSplineSet
EndChar

StartChar: eth
Encoding: 175 240 139
Width: 1036
VWidth: 0
Flags: W
LayerCount: 2
Fore
SplineSet
314 1117 m 1
 302 1107 290 1093 290 1069 c 0
 290 1048 304 994 339 994 c 0
 355 994 370 1002 376 1004 c 2
 521 1074 l 1
 662 847 775 603 775 398 c 0
 775 222 750 105 591 105 c 0
 467 105 319 281 319 483 c 0
 319 628 398 710 494 710 c 0
 538 710 586 700 633 679 c 1
 639 692 642 703 642 714 c 0
 642 791 492 823 414 823 c 0
 232 823 83 694 83 467 c 0
 83 226 305 -14 581 -14 c 0
 837 -14 976 154 976 410 c 0
 976 621 872 929 732 1168 c 1
 745 1174 l 1
 787 1192 835 1213 880 1231 c 0
 920 1247 941 1294 941 1330 c 0
 941 1353 936 1372 906 1372 c 0
 867 1372 795 1345 716 1310 c 1
 657 1286 l 1
 554 1431 439 1531 335 1531 c 2
 195 1531 l 1
 272 1433 362 1316 448 1189 c 1
 379 1154 327 1126 314 1117 c 1
EndSplineSet
EndChar

StartChar: exclam
Encoding: 3 33 140
Width: 608
VWidth: 0
Flags: W
LayerCount: 2
Fore
SplineSet
371 379 m 1
 375 395 741 1384 741 1464 c 0
 741 1497 731 1518 709 1518 c 2
 526 1518 l 2
 477 1518 459 1370 449 1296 c 1
 297 434 l 2
 295 422 295 410 295 397 c 0
 295 381 297 369 317 369 c 0
 319 369 356 373 371 379 c 1
EndSplineSet
Refer: 211 46 N 1 0 0 1 66 0 2
EndChar

StartChar: exclamdown
Encoding: 97 161 141
Width: 608
VWidth: 0
Flags: W
LayerCount: 2
Fore
SplineSet
494 1139 m 1
 489 1122 123 133 123 53 c 0
 123 20 133 0 156 0 c 2
 338 0 l 2
 387 0 406 147 416 221 c 1
 567 1083 l 2
 569 1096 569 1108 569 1120 c 0
 569 1137 567 1149 547 1149 c 0
 545 1149 508 1145 494 1139 c 1
641 1546 m 0
 549 1546 471 1458 471 1389 c 0
 471 1348 502 1311 582 1311 c 0
 662 1311 721 1401 721 1468 c 0
 721 1509 698 1546 641 1546 c 0
EndSplineSet
EndChar

StartChar: f
Encoding: 72 102 142
Width: 453
VWidth: 0
Flags: W
HStem: 131 107<253.876 406.59> 328 112<463 575> 1358 108<487.528 695>
VStem: -74 168<-345 -149.054> 616 127<1106.17 1354.14>
LayerCount: 2
Fore
SplineSet
616 1255 m 0
 616 1059 395 774 274 586 c 1
 311 770 420 1358 547 1358 c 0
 606 1358 616 1305 616 1255 c 0
575 440 m 1
 524 377 369 238 328 238 c 0
 272 238 225 305 225 371 c 0
 225 479 743 899 743 1325 c 0
 743 1384 741 1466 649 1466 c 0
 485 1466 297 1315 262 1190 c 0
 150 783.617 -16 85.5242 -74 -345 c 5
 94 -345 l 5
 115 -273.809 193 163.507 199 193 c 1
 217 145 264 131 303 131 c 0
 377 131 502 250 575 328 c 1
 575 440 l 1
EndSplineSet
Substitution2: "fina-1" f.fina
EndChar

StartChar: ff
Encoding: 259 64256 143
Width: 983
VWidth: 0
Flags: W
HStem: 456 145<1077 1154.5> 462 123.465<391.002 620.738> 463.986 88.9696<-63.7009 90.9863> 1358 108<494.494 695 1024.49 1225>
VStem: -74 198<-336 -138> 456 198<-336 -138> 616 127<1091.13 1354.14> 1146 127<1084.84 1351.14>
DStem2: -74 -336 124 -336 0.215033 0.976607<42.5765 653.264 754.677 816.247 981.714 1494.36> 456 -336 654 -336 0.215437 0.976518<42.6565 813.594 997.409 1513.49>
LayerCount: 2
Fore
SplineSet
616 1255 m 0x1b
 616 1059 414.386 774 304 586 c 1
 336.934 770 433.956 1358 547 1358 c 0
 606 1358 616 1305 616 1255 c 0x1b
111.626 552.955 m 1x3b
 39.485 547.702 -64 555.819 -64 505 c 0
 -64 465.66 -24.6596 463.986 -10.3054 463.986 c 0x3b
 -8.97012 463.986 -7.85106 464 -7 464 c 0
 28.4511 463.806 61.0177 463.63 90.9863 463.472 c 1
 -74 -336 l 1
 124 -336 l 1
 145 -266 223.133 163.973 229 193 c 2
 283.425 462.265 l 1
 358.887 462 392.563 462 428 462 c 0x5b
 491.326 462 555.493 461.512 620.738 460.814 c 1
 456 -336 l 1
 654 -336 l 1
 675 -266 753.332 163.933 759 193 c 2
 810.658 457.906 l 1
 902.819 456.848 997.412 456 1095 456 c 0
 1132.96 456 1166 506.103 1166 537 c 0
 1166 586.951 1124.69 601 1077 601 c 0x9d
 1042.43 601 994.329 599.947 937.392 598.106 c 1
 1078.75 784.687 1273 1052.13 1273 1322 c 0
 1273 1381 1271 1463 1179 1463 c 0
 1015 1463 827 1312 792 1187 c 1
 749.509 1022.21 698.645 809.067 649.674 585.465 c 1x5d
 562.197 581.321 472.167 576.658 387.006 571.878 c 1
 529.228 759.682 743 1041.01 743 1325 c 0
 743 1384 741 1466 649 1466 c 0
 485 1466 297 1315 262 1190 c 1
 217.171 1016.47 163.059 789.433 111.626 552.955 c 1x3b
1146 1252 m 0
 1146 1061.57 944.386 784.661 834 602 c 1
 866.934 781.471 963.956 1355 1077 1355 c 0
 1136 1355 1146 1302 1146 1252 c 0
EndSplineSet
Substitution2: "fina-1" ff.fina
LCarets2: 1 0 
Ligature2: "Standard Ligatures-1" f f
EndChar

StartChar: ffi
Encoding: 262 64259 144
Width: 1361
VWidth: 0
Flags: W
LayerCount: 2
Fore
SplineSet
1113 702 m 1
 1064 592 849 291 738 291 c 0
 699 291 673 330 673 432 c 1
 673 432 1176 899 1176 1325 c 0
 1176 1384 1174 1466 1082 1466 c 0
 955 1466 814 1376 740 1277 c 1
 742 1293 743 1309 743 1325 c 0
 743 1384 741 1466 649 1466 c 0
 485 1466 297 1315 262 1190 c 0
 150 786 -16 92 -74 -336 c 1
 94 -336 l 1
 115 -266 193 164 199 193 c 1
 217 145 264 131 303 131 c 0
 345 131 402 169 458 216 c 1
 416 14 380 -179 359 -336 c 1
 527 -336 l 1
 548 -266 626 164 632 193 c 1
 648 160 675 139 709 139 c 0
 779 139 882 213 1033 420 c 1
 1002 291 974 156 974 102 c 0
 974 41 998 -29 1062 -29 c 1
 1172 -23 1391 141 1482 225 c 1
 1459 281 l 1
 1406 236 1240 117 1211 117 c 0
 1181 117 1176 164 1176 182 c 0
 1176 283 1301 694 1334 807 c 1
 1224 807 1154 809 1113 702 c 1
487 350 m 1
 425 293 354 238 328 238 c 0
 272 238 225 305 225 371 c 0
 225 446 479 676 631 953 c 1
 584 769 533 559 487 350 c 1
1049 1255 m 0
 1049 1059 828 774 707 586 c 1
 744 770 853 1358 980 1358 c 0
 1039 1358 1049 1305 1049 1255 c 0
616 1255 m 0
 616 1059 395 774 274 586 c 1
 311 770 420 1358 547 1358 c 0
 606 1358 616 1305 616 1255 c 0
1314 1073 m 0
 1398 1073 1469 1153 1469 1217 c 0
 1469 1255 1441 1288 1369 1288 c 0
 1295 1288 1242 1206 1242 1145 c 0
 1242 1106 1262 1073 1314 1073 c 0
EndSplineSet
EndChar

StartChar: ffl
Encoding: 263 64260 145
Width: 1548
VWidth: 0
Flags: W
HStem: 456 145<914.856 1105.52> 464 78<-63.8649 77.7717> 1279.14 112.862<1600.86 1694.12> 1358 108<494.494 695 1024.49 1225>
VStem: -74 198<-336 -141.203> 456 198<-336 -141.586> 616 127<1091.25 1354.14> 1069 177<128.644 454.173> 1146 127<1085.68 1351.14> 1700 114.075<1013.3 1278.15>
LayerCount: 2
Fore
SplineSet
1146 1252 m 0x08c0
 1146 1061.57 944.386 784.661 834 602 c 1
 866.934 781.471 963.956 1355 1077 1355 c 0
 1136 1355 1146 1302 1146 1252 c 0x08c0
793 372 m 1
 793 479.547 1273 897.786 1273 1322 c 0
 1273 1381 1271 1463 1179 1463 c 0
 1015 1463 827 1312 792 1187 c 0
 680 783.794 514 91.1589 456 -336 c 1
 654 -336 l 1x0cc0
 675 -266 753 164 759 193 c 1
 793 372 l 1
-15 542 m 1x4840
 -36 539.419 -64 532.105 -64 505 c 0
 -64 462 -17 464 -7 464 c 0x4840
 316.754 462 369.525 462 428 462 c 0
 637.35 462 856.437 456 1095 456 c 0
 1132.96 456 1166 506.103 1166 537 c 0
 1166 586.951 1161.82 601 1157 601 c 0x8840
 923.972 601 118.649 559.482 -15 542 c 1x4840
616 1255 m 0x1a40
 616 1059 414.386 774 304 586 c 1
 336.934 770 433.956 1358 547 1358 c 0
 606 1358 616 1305 616 1255 c 0x1a40
263 372 m 1
 263 479.887 743 899.447 743 1325 c 0
 743 1384 741 1466 649 1466 c 0
 485 1466 297 1315 262 1190 c 0
 150 786 -16 92 -74 -336 c 1
 124 -336 l 1
 145 -266 223 164 229 193 c 1
 263 372 l 1
1700 1191 m 0
 1700 1095.33 1591.59 736.253 1318 608 c 1
 1441.17 1024.97 1539.7 1228 1657 1277 c 0
 1660.5 1278.46 1663.72 1279.14 1666.69 1279.14 c 0x2840
 1694.28 1279.14 1700 1220.79 1700 1191 c 0
1814.08 1187.81 m 0
 1814.08 1302.56 1779.6 1392 1673 1392 c 0
 1378 1392 1069 610.496 1069 217 c 0
 1069 114.847 1069 -29 1179 -29 c 1
 1312 -20 1450 88 1673 328 c 1
 1673 440 l 1
 1567.55 341.158 1323.41 127 1281 127 c 0
 1246 127 1246 182 1246 198 c 0x2940
 1246 286 1285 462 1285 462 c 1
 1285 462 1814.08 704.497 1814.08 1187.81 c 0
EndSplineSet
LCarets2: 2 0 0 
Ligature2: "Standard Ligatures-1" f f l
EndChar

StartChar: fi
Encoding: 260 64257 146
Width: 971
VWidth: 0
Flags: W
LayerCount: 2
Fore
SplineSet
680 702 m 1
 631 592 416 291 305 291 c 0
 266 291 240 330 240 432 c 1
 240 432 743 899 743 1325 c 0
 743 1384 741 1466 649 1466 c 0
 485 1466 297 1315 262 1190 c 0
 150 786 -16 92 -74 -336 c 1
 94 -336 l 1
 115 -266 193 164 199 193 c 1
 215 160 242 139 276 139 c 0
 346 139 449 213 600 420 c 1
 569 291 541 156 541 102 c 0
 541 41 565 -29 629 -29 c 1
 739 -23 958 141 1049 225 c 1
 1026 281 l 1
 973 236 807 117 778 117 c 0
 748 117 743 164 743 182 c 0
 743 283 868 694 901 807 c 1
 791 807 721 809 680 702 c 1
616 1255 m 0
 616 1059 395 774 274 586 c 1
 311 770 420 1358 547 1358 c 0
 606 1358 616 1305 616 1255 c 0
881 1073 m 0
 965 1073 1036 1153 1036 1217 c 0
 1036 1255 1008 1288 936 1288 c 0
 862 1288 809 1206 809 1145 c 0
 809 1106 829 1073 881 1073 c 0
EndSplineSet
EndChar

StartChar: five
Encoding: 23 53 147
Width: 1327
VWidth: 0
Flags: W
LayerCount: 2
Fore
SplineSet
225 219 m 0
 225 25 485 -29 580 -29 c 0
 909 -29 1239 244 1239 586 c 0
 1239 797 1083 946 874 946 c 0
 778 946 678 909 600 866 c 1
 618 940 702 1174 745 1307 c 1
 799 1307 834 1272 879 1249 c 0
 965 1206 1057 1202 1149 1202 c 0
 1313 1202 1311 1217 1382 1348 c 0
 1399 1378 1417 1413 1421 1450 c 1
 1364 1468 l 1
 1245 1454 1153 1448 1067 1448 c 0
 948 1448 840 1458 686 1473 c 1
 680 1473 l 2
 670 1473 662 1466 653 1458 c 1
 633 1436 455 748 434 659 c 1
 442 643 459 635 475 633 c 1
 535 702 612 764 707 764 c 0
 874 764 1006 631 1006 504 c 0
 1006 340 920 74 618 74 c 0
 436 74 401 248 401 354 c 1
 287 354 225 264 225 219 c 0
EndSplineSet
EndChar

StartChar: four
Encoding: 22 52 149
Width: 1264
VWidth: 0
Flags: W
LayerCount: 2
Fore
SplineSet
403 494 m 1
 567 844 721 1169 866 1499 c 1
 856 1516 838 1518 819 1518 c 0
 623 1518 594 1452 508 1208 c 1
 215 528 l 1
 104 489 l 2
 59 473 20 461 20 397 c 0
 20 309 115 297 129 297 c 0
 164 297 219 315 266 340 c 1
 377 319 471 303 549 291 c 1
 514 201 481 109 449 20 c 1
 455 0 l 1
 608 0 l 2
 639 0 666 96 666 96 c 1
 737 272 l 1
 760 270 780 270 801 270 c 0
 1020 270 1036 358 1245 508 c 1
 1196 594 l 1
 1126 535 1022 475 1008 471 c 1
 948 438 874 428 799 428 c 1
 870 604 942 795 952 838 c 1
 860 838 l 2
 809 838 766 827 756 811 c 1
 705 688 655 565 608 444 c 1
 524 459 451 479 403 494 c 1
EndSplineSet
EndChar

StartChar: foursuperior
Encoding: 256 8308 150
Width: 889
VWidth: 0
Flags: W
LayerCount: 2
Fore
SplineSet
285 346 m 1
 399 590 506 819 608 1049 c 1
 602 1061 588 1063 575 1063 c 0
 438 1063 418 1016 358 846 c 1
 152 371 l 1
 76 342 l 1
 43 332 16 322 16 279 c 0
 16 217 82 207 92 207 c 0
 117 207 156 221 188 238 c 1
 266 223 332 213 387 203 c 1
 362 141 338 76 315 14 c 1
 319 0 l 1
 428 0 l 2
 449 0 467 68 467 68 c 1
 518 190 l 1
 535 188 549 188 563 188 c 0
 717 188 727 250 874 356 c 1
 840 416 l 1
 791 375 717 332 707 330 c 1
 666 307 614 299 561 299 c 1
 610 422 662 557 668 586 c 1
 604 586 l 2
 567 586 539 580 530 567 c 1
 496 481 461 395 428 311 c 1
 369 322 317 336 285 346 c 1
EndSplineSet
EndChar

StartChar: fraction
Encoding: 255 8260 151
Width: 821
VWidth: 0
Flags: W
LayerCount: 2
Fore
SplineSet
885 1374 m 0
 872 1331 276 217 182 -33 c 0
 160 -90 113 -135 113 -193 c 0
 113 -211 117 -223 135 -223 c 0
 276 -223 297 -104 330 -43 c 1
 1108 1513 l 1
 1110 1520 1114 1542 1114 1546 c 0
 1114 1563 1104 1579 1094 1579 c 0
 971 1579 936 1540 885 1374 c 0
EndSplineSet
EndChar

StartChar: g
Encoding: 73 103 152
Width: 928
VWidth: 0
Flags: W
LayerCount: 2
Fore
SplineSet
293 -547 m 0
 459 -547 674 -330 737 23 c 1
 1051 328 l 1
 1051 440 l 1
 952 332 883 272 758 154 c 1
 911 801 l 1
 825 817 694 840 612 840 c 0
 283 840 51 471 51 172 c 0
 51 78 98 -29 186 -29 c 0
 291 -29 387 2 569 164 c 1
 537 -6 l 1
 260 -219 l 2
 180 -281 104 -330 104 -403 c 0
 104 -502 209 -547 293 -547 c 0
524 -117 m 1
 500 -328 436 -492 324 -492 c 0
 274 -492 250 -477 250 -424 c 0
 250 -328 313 -295 360 -256 c 2
 524 -117 l 1
584 279 m 1
 498 182 422 131 367 131 c 0
 307 131 270 193 270 324 c 0
 270 524 416 784 602 784 c 0
 627 784 651 778 700 766 c 1
 584 279 l 1
EndSplineSet
Substitution2: "fina-1" g.fina
EndChar

StartChar: germandbls
Encoding: 158 223 153
Width: 983
VWidth: 0
Flags: W
LayerCount: 2
Fore
SplineSet
283 43 m 1
 365 -27 473 -59 582 -59 c 0
 817 -59 942 125 942 328 c 0
 942 520 831 731 602 819 c 1
 887 852 1018 1047 1018 1219 c 0
 1018 1376 920 1518 743 1518 c 0
 522 1518 299 1325 127 625 c 0
 106 543 -47 31 -47 -154 c 0
 -47 -166 -47 -176 -45 -184 c 1
 162 -184 l 1
 227 68 393 877 395 889 c 0
 459 1257 606 1395 719 1395 c 0
 801 1395 842 1319 842 1225 c 0
 842 1073 721 872 471 872 c 1
 471 756 l 1
 631 686 721 494 721 332 c 0
 721 199 659 88 526 88 c 0
 459 88 389 111 332 156 c 1
 283 43 l 1
EndSplineSet
EndChar

StartChar: grave
Encoding: 66 96 154
Width: 1706
VWidth: 0
Flags: W
LayerCount: 2
Fore
SplineSet
1053 805 m 0
788 1083 m 2,1,2
 944 1022 1114 965 1186 940 c 1,3,-1
 1208 995 l 1,4,5
 1118 1079 899 1243 788 1249 c 1,6,7
 741 1249 682 1186 682 1147 c 0,8,9
 682 1135 686 1122 700 1118 c 1,10,-1
 788 1083 l 2,1,2
EndSplineSet
EndChar

StartChar: greater
Encoding: 32 62 155
Width: 1544
VWidth: 0
Flags: W
LayerCount: 2
Fore
SplineSet
1145 397 m 1
 856 68 655 -49 655 -125 c 0
 655 -156 692 -168 733 -168 c 0
 760 -168 788 -162 805 -152 c 0
 1075 12 1266 266 1468 504 c 1
 1522 565 1544 604 1544 635 c 0
 1544 686 1395 868 1305 1038 c 1
 1126 1325 1098 1374 999 1374 c 0
 952 1374 895 1356 895 1311 c 0
 895 1251 1053 1204 1153 1018 c 0
 1214 903 1296 774 1380 649 c 1
 1145 397 l 1
EndSplineSet
EndChar

StartChar: guillemotleft
Encoding: 107 171 156
Width: 1122
VWidth: 0
Flags: W
LayerCount: 2
Fore
SplineSet
367 438 m 1
 227 649 l 1
 381 829 l 1
 506 999 635 1067 635 1112 c 0
 635 1155 604 1165 580 1165 c 0
 469 1165 399 1032 338 965 c 2
 182 791 l 1
 102 700 55 664 55 616 c 0
 55 549 231 317 387 123 c 0
 420 82 463 35 506 35 c 0
 561 35 586 68 586 96 c 0
 586 143 537 217 459 313 c 1
 367 438 l 1
621 649 m 1
 774 829 l 1
 899 999 1028 1067 1028 1112 c 0
 1028 1155 997 1165 973 1165 c 0
 862 1165 793 1032 731 965 c 1
 575 791 l 1
 496 700 449 664 449 616 c 0
 449 553 614 342 760 164 c 0
 793 123 836 76 879 76 c 0
 934 76 958 109 958 137 c 0
 958 184 909 258 831 354 c 1
 621 649 l 1
EndSplineSet
EndChar

StartChar: guillemotright
Encoding: 122 187 157
Width: 1544
VWidth: 0
Flags: W
LayerCount: 2
Fore
SplineSet
1018 834 m 1
 1139 623 l 1
 971 442 l 1
 831 272 696 205 692 160 c 1
 690 117 719 106 743 106 c 0
 854 106 936 240 1001 307 c 1
 1174 481 l 2
 1245 551 1288 580 1290 614 c 0
 1296 682 1139 913 999 1108 c 1
 971 1149 932 1196 889 1196 c 0
 848 1196 827 1186 827 1176 c 0
 823 1128 866 1055 936 958 c 1
 1018 834 l 1
735 653 m 1
 565 473 l 1
 426 303 291 236 289 190 c 1
 285 147 313 137 338 137 c 0
 449 137 530 270 598 338 c 1
 768 512 l 1
 842 582 883 610 885 645 c 1
 891 709 743 920 612 1098 c 0
 582 1139 543 1186 500 1186 c 0
 459 1186 440 1176 440 1165 c 0
 436 1118 479 1044 549 948 c 1
 735 653 l 1
EndSplineSet
EndChar

StartChar: guilsinglleft
Encoding: 253 8249 158
Width: 696
VWidth: 0
Flags: W
LayerCount: 2
Fore
SplineSet
332 438 m 1
 193 649 l 1
 346 829 l 1
 471 999 600 1067 600 1112 c 0
 600 1155 569 1165 545 1165 c 0
 434 1165 365 1032 303 965 c 1
 147 791 l 1
 68 700 20 664 20 616 c 0
 20 549 197 317 352 123 c 0
 385 82 428 35 471 35 c 0
 526 35 551 68 551 96 c 0
 551 143 502 217 424 313 c 1
 332 438 l 1
EndSplineSet
EndChar

StartChar: guilsinglright
Encoding: 254 8250 159
Width: 727
VWidth: 0
Flags: W
LayerCount: 2
Fore
SplineSet
242 313 m 1
 150 217 88 143 80 96 c 0
 76 68 94 35 150 35 c 0
 193 35 244 82 283 123 c 0
 471 317 684 549 696 616 c 0
 705 664 664 700 598 791 c 2
 471 965 l 1
 420 1032 373 1165 262 1165 c 0
 238 1165 205 1155 199 1112 c 1
 190 1067 309 999 406 829 c 1
 528 649 l 1
 354 438 l 1
 242 313 l 1
EndSplineSet
EndChar

StartChar: h
Encoding: 74 104 160
Width: 881
VWidth: 0
Flags: W
LayerCount: 2
Fore
SplineSet
596 1458 m 1
 586 1462 567 1462 551 1462 c 0
 410 1462 387 1456 319 1204 c 1
 319 1204 27 131 10 0 c 1
 166 0 l 1
 213 39 236 121 270 252 c 0
 319 436 469 655 592 655 c 0
 629 655 649 635 649 598 c 0
 649 432 545 160 537 88 c 0
 535 76 532 59 532 47 c 0
 532 8 545 -29 596 -29 c 0
 690 -29 913 223 1008 332 c 1
 1008 444 l 1
 909 358 770 203 750 203 c 0
 731 203 731 233 731 233 c 1
 731 369 860 629 860 723 c 0
 860 799 829 840 762 840 c 0
 604 840 428 684 334 510 c 1
 596 1458 l 1
EndSplineSet
EndChar

StartChar: hbar
Encoding: 194 295 161
Width: 881
VWidth: 0
Flags: W
LayerCount: 2
Fore
SplineSet
170 1090 m 1
 148 1083 121 1067 121 1004 c 0
 121 961 168 963 178 963 c 0
 207 965 231 967 255 968 c 1
 168 645 22 92 10 0 c 1
 166 0 l 1
 213 39 236 121 270 252 c 0
 319 436 469 655 592 655 c 0
 629 655 649 635 649 598 c 0
 649 432 545 160 537 88 c 0
 535 76 532 59 532 47 c 0
 532 8 545 -29 596 -29 c 0
 690 -29 913 223 1008 332 c 1
 1008 444 l 1
 909 358 770 203 750 203 c 0
 731 203 731 233 731 233 c 1
 731 369 860 629 860 723 c 0
 860 799 829 840 762 840 c 0
 604 840 428 684 334 510 c 1
 464 980 l 1
 491 981 507 981 524 981 c 0
 567 981 615 979 662 979 c 0
 715 979 762 1038 762 1075 c 0
 762 1108 666 1116 553 1116 c 0
 536 1116 518 1116 501 1115 c 1
 596 1458 l 1
 586 1462 567 1462 551 1462 c 0
 410 1462 387 1456 319 1204 c 2
 319 1204 308 1166 292 1105 c 1
 229 1100 183 1093 170 1090 c 1
EndSplineSet
EndChar

StartChar: hungarumlaut
Encoding: 239 733 162
Width: 1706
VWidth: 0
Flags: W
LayerCount: 2
Fore
SplineSet
1053 805 m 0
1075 1233 m 0,1,2
 1114 1280 1141 1319 1141 1343 c 0,3,4
 1141 1374 1110 1389 1034 1389 c 0,5,6
 946 1389 831 1104 797 973 c 1,7,-1
 842 934 l 1,8,9
 883 985 979 1118 1075 1233 c 0,1,2
1477 1288 m 1,10,11
 1485 1292 1487 1300 1487 1309 c 0,12,13
 1487 1343 1421 1382 1372 1382 c 0,14,15
 1276 1382 1102 1102 1049 987 c 1,16,-1
 1092 944 l 1,17,18
 1151 991 1284 1112 1407 1225 c 1,19,-1
 1477 1288 l 1,10,11
EndSplineSet
EndChar

StartChar: hyphen
Encoding: 15 45 163
Width: 862
VWidth: 0
Flags: W
LayerCount: 2
Fore
SplineSet
205 725 m 1
 184 719 156 702 156 639 c 0
 156 596 203 598 213 598 c 0
 440 616 477 616 518 616 c 0
 561 616 606 614 655 614 c 0
 709 614 756 674 756 711 c 0
 756 743 659 752 547 752 c 0
 479 752 244 733 205 725 c 1
EndSplineSet
EndChar

StartChar: i
Encoding: 75 105 164
Width: 469
VWidth: 0
Flags: W
HStem: -29 162<85 282.5> 326 112<478 590> 1043 245<358.387 498.4>
VStem: 29 202<44.7206 352.668> 312 247<1104.2 1241.99>
LayerCount: 2
Fore
SplineSet
117 -29 m 1
 240 -23 365 104 590 326 c 1
 590 438 l 1
 528 369 299 133 266 133 c 0
 236 133 231 180 231 199 c 0
 231 299 356 694 389 807 c 1
 377.263 807.003 l 0
 273.993 807.003 207.523 805.144 168 702 c 0
 139 627 29 209 29 102 c 0
 29 41 53 -29 117 -29 c 1
403 1043 m 0
 487 1043 559 1139.67 559 1217 c 0
 559 1255 530 1288 459 1288 c 0
 373.346 1288 312 1206 312 1145 c 0
 312 1089.75 337.634 1043 403 1043 c 0
EndSplineSet
EndChar

StartChar: ij
Encoding: 201 307 169
Width: 911
VWidth: 0
Flags: W
LayerCount: 2
Fore
SplineSet
117 -29 m 1
 225 -23 412 -16 597 531 c 1
 588 487 494 166 489 137 c 1
 451 2 l 1
 459 2 26 -330 26 -638 c 0
 26 -713 48 -791 123 -791 c 0
 287 -791 475 -639 510 -514 c 0
 565 -317 573 -272 627 -16 c 1
 756 45 889 178 1036 328 c 1
 1036 440 l 1
 866 268 686 115 664 106 c 1
 664 207 811 694 844 807 c 1
 733 807 664 809 623 702 c 0
 579 590 370 133 266 133 c 0
 236 133 231 180 231 199 c 0
 231 299 356 694 389 807 c 1
 279 807 209 809 168 702 c 0
 139 627 29 209 29 102 c 0
 29 41 53 -29 117 -29 c 1
156 -580 m 0
 182 -469 205 -403 446 -117 c 1
 410 -301 352 -682 225 -682 c 0
 177 -682 152 -645 152 -606 c 0
 152 -597 154 -589 156 -580 c 0
858 1073 m 0
 942 1073 1014 1153 1014 1217 c 0
 1014 1255 985 1288 913 1288 c 0
 840 1288 786 1206 786 1145 c 0
 786 1106 807 1073 858 1073 c 0
403 1073 m 0
 487 1073 559 1153 559 1217 c 0
 559 1255 530 1288 459 1288 c 0
 385 1288 332 1206 332 1145 c 0
 332 1106 352 1073 403 1073 c 0
EndSplineSet
EndChar

StartChar: j
Encoding: 76 106 172
Width: 442
VWidth: 0
Flags: W
LayerCount: 2
Fore
SplineSet
-18 2 m 1
 -18 2 -389 -295 -440 -588 c 1
 -451 -672 -438 -791 -346 -791 c 0
 -182 -791 6 -639 41 -514 c 0
 96 -317 104 -272 158 -16 c 1
 287 45 420 178 567 328 c 1
 567 440 l 1
 397 268 217 115 195 106 c 1
 195 207 342 694 375 807 c 1
 264 807 195 809 154 702 c 0
 127 633 47 279 20 137 c 1
 -18 2 l 1
-313 -580 m 1
 -287 -469 -264 -403 -23 -117 c 1
 -59 -301 -117 -682 -244 -682 c 0
 -303 -682 -326 -627 -313 -580 c 1
389 1073 m 0
 473 1073 545 1153 545 1217 c 0
 545 1255 516 1288 444 1288 c 0
 371 1288 317 1206 317 1145 c 0
 317 1106 338 1073 389 1073 c 0
EndSplineSet
EndChar

StartChar: k
Encoding: 77 107 174
Width: 905
VWidth: 0
Flags: W
HStem: -29 150<552 704.5> 387 70<295 487.603> 741 99<502.756 736>
VStem: 496 188<113 188 262 370.112> 651 178<561.11 734.189>
LayerCount: 2
Fore
SplineSet
1028 440 m 1xf0
 934 342 733 145 719 131 c 0
 713 125 707 121 702 121 c 0
 688 121 684 156 684 188 c 0xf0
 684 211 686 236 686 262 c 0
 686 342 668 424 522 424 c 1
 702 489 829 526 829 698 c 0xe8
 829 776 776 840 696 840 c 0
 575 840 451 795 348 674 c 1
 346 674 516 1243 575 1458 c 1
 565 1462 547 1462 530 1462 c 0
 389 1462 367 1456 299 1204 c 1
 299 1204 6 131 -10 0 c 1
 145 0 l 1
 223 66 279 342 283 360 c 2
 289 387 l 1
 477 387 510 356 510 303 c 0
 510 256 496 180 496 113 c 0
 496 37 514 -29 590 -29 c 0
 672 -29 733 37 1028 328 c 1
 1028 440 l 1xf0
295 457 m 1
 307 575 502 741 573 741 c 0
 625 741 651 709 651 647 c 0xe8
 651 512 467 457 362 457 c 2
 295 457 l 1
EndSplineSet
EndChar

StartChar: kgreenlandic
Encoding: 205 312 176
Width: 905
VWidth: 0
Flags: W
LayerCount: 2
Fore
SplineSet
704 805 m 1
 509 528 539 450 392 450 c 0
 366 450 334 453 295 457 c 1
 350 678 369 735 387 803 c 1
 372 809 338 808 315 808 c 0
 251 808 194 800 168 687 c 1
 168 687 8 131 -10 0 c 1
 145 0 l 1
 223 66 279 342 283 360 c 2
 289 387 l 1
 447 387 l 1
 500 375 510 342 510 303 c 0
 510 256 496 180 496 113 c 0
 496 37 514 -29 590 -29 c 0
 672 -29 733 37 1028 328 c 1
 1028 440 l 1
 934 342 733 145 719 131 c 0
 713 125 707 121 702 121 c 0
 688 121 684 156 684 188 c 0
 684 211 686 236 686 262 c 0
 686 334 674 407 592 421 c 1
 702 432 790 667 879 806 c 1
 704 805 l 1
EndSplineSet
EndChar

StartChar: l
Encoding: 78 108 177
Width: 603
VWidth: 0
Flags: W
HStem: -29 146<125 342.339> 370 112<586 698> 1417 115<597.646 707.733>
VStem: 80 207<117.91 431.381> 711 113<1154.21 1415.08>
LayerCount: 2
Fore
SplineSet
711 1331 m 4
 711 1214 575.87 836 334 618 c 5
 455.349 1116 552.429 1417 668 1417 c 4
 707 1417 711 1364 711 1331 c 4
170 -29 m 4
 312.479 -29 459.652 101.765 698 370 c 5
 698 482 l 5
 596.854 366.737 362.678 117 322 117 c 4
 287 117 287 172 287 188 c 4
 287 266 308 422 308 422 c 5
 308 422 824 862 824 1372 c 4
 824 1464 772 1532 684 1532 c 4
 389 1532 80 729 80 207 c 4
 80 109 80 -29 170 -29 c 4
EndSplineSet
EndChar

StartChar: less
Encoding: 30 60 179
Width: 1544
VWidth: 0
Flags: W
LayerCount: 2
Fore
SplineSet
1067 397 m 1
 893 649 l 1
 1008 774 1120 901 1210 1018 c 1
 1362 1212 1540 1255 1540 1319 c 0
 1540 1358 1495 1374 1450 1374 c 0
 1423 1374 1397 1366 1382 1358 c 0
 1282 1298 1257 1253 848 791 c 0
 768 700 723 666 723 618 c 0
 723 588 737 555 770 504 c 1
 915 266 1044 12 1274 -152 c 0
 1288 -162 1315 -168 1341 -168 c 0
 1386 -168 1432 -152 1432 -113 c 0
 1432 -37 1266 84 1067 397 c 1
EndSplineSet
EndChar

StartChar: lslash
Encoding: 209 322 180
Width: 553
VWidth: 0
Flags: W
LayerCount: 2
Fore
SplineSet
180 -29 m 1
 313 -20 451 88 674 328 c 1
 674 440 l 1
 582 338 369 117 332 117 c 0
 297 117 297 172 297 188 c 0
 297 266 356 422 367 465 c 1
 367 465 530 508 567 514 c 0
 602 520 639 537 680 547 c 1
 725 561 750 625 741 655 c 1
 719 692 618 653 463 614 c 1
 639 731 834 1071 834 1372 c 0
 834 1464 782 1532 694 1532 c 0
 453 1532 203 995 119 514 c 1
 55 494 6 479 -8 473 c 1
 -25 461 -45 440 -27 387 c 0
 -16 352 23 367 31 369 c 2
 100 387 l 1
 94 324 90 264 90 207 c 0
 90 109 90 -29 180 -29 c 1
721 1331 m 0
 721 1227 610 879 410 680 c 1
 506 1141 584 1417 678 1417 c 0
 717 1417 721 1364 721 1331 c 0
EndSplineSet
EndChar

StartChar: m
Encoding: 79 109 181
Width: 1348
VWidth: 0
Flags: W
LayerCount: 2
Fore
SplineSet
1184 840 m 0
 1004 840 815 610 729 440 c 1
 754 522 782 616 782 705 c 0
 782 752 764 838 705 838 c 0
 502 838 342 598 252 440 c 1
 285 557 338 686 362 807 c 1
 236 807 182 803 156 758 c 1
 84 643 -16 150 -25 0 c 1
 166 0 l 1
 199 131 340 569 526 655 c 0
 532 657 541 659 547 659 c 0
 571 659 594 639 594 600 c 0
 594 594 594 586 592 578 c 0
 557 389 463 199 463 0 c 1
 655 0 l 1
 694 139 864 655 1036 655 c 0
 1075 655 1102 616 1102 582 c 0
 1102 418 963 242 963 57 c 0
 963 2 985 -31 1022 -31 c 0
 1094 -31 1331 186 1468 328 c 1
 1468 440 l 1
 1337 311 1243 209 1208 209 c 0
 1200 209 1196 217 1196 231 c 0
 1196 238 1198 248 1200 260 c 0
 1206 289 1296 506 1296 686 c 0
 1296 774 1272 840 1184 840 c 0
EndSplineSet
Substitution2: "fina-1" m.fina
EndChar

StartChar: macron
Encoding: 110 175 182
Width: 1038
VWidth: 0
Flags: W
LayerCount: 2
Fore
SplineSet
506 821 m 0
262 1090 m 0,1,2
 240 1083 213 1067 213 1004 c 0,3,4
 213 961 260 963 270 963 c 0,5,6
 526 981 571 981 616 981 c 0,7,8
 659 981 707 979 754 979 c 0,9,10
 807 979 854 1038 854 1075 c 0,11,12
 854 1108 758 1116 645 1116 c 0,13,14
 475 1116 291 1098 262 1090 c 0,1,2
EndSplineSet
EndChar

StartChar: mu
Encoding: 116 181 183
Width: 993
VWidth: 0
Flags: W
LayerCount: 2
Fore
SplineSet
557 821 m 0
627 0 m 0
545 195 m 1,2,3
 545 195 535 137 535 102 c 0,4,5
 535 35 553 -29 621 -29 c 0,6,7
 756 -29 948 174 1114 326 c 1,8,-1
 1114 438 l 1,9,10
 946 276 797 129 754 129 c 0,11,12
 731 129 729 137 729 156 c 0,13,14
 729 190 735 227 737 246 c 1,15,16
 760 348 887 807 887 807 c 1,17,-1
 819 807 l 2,18,19
 748 807 698 813 666 688 c 2,20,-1
 557 272 l 1,21,22
 541 240 401 145 317 145 c 0,23,24
 279 145 250 164 250 219 c 0,25,26
 250 309 414 797 414 807 c 1,27,-1
 379 807 l 2,28,29
 350 807 221 807 217 782 c 1,30,31
 156 604 102 432 66 307 c 1,32,33
 2 96 -86 -156 -96 -195 c 1,34,35
 -100 -205 -100 -215 -100 -225 c 0,36,37
 -100 -270 -66 -295 -25 -295 c 0,38,39
 25 -295 74 -262 82 -193 c 2,40,-1
 104 23 l 1,41,42
 137 -16 176 -29 217 -29 c 0,43,44
 344 -29 492 113 545 195 c 1,2,3
EndSplineSet
EndChar

StartChar: multiply
Encoding: 150 215 184
Width: 1120
VWidth: 0
Flags: W
LayerCount: 2
Fore
SplineSet
377 918 m 1
 358 926 326 936 283 889 c 1
 252 858 287 827 295 821 c 0
 373 752 428 705 471 664 c 1
 389 567 322 483 309 463 c 1
 299 444 303 424 350 381 c 1
 381 350 412 387 420 393 c 1
 571 573 l 1
 629 520 l 1
 659 489 698 457 733 422 c 0
 770 385 819 416 846 442 c 1
 868 465 823 518 743 596 c 1
 717 623 688 649 659 674 c 1
 715 733 l 1
 811 831 l 2
 846 868 836 944 809 971 c 1
 784 993 713 928 635 846 c 1
 561 764 l 1
 471 844 397 903 377 918 c 1
EndSplineSet
EndChar

StartChar: n
Encoding: 80 110 185
Width: 838
VWidth: 0
Flags: W
HStem: -29 234<484.046 692> 655 185<467 752.5>
VStem: -25 191<0 141.198> 588 229<536.336 773.01>
LayerCount: 2
Fore
SplineSet
958 436 m 5
 909 395 758 242 723 219 c 4
 707 209 696 205 688 205 c 4
 680 205 676 211 676 223 c 4
 676 283 817 621 817 723 c 4
 817 799 786 840 719 840 c 4
 537 840 332 594 252 444 c 5
 287 555 360 807 360 807 c 5
 293 807 l 6
 223 807 170 797 143 727 c 4
 86 582 -23 154 -25 0 c 5
 166 0 l 5
 201 152 385 655 549 655 c 4
 569 655 588 635 588 600 c 4
 588 500 438 260 438 47 c 4
 438 18 449 -29 518 -29 c 4
 598 -29 879 244 958 324 c 5
 958 436 l 5
EndSplineSet
Substitution2: "fina-1" n.fina
EndChar

StartChar: nine
Encoding: 27 57 187
Width: 1094
VWidth: 0
Flags: W
HStem: 539 112<354.039 505.413> 1403 113<530.189 770.183>
VStem: 43 236<726.342 1084.62> 825 211.416<896.31 1322.97>
LayerCount: 2
Back
SplineSet
1032 1014 m 4
 1034 1040 1036 1067 1036 1092 c 4
 1036 1348 897 1516 641 1516 c 4
 305 1516 43 1206 43 895 c 4
 43 668 217 539 424 539 c 4
 481 539 551 545 563 653 c 5
 539 651 516 651 496 651 c 4
 340 651 279 752 279 879 c 4
 279 1100 463 1403 662 1403 c 4
 799 1403 825 1274 825 1174 c 4
 825 795 522 287 315 -29 c 5
 455 -29 l 6
 705 -29 991 623 1032 1014 c 4
EndSplineSet
Fore
SplineSet
1036.42 1115.46 m 0
 1036.42 1367.29 889.381 1516 641 1516 c 0
 305 1516 43 1206 43 895 c 0
 43 668 217 539 424 539 c 0
 481 539 551 545 563 653 c 1
 539 651 516 651 496 651 c 0
 340 651 279 752 279 879 c 0
 279 1100 463 1403 662 1403 c 0
 799 1403 825 1274 825 1174 c 0
 825 803.506 545.059 297.213 135 -2 c 5
 205 -32 l 5
 557.49 -32 1036.42 612.569 1036.42 1115.46 c 0
EndSplineSet
EndChar

StartChar: numbersign
Encoding: 5 35 190
Width: 1069
VWidth: 0
Flags: W
LayerCount: 2
Fore
SplineSet
367 1374 m 1
 360 1358 330 1169 289 940 c 1
 121 932 82 950 82 844 c 0
 82 801 129 803 139 803 c 0
 186 805 223 807 264 807 c 1
 233 633 l 1
 86 623 l 1
 66 616 37 600 37 537 c 0
 37 494 84 496 94 496 c 0
 137 498 172 500 209 500 c 1
 172 301 135 127 115 49 c 0
 111 35 90 -31 90 -82 c 0
 90 -115 94 -141 127 -141 c 0
 184 -141 205 -18 223 39 c 1
 350 506 l 1
 567 512 l 1
 518 309 469 127 442 49 c 1
 442 35 418 -31 418 -82 c 0
 418 -115 422 -141 455 -141 c 0
 512 -141 532 -18 551 39 c 2
 707 514 l 1
 748 514 l 2
 791 514 836 512 885 512 c 0
 938 512 985 571 985 608 c 0
 985 641 889 649 776 649 c 2
 752 649 l 1
 809 821 l 1
 848 821 887 819 930 819 c 0
 983 819 1030 879 1030 915 c 0
 1030 944 952 954 854 956 c 1
 1038 1513 l 1
 1038 1518 1040 1522 1040 1526 c 0
 1040 1552 1020 1579 1004 1579 c 0
 831 1579 831 1552 776 1374 c 1
 770 1358 729 1178 676 954 c 1
 606 954 537 950 473 948 c 1
 629 1513 l 1
 629 1518 631 1522 631 1526 c 0
 631 1552 610 1579 594 1579 c 0
 422 1579 428 1550 367 1374 c 1
602 647 m 1
 387 647 l 1
 436 813 l 1
 526 817 594 819 643 819 c 1
 631 762 616 705 602 647 c 1
EndSplineSet
EndChar

StartChar: o
Encoding: 81 111 191
Width: 867
VWidth: 0
Flags: W
HStem: -29 160<312.233 499.204> 210 74<736.97 840.799> 352 110<871 981> 586 96<588.789 732.715> 806 56<494.79 683.389>
VStem: 31 209.391<207.608 538.23> 475 103<375.892 577.78> 741 95<355.078 578.778>
LayerCount: 2
Fore
SplineSet
240.391 367.057 m 0
 240.391 598.093 370.724 806 662 806 c 1
 684 821 684 829 684 849 c 1
 682 860 672 862 662 862 c 0
 285 862 31 658.797 31 317 c 0
 31 154 112.111 -29 331 -29 c 0
 473.274 -29 594.157 55 695 214 c 1
 720 211 744 210 765 210 c 0
 841 210 899 265 981 352 c 1
 981 462 l 1
 883 362 826 284 767 284 c 2
 736 284 l 1
 798 343 836 429 836 506 c 0
 836 602 788 682 668 682 c 0
 532 682 475 602 475 504 c 0
 475 415 526 313 624 253 c 1
 558.738 167.6 487.944 131 426 131 c 0
 328.64 131 240.391 210.265 240.391 367.057 c 0
681 320 m 1
 622 359 578 433 578 489 c 0
 578 543 602 586 659 586 c 0
 721 586 741 545 741 494 c 0
 741 436 707 349 681 320 c 1
EndSplineSet
Substitution2: "fina-1" o.fina
EndChar

StartChar: oe
Encoding: 213 339 195
Width: 1333
VWidth: 0
Flags: W
LayerCount: 2
Fore
SplineSet
1454 438 m 1
 1325 319 1126 82 1001 82 c 0
 870 82 834 193 834 313 c 0
 834 369 846 426 877 489 c 1
 926 412 1001 381 1057 381 c 0
 1208 381 1356 510 1356 664 c 0
 1356 797 1251 840 1120 840 c 0
 975 840 852 766 764 655 c 1
 723 784 623 840 508 840 c 0
 297 840 31 606 31 317 c 0
 31 154 104 -29 301 -29 c 0
 432 -29 555 35 647 125 c 1
 690 6 795 -29 932 -29 c 0
 1094 -29 1264 119 1454 328 c 1
 1454 438 l 1
465 133 m 0
 352 133 260 252 260 412 c 0
 260 606 401 752 520 752 c 0
 631 752 715 672 715 481 c 0
 715 352 664 133 465 133 c 0
905 565 m 1
 926 625 1004 750 1122 750 c 0
 1180 750 1217 729 1217 653 c 0
 1217 559 1151 467 1073 467 c 0
 1014 467 952 504 905 565 c 1
EndSplineSet
EndChar

StartChar: ogonek
Encoding: 237 731 196
Width: 1706
VWidth: 0
Flags: W
LayerCount: 2
Fore
SplineSet
748 0 m 0
879 -547 m 1,1,-1
 879 -442 l 1,2,3
 868 -442 637 -422 637 -254 c 0,4,5
 637 -84 883 0 885 0 c 2,6,-1
 737 0 l 1,7,8
 723 -14 487 -88 487 -295 c 0,9,10
 487 -494 686 -553 803 -553 c 0,11,12
 829 -553 856 -551 879 -547 c 1,1,-1
EndSplineSet
EndChar

StartChar: one
Encoding: 19 49 198
Width: 709
VWidth: 0
Flags: W
LayerCount: 2
Fore
SplineSet
621 1509 m 0
 438 1417 274 1313 84 1192 c 0
 55 1174 23 1149 23 1124 c 0
 23 1108 31 1092 49 1085 c 1
 109 1085 328 1249 408 1313 c 1
 401 1300 383 1219 266 764 c 0
 219 582 162 395 123 211 c 0
 111 158 96 94 96 45 c 0
 96 27 100 0 123 0 c 2
 326 0 l 2
 375 0 387 147 395 221 c 1
 672 1452 l 2
 674 1462 674 1470 674 1481 c 0
 674 1501 668 1518 649 1518 c 0
 641 1518 633 1516 621 1509 c 0
EndSplineSet
EndChar

StartChar: onehalf
Encoding: 124 189 199
Width: 1640
VWidth: 0
Flags: W
LayerCount: 2
Fore
SplineSet
922 1374 m 0
 899 1333 342 283 219 49 c 0
 209 31 147 -68 147 -117 c 0
 147 -131 154 -141 172 -141 c 0
 236 -141 293 -18 326 39 c 2
 1165 1513 l 1
 1167 1520 1171 1542 1171 1546 c 0
 1171 1563 1161 1579 1151 1579 c 0
 1016 1579 1018 1548 922 1374 c 0
EndSplineSet
Refer: 249 178 N 1 0 0 1 838 0 2
Refer: 201 185 N 1 0 0 1 37 473 2
EndChar

StartChar: onequarter
Encoding: 123 188 200
Width: 1630
VWidth: 0
Flags: W
LayerCount: 2
Fore
SplineSet
946 1374 m 0
 924 1333 367 283 244 49 c 1
 233 31 172 -68 172 -117 c 0
 172 -131 178 -141 197 -141 c 0
 260 -141 317 -18 350 39 c 2
 1190 1513 l 1
 1192 1520 1196 1542 1196 1546 c 0
 1196 1563 1186 1579 1176 1579 c 0
 1040 1579 1042 1548 946 1374 c 0
EndSplineSet
Refer: 150 8308 N 1 0 0 1 733 0 2
Refer: 201 185 N 1 0 0 1 35 473 2
EndChar

StartChar: onesuperior
Encoding: 120 185 201
Width: 502
VWidth: 0
Flags: W
LayerCount: 2
Fore
SplineSet
436 1057 m 0
 309 991 195 920 61 834 c 0
 41 821 18 805 18 786 c 0
 18 776 23 764 37 760 c 1
 78 760 231 874 287 920 c 1
 283 909 270 852 188 535 c 0
 156 408 115 276 88 147 c 0
 80 111 70 66 70 31 c 0
 70 18 72 0 88 0 c 2
 229 0 l 2
 264 0 272 102 279 156 c 1
 473 1016 l 1
 473 1024 473 1030 473 1036 c 0
 473 1051 469 1063 457 1063 c 0
 451 1063 444 1061 436 1057 c 0
EndSplineSet
EndChar

StartChar: ordfeminine
Encoding: 106 170 202
Width: 885
VWidth: 0
Flags: W
LayerCount: 2
Fore
SplineSet
168 805 m 0
 274 805 379 895 440 977 c 1
 438 958 434 932 434 905 c 0
 434 854 446 805 492 805 c 0
 569 805 791 1012 850 1075 c 1
 850 1159 l 1
 750 1053 659 969 621 969 c 0
 602 969 596 981 596 1016 c 0
 596 1077 674 1407 680 1438 c 1
 635 1452 598 1462 553 1462 c 0
 283 1462 53 1221 53 997 c 0
 53 918 74 805 168 805 c 0
539 1405 m 1
 449 1032 l 1
 410 989 334 926 289 926 c 0
 233 926 213 979 213 1040 c 0
 213 1198 367 1405 539 1405 c 1
EndSplineSet
EndChar

StartChar: ordmasculine
Encoding: 121 186 203
Width: 838
VWidth: 0
Flags: W
LayerCount: 2
Fore
SplineSet
567 965 m 1
 590 956 610 954 629 954 c 0
 694 954 743 1004 815 1075 c 1
 815 1161 l 1
 731 1075 682 1010 631 1010 c 0
 618 1010 610 1014 600 1018 c 1
 641 1069 670 1143 670 1208 c 0
 670 1282 633 1341 541 1341 c 0
 438 1341 395 1282 395 1206 c 0
 395 1130 434 1044 514 993 c 1
 473 946 428 926 389 926 c 0
 301 926 233 1016 233 1139 c 0
 233 1282 330 1419 537 1419 c 1
 555 1432 555 1438 555 1454 c 1
 553 1460 547 1462 537 1462 c 0
 250 1462 57 1313 57 1065 c 0
 57 940 115 803 264 803 c 0
 383 803 496 874 567 965 c 1
551 1049 m 1
 502 1085 473 1147 473 1196 c 0
 473 1235 492 1270 535 1270 c 0
 582 1270 596 1237 596 1200 c 0
 596 1147 567 1075 551 1049 c 1
EndSplineSet
EndChar

StartChar: oslash
Encoding: 183 248 204
Width: 907
VWidth: 0
Flags: W
LayerCount: 2
Fore
SplineSet
705 186 m 1
 721 172 758 170 782 170 c 0
 870 170 934 233 1028 332 c 1
 1028 442 l 1
 915 330 852 244 784 244 c 0
 770 244 762 246 748 252 c 1
 768 279 805 362 805 434 c 0
 805 492 778 545 696 545 c 0
 616 545 573 469 573 385 c 0
 573 330 592 270 633 225 c 1
 578 162 518 133 465 133 c 0
 432 133 401 141 375 160 c 1
 729 727 l 1
 770 705 809 672 848 627 c 1
 891 643 889 664 889 684 c 1
 852 731 813 768 770 793 c 1
 903 1006 l 2
 905 1008 909 1012 909 1020 c 0
 909 1047 879 1049 872 1049 c 0
 834 1049 821 1006 772 936 c 1
 700 823 l 1
 664 834 627 840 590 840 c 0
 319 840 31 559 31 317 c 0
 31 193 74 55 182 0 c 1
 150 -53 125 -96 117 -115 c 1
 102 -143 76 -170 76 -193 c 0
 76 -207 84 -209 96 -211 c 1
 156 -207 201 -123 199 -125 c 2
 260 -25 l 1
 272 -27 287 -29 301 -29 c 0
 459 -29 608 68 705 186 c 1
317 217 m 1
 281 266 260 334 260 412 c 0
 260 563 420 758 604 758 c 0
 621 758 637 756 655 752 c 1
 561 604 428 395 317 217 c 1
692 283 m 1
 666 299 651 340 651 379 c 0
 651 422 668 461 698 461 c 0
 725 461 735 442 735 418 c 0
 735 375 705 309 692 283 c 1
EndSplineSet
EndChar

StartChar: p
Encoding: 82 112 206
Width: 836
VWidth: 0
Flags: W
HStem: -16 161<528 595.275> 354 115<868 983> 655 185<449.5 734>
VStem: 594 223<489.707 749.497>
LayerCount: 2
Fore
SplineSet
983 354 m 1
 983 469 l 1
 688 166 594 145 528 145 c 1
 670 233 817 512 817 688 c 0
 817 776 780 840 688 840 c 0
 508 840 315 590 242 444 c 1
 279 565 315 686 350 807 c 1
 283 807 l 2
 209 807 162 803 133 727 c 0
 -7.7037 361.122 -49.5926 -54.6487 -157 -433 c 5
 23 -433 l 5
 44.75 -350.587 84.625 -184.646 139 -2 c 1
 166 84 l 1
 252 362 371 655 528 655 c 0
 575 655 594 623 594 573 c 0
 594 459 492 256 416 168 c 0
 379 125 336 80 336 49 c 0
 336 8 348 -16 395 -16 c 0
 629 -16 743 121 983 354 c 1
EndSplineSet
EndChar

StartChar: paragraph
Encoding: 117 182 207
Width: 1217
VWidth: 0
Flags: W
LayerCount: 2
Fore
SplineSet
625 602 m 0
 694 897 782 1260 823 1391 c 1
 782 1389 741 1382 705 1376 c 1
 471 436 389 111 354 -29 c 1
 186 -29 l 1
 225 154 313 506 375 760 c 1
 205 788 90 913 90 1061 c 0
 90 1307 338 1518 881 1518 c 0
 997 1518 1114 1513 1192 1507 c 1
 1155 1391 l 1
 1096 1393 1006 1393 922 1393 c 1
 954 1382 979 1370 979 1339 c 1
 805 614 l 1
 764 473 680 119 643 -29 c 1
 479 -29 l 1
 514 150 600 498 625 602 c 0
EndSplineSet
EndChar

StartChar: parenleft
Encoding: 10 40 208
Width: 934
VWidth: 0
Flags: W
LayerCount: 2
Fore
SplineSet
666 -23 m 1
 649 -25 635 -25 621 -25 c 0
 334 -25 266 289 266 530 c 0
 266 897 440 1470 844 1470 c 0
 866 1470 891 1468 915 1464 c 1
 920 1567 l 1
 879 1573 840 1577 801 1577 c 0
 293 1577 49 991 49 541 c 0
 49 170 193 -117 518 -117 c 0
 563 -117 610 -111 662 -100 c 1
 666 -23 l 1
EndSplineSet
EndChar

StartChar: parenright
Encoding: 11 41 209
Width: 932
VWidth: 0
Flags: W
LayerCount: 2
Fore
SplineSet
268 1483 m 1
 285 1485 299 1485 313 1485 c 0
 598 1485 668 1171 668 930 c 0
 668 563 494 -10 90 -10 c 0
 66 -10 43 -8 18 -4 c 1
 14 -106 l 1
 59 -117 102 -121 145 -121 c 0
 639 -121 885 483 885 920 c 0
 885 1290 741 1577 414 1577 c 0
 371 1577 324 1571 272 1561 c 1
 268 1483 l 1
EndSplineSet
EndChar

StartChar: percent
Encoding: 7 37 210
Width: 1401
VWidth: 0
Flags: W
LayerCount: 2
Fore
SplineSet
268 858 m 0
 473 858 580 1049 580 1219 c 0
 580 1350 524 1518 348 1518 c 0
 145 1518 53 1311 53 1149 c 0
 53 1032 111 858 268 858 c 0
367 1393 m 0
 424 1393 442 1319 442 1274 c 0
 442 1174 369 973 248 973 c 0
 203 973 201 1055 201 1085 c 0
 201 1178 248 1393 367 1393 c 0
1042 -29 m 0
 1251 -29 1354 164 1354 336 c 0
 1354 467 1298 635 1122 635 c 0
 918 635 827 424 827 262 c 0
 827 147 887 -29 1042 -29 c 0
1141 510 m 0
 1202 510 1217 434 1217 387 c 0
 1217 287 1143 86 1022 86 c 0
 979 86 977 172 977 201 c 0
 977 291 1022 510 1141 510 c 0
944 1374 m 1
 922 1333 365 283 242 49 c 1
 231 31 170 -68 170 -117 c 0
 170 -133 176 -141 197 -141 c 0
 260 -141 313 -18 348 39 c 2
 1249 1513 l 1
 1251 1520 1255 1542 1255 1546 c 0
 1255 1563 1245 1579 1235 1579 c 0
 1063 1579 1065 1548 944 1374 c 1
EndSplineSet
EndChar

StartChar: period
Encoding: 16 46 211
Width: 422
VWidth: 0
Flags: W
LayerCount: 2
Fore
SplineSet
158 -29 m 0
 250 -29 328 59 328 129 c 0
 328 170 297 207 217 207 c 0
 137 207 78 117 78 49 c 0
 78 8 100 -29 158 -29 c 0
EndSplineSet
EndChar

StartChar: periodcentered
Encoding: 118 183 212
Width: 422
VWidth: 0
Flags: W
LayerCount: 2
Fore
SplineSet
158 569 m 0
 250 569 328 657 328 727 c 0
 328 768 297 805 217 805 c 0
 137 805 78 715 78 647 c 0
 78 606 100 569 158 569 c 0
EndSplineSet
EndChar

StartChar: plus
Encoding: 13 43 213
Width: 1120
VWidth: 0
Flags: W
LayerCount: 2
Fore
SplineSet
229 526 m 1
 213 522 160 500 160 428 c 0
 160 397 201 399 209 399 c 2
 453 412 l 1
 391 154 l 1
 389 150 387 139 387 129 c 0
 387 113 393 96 420 96 c 0
 483 96 512 125 516 145 c 2
 584 418 l 1
 662 418 l 2
 705 418 750 416 799 416 c 0
 850 416 920 479 920 516 c 0
 920 545 827 553 719 553 c 0
 686 553 651 553 618 551 c 1
 639 631 l 1
 653 690 662 748 662 786 c 0
 662 819 655 840 641 840 c 0
 604 840 545 821 541 801 c 0
 526 727 510 664 498 602 c 1
 483 547 l 1
 358 541 254 530 229 526 c 1
EndSplineSet
EndChar

StartChar: plusminus
Encoding: 112 177 214
Width: 1120
VWidth: 0
Flags: W
LayerCount: 2
Fore
SplineSet
229 526 m 1
 213 522 160 500 160 428 c 0
 160 397 201 399 209 399 c 2
 453 412 l 1
 406 211 l 1
 403 207 401 197 401 186 c 0
 401 170 408 154 434 154 c 0
 498 154 526 182 530 203 c 1
 584 418 l 1
 662 418 l 2
 705 418 750 416 799 416 c 0
 850 416 920 479 920 516 c 0
 920 545 827 553 719 553 c 0
 686 553 651 553 618 551 c 1
 639 631 l 1
 653 690 662 748 662 786 c 0
 662 819 655 840 641 840 c 0
 604 840 545 821 541 801 c 0
 526 727 510 664 498 602 c 1
 483 547 l 1
 358 541 254 530 229 526 c 1
188 53 m 1
 168 47 139 31 139 -33 c 0
 139 -76 186 -74 197 -74 c 0
 424 -55 461 -55 502 -55 c 0
 545 -55 590 -57 639 -57 c 0
 692 -57 739 2 739 39 c 0
 739 72 643 80 530 80 c 0
 463 80 227 61 188 53 c 1
EndSplineSet
EndChar

StartChar: q
Encoding: 83 113 215
Width: 897
VWidth: 0
Flags: W
HStem: -55 116<315.668 479.543> 784 56<472.563 649.624>
VStem: 55 207<115.729 484.685>
DStem2: 496 72 711 123 0.220649 0.975353<97.1826 712.105> 711 123 690 18 0.730909 0.682475<0 367.22>
LayerCount: 2
Fore
SplineSet
521 -510 m 5
 556.372 -451.137 671.659 -54.0969 690 14 c 1
 690 18 l 1
 1022 328 l 1
 1022 440 l 1
 918 315 844 272 711 123 c 1
 864 760 l 1
 778 793 647 840 565 840 c 0
 240 840 55 516 55 258 c 0
 55 20 195 -55 373 -55 c 0
 408 -55 444 -53 481 -47 c 1
 331 -449 l 5
 521 -510 l 5
496 72 m 1
 469 63 444 61 424 61 c 0
 307 61 262 158 262 291 c 0
 262 498 393 784 555 784 c 0
 580 784 604 778 653 766 c 1
 496 72 l 1
EndSplineSet
EndChar

StartChar: question
Encoding: 33 63 216
Width: 999
VWidth: 0
Flags: W
LayerCount: 2
Fore
SplineSet
401 498 m 1
 430 729 971 782 971 1163 c 0
 971 1399 717 1518 461 1518 c 0
 317 1518 111 1444 47 1278 c 0
 39 1260 37 1243 37 1227 c 0
 37 1161 86 1133 156 1130 c 2
 199 1128 l 1
 238 1253 260 1425 502 1425 c 0
 633 1425 782 1348 782 1206 c 0
 782 946 258 772 258 465 c 0
 258 438 291 424 334 424 c 0
 356 424 387 444 401 498 c 1
285 -29 m 0
 377 -29 455 59 455 129 c 0
 455 170 424 207 344 207 c 0
 264 207 205 117 205 49 c 0
 205 8 227 -29 285 -29 c 0
EndSplineSet
EndChar

StartChar: quotedbl
Encoding: 4 34 218
Width: 913
VWidth: 0
Flags: W
HStem: 1083 455<641.316 671.835 909.316 940.35>
VStem: 600 199<1350.33 1527.27> 600 55<1083 1150.46> 868 199<1344.42 1527.27> 868 56<1083 1157.26>
LayerCount: 2
Fore
SplineSet
544 1403 m 1xa0
 557 1436 565 1464 565 1487 c 0xc0
 565 1526 542 1538 436 1538 c 0
 346 1538 370 1221 366 1083 c 1
 421 1083 l 1
 444 1139 491 1280 544 1403 c 1xa0
813 1403 m 1
 825 1436 833 1464 833 1487 c 0x90
 833 1526 810 1538 704 1538 c 0
 614 1538 638 1221 634 1083 c 1
 690 1083 l 1x88
 712 1139 759 1280 813 1403 c 1
EndSplineSet
EndChar

StartChar: quotedblbase
Encoding: 251 8222 219
Width: 750
VWidth: 0
Flags: W
LayerCount: 2
Fore
SplineSet
252 236 m 0
 172 236 113 145 113 78 c 0
 113 37 135 0 190 0 c 1
 166 -109 127 -215 127 -215 c 1
 184 -236 l 1
 215 -182 356 39 356 119 c 0
 356 190 330 236 252 236 c 0
557 236 m 0
 477 236 418 145 418 78 c 0
 418 37 440 0 496 0 c 1
 471 -109 432 -215 432 -215 c 1
 489 -236 l 1
 520 -182 662 39 662 119 c 0
 662 190 635 236 557 236 c 0
EndSplineSet
EndChar

StartChar: quotedblleft
Encoding: 249 8220 220
Width: 752
VWidth: 0
Flags: W
LayerCount: 2
Fore
SplineSet
195 1067 m 0
 274 1067 334 1157 334 1225 c 0
 334 1266 311 1303 256 1303 c 1
 281 1411 319 1518 319 1518 c 1
 262 1538 l 1
 231 1485 90 1264 90 1184 c 0
 90 1112 117 1067 195 1067 c 0
500 1067 m 0
 580 1067 639 1157 639 1225 c 0
 639 1266 616 1303 561 1303 c 1
 586 1411 625 1518 625 1518 c 1
 567 1538 l 1
 537 1485 395 1264 395 1184 c 0
 395 1112 422 1067 500 1067 c 0
EndSplineSet
EndChar

StartChar: quotedblright
Encoding: 250 8221 221
Width: 490
VWidth: 0
Flags: W
LayerCount: 2
Fore
SplineSet
252 1538 m 0
 172 1538 113 1448 113 1380 c 0
 113 1339 135 1303 190 1303 c 1
 166 1194 127 1087 127 1087 c 1
 184 1067 l 1
 215 1120 356 1341 356 1421 c 0
 356 1493 330 1538 252 1538 c 0
557 1538 m 0
 477 1538 418 1448 418 1380 c 0
 418 1339 440 1303 496 1303 c 1
 471 1194 432 1087 432 1087 c 1
 489 1067 l 1
 520 1120 662 1341 662 1421 c 0
 662 1493 635 1538 557 1538 c 0
EndSplineSet
EndChar

StartChar: quoteleft
Encoding: 246 8216 222
Width: 375
VWidth: 0
Flags: W
LayerCount: 2
Fore
SplineSet
152 1067 m 0
 231 1067 291 1157 291 1225 c 0
 291 1266 268 1303 213 1303 c 1
 238 1411 276 1518 276 1518 c 1
 219 1538 l 1
 188 1485 47 1264 47 1184 c 0
 47 1112 74 1067 152 1067 c 0
EndSplineSet
EndChar

StartChar: quoteright
Encoding: 247 8217 223
Width: 443
VWidth: 0
Flags: W
VStem: 194 244<1314.12 1489.66>
LayerCount: 2
Fore
SplineSet
333 1538 m 4
 253 1538 194 1448 194 1380 c 4
 194 1339 216 1303 272 1303 c 5
 247 1194 208 1087 208 1087 c 5
 266 1067 l 5
 296 1120 438 1341 438 1421 c 4
 438 1493 411 1538 333 1538 c 4
EndSplineSet
EndChar

StartChar: quotesinglbase
Encoding: 248 8218 224
Width: 373
VWidth: 0
Flags: W
LayerCount: 2
Fore
SplineSet
223 207 m 0
 143 207 84 117 84 49 c 0
 84 8 106 -29 162 -29 c 1
 137 -137 98 -244 98 -244 c 1
 156 -264 l 1
 186 -211 328 10 328 90 c 0
 328 162 301 207 223 207 c 0
EndSplineSet
EndChar

StartChar: quotesingle
Encoding: 9 39 225
Width: 524
VWidth: 0
Flags: W
HStem: 1083 455<311.124 375.082>
VStem: 289 196<1332.59 1529.09> 307 56<1083 1171.53>
LayerCount: 2
Fore
SplineSet
465 1403 m 4xa0
 477 1436 485 1464 485 1487 c 4
 485 1526 463 1538 356 1538 c 4
 305 1538 289 1432 289 1315 c 4xc0
 289 1231 297 1141 307 1083 c 5
 363 1083 l 5
 381 1139 420 1280 465 1403 c 4xa0
EndSplineSet
EndChar

StartChar: r
Encoding: 84 114 226
Width: 639
VWidth: 0
Flags: W
HStem: -29 166<237.5 425.5> 302 116<89 205>
VStem: 126 239<782.684 878.686> 181 203<46.4095 258.276>
DStem2: 89 418 89 302 0.663349 0.74831<0 306.023>
LayerCount: 2
Fore
SplineSet
609 717 m 0xd0
 611 721 611 725 611 729 c 0
 611 739 599 743 582 743 c 0
 548 743 492 729 462 729 c 0
 396 729 339 739 304 770 c 1
 339 788 365 848 365 887 c 0
 365 918 351 940 320 940 c 0
 197 940 126 852 126 764 c 0xe0
 126 743 156 680 292 647 c 1
 89 418 l 1
 89 302 l 5
 216 444.909 242 455.818 363 590 c 5
 330 511.679 181 186.346 181 102 c 0
 181 41 206 -29 269 -29 c 0
 371 -29 586 164 750 328 c 1
 750 440 l 1
 685 352 443 137 408 137 c 0
 378 137 384 170 384 182 c 0
 384 270 562 602 609 717 c 0xd0
EndSplineSet
Substitution2: "fina-1" r.fina
EndChar

StartChar: registered
Encoding: 109 174 229
Width: 1819
VWidth: 0
Flags: W
LayerCount: 2
Fore
SplineSet
938 1116 m 1
 889 1116 l 2
 762 1116 778 1061 762 961 c 1
 745 866 668 381 549 381 c 0
 494 381 479 434 479 485 c 0
 479 506 483 528 485 545 c 1
 465 547 l 1
 416 547 324 532 324 467 c 0
 324 354 434 297 535 297 c 0
 754 297 819 518 866 692 c 1
 940 584 1001 297 1159 297 c 0
 1270 297 1413 465 1479 545 c 1
 1479 629 l 1
 1440 592 1262 408 1221 408 c 0
 1214 408 1208 420 1206 424 c 0
 1147 524 1114 659 1024 737 c 1
 1169 774 1358 834 1358 1016 c 0
 1358 1208 1104 1280 950 1280 c 0
 793 1280 438 1212 438 999 c 0
 438 889 541 823 635 795 c 1
 649 831 653 870 653 909 c 1
 610 926 553 952 553 1008 c 0
 553 1149 836 1188 936 1188 c 0
 1038 1188 1180 1128 1180 1008 c 0
 1180 864 1006 774 881 772 c 1
 903 887 924 1001 938 1116 c 1
1585 758 m 1
 1585 317 1235 37 862 37 c 0
 561 37 221 244 221 729 c 0
 221 1157 598 1425 954 1425 c 0
 1352 1425 1575 1106 1585 758 c 1
961 1518 m 0
 420 1518 111 1090 111 711 c 0
 111 166 508 -57 852 -57 c 0
 1434 -57 1708 350 1708 752 c 0
 1708 1137 1448 1518 961 1518 c 0
EndSplineSet
EndChar

StartChar: ring
Encoding: 236 730 230
Width: 666
VWidth: 0
Flags: W
LayerCount: 2
Fore
SplineSet
305 805 m 0
373 1219 m 0,1,2
 438 1219 463 1174 463 1122 c 0,3,4
 463 1063 420 997 346 997 c 0,5,6
 283 997 260 1044 260 1092 c 0,7,8
 260 1153 299 1219 373 1219 c 0,1,2
537 1126 m 0,9,10
 537 1208 483 1286 377 1286 c 0,11,12
 248 1286 182 1186 182 1090 c 0,13,14
 182 979 264 930 342 930 c 0,15,16
 440 930 537 1004 537 1126 c 0,9,10
EndSplineSet
EndChar

StartChar: s
Encoding: 85 115 231
Width: 645
VWidth: 0
Flags: W
HStem: -29 76<76.7468 324.321> 696 166<312.365 488.177>
VStem: -86 102<96.0834 253.833>
LayerCount: 2
Fore
SplineSet
545 367 m 0
 545 456.895 368.371 527.741 307 696 c 1
 406.167 696 545 737 545 827 c 0
 545 858 502 862 482 862 c 0
 231.976 862 125 751.352 125 623 c 0
 125 575 133 524 152 477 c 1
 86 395 -86 254 -86 143 c 0
 -86 6 80 -29 190 -29 c 0
 383 -29 621 199 772 330 c 1
 772 440 l 1
 475 197 l 1
 524 264 545 317 545 367 c 0
195 399 m 1
 256 322 348 231 348 135 c 0
 348 76 283 47 201 47 c 0
 115 47 16 100 16 184 c 0
 16 252 152 352 195 399 c 1
EndSplineSet
Substitution2: "fina-1" s.fina
EndChar

StartChar: section
Encoding: 103 167 233
Width: 1069
VWidth: 0
Flags: W
LayerCount: 2
Fore
SplineSet
956 784 m 0
 956 1020 487 1073 487 1260 c 0
 487 1403 676 1485 809 1485 c 0
 909 1485 989 1444 989 1315 c 0
 989 1268 815 1200 760 1169 c 1
 760 1085 l 1
 809 1102 1145 1290 1145 1317 c 0
 1145 1509 971 1567 850 1567 c 0
 627 1567 301 1440 301 1188 c 0
 301 1128 342 1075 401 1026 c 1
 283 954 199 844 199 700 c 0
 199 547 670 451 670 238 c 0
 670 104 512 23 422 23 c 0
 254 23 256 106 256 195 c 0
 256 225 258 256 260 279 c 1
 223 276 l 1
 147 274 80 227 80 150 c 0
 80 8 233 -57 356 -57 c 0
 555 -57 838 63 838 291 c 0
 838 307 836 326 831 342 c 1
 823 387 801 426 768 461 c 1
 879 535 956 641 956 784 c 0
768 694 m 0
 768 625 737 569 692 526 c 1
 561 618 385 682 385 788 c 0
 385 862 424 924 479 969 c 1
 612 879 768 797 768 694 c 0
EndSplineSet
EndChar

StartChar: semicolon
Encoding: 29 59 234
Width: 483
VWidth: 0
Flags: W
LayerCount: 2
Fore
SplineSet
252 207 m 0
 172 207 113 117 113 49 c 0
 113 8 135 -29 190 -29 c 1
 166 -137 127 -244 127 -244 c 1
 184 -264 l 1
 215 -211 356 10 356 90 c 0
 356 162 330 207 252 207 c 0
242 729 m 0
 334 729 412 817 412 887 c 0
 412 928 381 965 301 965 c 0
 221 965 162 874 162 807 c 0
 162 766 184 729 242 729 c 0
EndSplineSet
EndChar

StartChar: seven
Encoding: 25 55 235
Width: 1022
VWidth: 0
Flags: W
LayerCount: 2
Fore
SplineSet
1004 1354 m 0
 1006 1360 1008 1364 1008 1370 c 0
 1008 1403 963 1423 956 1423 c 0
 797 1423 700 1399 547 1399 c 0
 461 1399 369 1403 215 1421 c 1
 178 1421 150 1329 137 1298 c 1
 104 1239 80 1200 80 1176 c 0
 80 1139 135 1133 297 1133 c 0
 401 1133 657 1161 770 1225 c 1
 453 762 199 401 115 0 c 1
 344 0 l 2
 342 0 387 94 403 139 c 0
 563 571 819 958 1004 1354 c 0
EndSplineSet
EndChar

StartChar: six
Encoding: 24 54 236
Width: 1094
VWidth: 0
Flags: W
LayerCount: 2
Fore
SplineSet
68 426 m 1
 49 193 141 -29 403 -29 c 0
 723 -29 995 283 1016 586 c 1
 1034 823 901 903 684 903 c 0
 606 903 559 889 520 813 c 1
 715 813 809 809 791 582 c 1
 782 430 590 88 422 88 c 0
 260 88 254 209 254 295 c 0
 254 762 666 1194 924 1462 c 1
 768 1462 l 2
 694 1462 631 1399 530 1276 c 0
 328 1030 96 737 68 426 c 1
EndSplineSet
EndChar

StartChar: slash
Encoding: 17 47 237
Width: 1014
VWidth: 0
Flags: W
LayerCount: 2
Fore
SplineSet
778 1374 m 1
 766 1331 170 217 76 -33 c 1
 53 -90 6 -135 6 -193 c 0
 6 -211 10 -223 29 -223 c 0
 170 -223 190 -104 223 -43 c 1
 1001 1513 l 2
 1004 1520 1008 1542 1008 1546 c 0
 1008 1563 997 1579 987 1579 c 0
 864 1579 829 1540 778 1374 c 1
EndSplineSet
EndChar

StartChar: st
Encoding: 264 64262 239
Width: 1167
VWidth: 0
Flags: W
LayerCount: 2
Fore
SplineSet
1008 813 m 1
 1049 958 1149 1227 1149 1237 c 1
 1145 1241 l 1
 993 1241 920 1135 862 983 c 1
 776 809 l 1
 723 805 l 1
 686 801 686 786 686 778 c 0
 686 743 711 735 739 735 c 1
 524 299 l 1
 508 510 328 508 307 727 c 1
 377 727 475 768 475 858 c 0
 475 889 432 893 412 893 c 0
 211 893 125 768 125 623 c 0
 125 575 133 524 152 477 c 1
 86 395 -86 254 -86 143 c 0
 -86 6 80 -29 190 -29 c 0
 354 -29 545 74 711 459 c 1
 702 424 694 389 684 332 c 0
 676 289 657 211 657 137 c 0
 657 47 682 -29 776 -29 c 0
 936 -29 1106 162 1300 338 c 1
 1300 451 l 1
 1112 272 956 141 920 141 c 0
 872 141 870 184 870 233 c 0
 870 313 989 745 991 745 c 0
 1090 745 1264 748 1290 791 c 1
 1313 827 l 1
 1008 813 l 1
195 399 m 1
 256 322 348 231 348 135 c 0
 348 76 283 47 201 47 c 0
 115 47 16 100 16 184 c 0
 16 252 152 352 195 399 c 1
EndSplineSet
EndChar

StartChar: sterling
Encoding: 99 163 240
Width: 1368
VWidth: 0
Flags: W
LayerCount: 2
Fore
SplineSet
127 766 m 1
 106 760 78 743 78 680 c 0
 78 637 125 639 135 639 c 2
 301 647 l 1
 276 557 l 1
 180 551 106 545 86 541 c 1
 66 535 37 518 37 455 c 0
 37 412 84 414 94 414 c 2
 238 420 l 1
 207 309 l 1
 -55 190 l 2
 -98 170 -209 135 -209 72 c 0
 -209 -16 -115 -29 -100 -29 c 0
 -2 -29 143 39 262 117 c 1
 717 -33 713 -57 733 -57 c 0
 901 -57 1028 74 1192 168 c 1
 1192 268 l 1
 1122 209 1018 150 1004 145 c 1
 969 127 946 119 920 119 c 0
 844 119 537 227 489 240 c 0
 459 248 436 258 408 266 c 1
 430 322 453 375 471 430 c 1
 526 432 557 432 584 432 c 0
 627 432 672 430 721 430 c 0
 774 430 821 489 821 526 c 0
 821 559 725 567 612 567 c 0
 580 567 549 567 516 565 c 1
 526 596 535 627 543 657 c 1
 584 657 l 2
 627 657 672 655 721 655 c 0
 774 655 821 715 821 752 c 0
 821 784 725 793 612 793 c 2
 580 793 l 1
 602 887 623 979 641 1067 c 0
 659 1155 838 1405 940 1417 c 1
 1075 1417 1106 1147 1110 1147 c 1
 1106 1042 756 963 756 881 c 0
 756 860 768 840 791 840 c 0
 797 840 805 842 813 846 c 0
 944 907 1161 1036 1292 1102 c 0
 1321 1116 1329 1143 1329 1178 c 0
 1329 1352 1163 1518 991 1518 c 0
 895 1518 633 1335 571 1290 c 1
 508 1243 461 1217 438 1137 c 2
 340 784 l 1
 233 778 147 770 127 766 c 1
EndSplineSet
EndChar

StartChar: t
Encoding: 86 116 241
Width: 545
VWidth: 0
Flags: W
HStem: -29 170<116.5 325.5> 338 113<575 688>
VStem: 45 213<92 419.552>
LayerCount: 2
Fore
SplineSet
395 813 m 1
 436 958 536 1227 536 1237 c 1
 532 1241 l 1
 327 1241 266 1049 194 813 c 1
 110 805 l 2
 73 801 73 793 73 778 c 0
 73 729 125 735 166 735 c 1
 104 471 100 479 71 332 c 0
 63 289 45 211 45 137 c 0
 45 47 69 -29 164 -29 c 0
 323 -29 493 162 688 338 c 1
 688 451 l 1
 499 272 344 141 307 141 c 0
 260 141 258 184 258 233 c 0
 258 313 377 745 379 745 c 0
 477 745 655 748 678 791 c 1
 700 827 l 1
 395 813 l 1
EndSplineSet
Substitution2: "fina-1" t.fina
EndChar

StartChar: thorn
Encoding: 189 254 242
Width: 967
VWidth: 0
Flags: W
LayerCount: 2
Fore
SplineSet
983 354 m 1
 983 469 l 1
 688 166 594 145 528 145 c 1
 670 233 817 512 817 688 c 0
 817 776 780 840 688 840 c 0
 510 840 317 594 250 477 c 1
 250 477 287 610 305 674 c 0
 471 1233 489 1341 524 1462 c 1
 457 1462 l 2
 383 1462 326 1458 297 1382 c 1
 109 809 12 199 -137 -389 c 1
 43 -389 l 1
 61 -315 94 -166 139 -2 c 1
 166 84 l 1
 252 362 371 655 528 655 c 0
 575 655 594 623 594 573 c 0
 594 459 492 256 416 168 c 0
 379 125 336 80 336 49 c 0
 336 8 348 -16 395 -16 c 0
 629 -16 743 121 983 354 c 1
EndSplineSet
EndChar

StartChar: three
Encoding: 21 51 243
Width: 1188
VWidth: 0
Flags: W
LayerCount: 2
Fore
SplineSet
49 238 m 0
 49 57 289 -29 438 -29 c 0
 717 -29 1024 180 1024 479 c 0
 1024 610 932 745 788 784 c 1
 950 852 1126 1008 1126 1214 c 0
 1126 1460 926 1518 707 1518 c 0
 469 1518 244 1329 244 1151 c 0
 244 1126 469 977 504 977 c 0
 528 977 541 1006 543 1030 c 1
 508 1065 444 1112 424 1145 c 1
 424 1251 639 1432 731 1432 c 0
 852 1432 901 1348 901 1241 c 0
 901 1069 770 838 602 817 c 0
 555 811 489 831 489 756 c 0
 489 707 516 698 549 698 c 0
 563 698 578 700 592 700 c 0
 725 700 778 608 778 494 c 0
 778 311 639 76 453 76 c 0
 248 76 340 389 205 389 c 0
 119 389 49 324 49 238 c 0
EndSplineSet
EndChar

StartChar: threequarters
Encoding: 125 190 244
Width: 1833
VWidth: 0
Flags: W
LayerCount: 2
Fore
SplineSet
1208 1374 m 0
 1186 1333 629 283 506 49 c 0
 496 31 434 -68 434 -117 c 0
 434 -131 440 -141 459 -141 c 0
 522 -141 580 -18 612 39 c 2
 1452 1513 l 1
 1454 1520 1458 1542 1458 1546 c 0
 1458 1563 1448 1579 1438 1579 c 0
 1303 1579 1305 1548 1208 1374 c 0
EndSplineSet
Refer: 150 8308 N 1 0 0 1 930 0 2
Refer: 245 179 N 1 0 0 1 0 473 2
EndChar

StartChar: threesuperior
Encoding: 114 179 245
Width: 842
VWidth: 0
Flags: W
LayerCount: 2
Fore
SplineSet
39 166 m 0
 39 41 207 -20 311 -20 c 0
 506 -20 721 127 721 336 c 0
 721 428 655 522 555 549 c 1
 670 596 793 705 793 850 c 0
 793 1022 651 1063 498 1063 c 0
 332 1063 174 930 174 805 c 0
 174 788 332 684 356 684 c 0
 375 684 383 705 383 721 c 1
 360 745 315 778 301 801 c 1
 301 877 451 1001 516 1001 c 0
 600 1001 635 944 635 868 c 0
 635 748 543 586 426 571 c 0
 393 567 346 582 346 528 c 0
 346 494 365 489 389 489 c 0
 397 489 408 489 418 489 c 0
 512 489 549 426 549 346 c 0
 549 217 451 53 322 53 c 0
 178 53 242 272 147 272 c 0
 88 272 39 227 39 166 c 0
EndSplineSet
EndChar

StartChar: tilde
Encoding: 238 732 246
Width: 1118
VWidth: 0
Flags: W
LayerCount: 2
Fore
SplineSet
530 805 m 0
784 942 m 1,1,-1
 909 961 l 1,2,3
 905 973 913 1182 733 1182 c 0,4,5
 635 1182 512 1106 430 1106 c 0,6,7
 387 1106 356 1124 348 1188 c 1,8,-1
 240 1167 l 1,9,10
 244 1155 236 946 416 946 c 0,11,12
 524 946 635 1030 709 1030 c 0,13,14
 745 1030 772 1008 784 942 c 1,1,-1
EndSplineSet
EndChar

StartChar: tt
Encoding: 271 -1 247
Width: 1030
VWidth: 0
Flags: W
LayerCount: 2
Fore
SplineSet
870 831 m 1
 911 971 1012 1227 1012 1237 c 1
 1008 1241 l 1
 807 1241 739 1057 674 825 c 1
 385 813 l 1
 426 958 526 1227 526 1237 c 1
 522 1241 l 1
 317 1241 256 1049 184 813 c 1
 100 805 l 2
 63 801 63 793 63 778 c 0
 63 729 115 735 156 735 c 1
 94 471 90 479 61 332 c 0
 53 289 35 211 35 137 c 0
 35 47 59 -29 154 -29 c 0
 268 -29 391 72 522 195 c 1
 520 174 520 154 520 137 c 0
 520 47 545 -29 639 -29 c 0
 799 -29 969 162 1163 338 c 1
 1163 451 l 1
 975 272 819 141 782 141 c 0
 735 141 733 184 733 233 c 0
 733 313 852 745 854 745 c 0
 952 745 1130 748 1153 791 c 1
 1176 846 l 1
 870 831 l 1
297 141 m 0
 250 141 248 184 248 233 c 0
 248 313 367 745 369 745 c 0
 444 745 651 743 651 743 c 1
 612 606 571 459 545 328 c 1
 418 215 324 141 297 141 c 0
EndSplineSet
EndChar

StartChar: two
Encoding: 20 50 248
Width: 1149
VWidth: 0
Flags: W
LayerCount: 2
Fore
SplineSet
57 12 m 0
 57 -20 100 -29 127 -29 c 0
 268 -29 410 -2 551 -2 c 0
 649 -2 739 -29 840 -29 c 0
 893 -29 934 96 934 145 c 0
 934 207 848 213 786 213 c 0
 637 213 481 160 334 137 c 1
 414 197 1085 674 1085 1137 c 0
 1085 1223 1034 1518 641 1518 c 0
 377 1518 154 1333 154 1006 c 0
 154 975 399 805 438 805 c 0
 475 805 487 834 487 852 c 0
 487 915 408 905 342 999 c 1
 342 1282 547 1409 676 1409 c 0
 803 1409 854 1315 854 1124 c 0
 854 713 383 356 125 109 c 0
 100 86 57 41 57 12 c 0
EndSplineSet
EndChar

StartChar: twosuperior
Encoding: 113 178 249
Width: 817
VWidth: 0
Flags: W
LayerCount: 2
Fore
SplineSet
47 8 m 0
 47 -14 76 -20 94 -20 c 0
 195 -20 293 -2 391 -2 c 0
 461 -2 524 -20 594 -20 c 0
 631 -20 659 68 659 102 c 0
 659 145 600 150 557 150 c 0
 453 150 342 113 240 96 c 1
 295 137 766 471 766 795 c 0
 766 856 729 1063 455 1063 c 0
 270 1063 113 934 113 705 c 0
 113 682 285 563 313 563 c 0
 338 563 348 584 348 596 c 0
 348 641 291 633 246 700 c 1
 246 897 389 987 479 987 c 0
 567 987 604 920 604 786 c 0
 604 500 274 250 94 76 c 0
 76 59 47 29 47 8 c 0
EndSplineSet
EndChar

StartChar: u
Encoding: 87 117 250
Width: 993
VWidth: 0
Flags: W
HStem: -29 174<158.211 338.5> -29 158<587 775.5> 326 112<1002 1114>
VStem: 37 213<97 357.648> 217 197<666.749 800.427> 535 194<42.7018 274.779>
DStem2: 557 272 737 246 0.253463 0.967345<-64.324 557.094>
LayerCount: 2
Fore
SplineSet
51 250 m 0xac
 43 219 37 178 37 139 c 0
 37 55 63 -29 154 -29 c 0
 276 -29 428 82 545 195 c 1
 539 172 535 137 535 102 c 0
 535 35 553 -29 621 -29 c 0
 756 -29 948 174 1114 326 c 1
 1114 438 l 1
 946 276 797 129 754 129 c 0x74
 731 129 729 137 729 156 c 0
 729 190 735 227 737 246 c 1
 760 348 887 807 887 807 c 1
 819 807 l 2
 748 807 698 813 666 688 c 2
 557 272 l 1
 541 240 401 145 317 145 c 0
 279 145 250 164 250 219 c 0xb4
 250 309 414 797 414 807 c 1
 379 807 l 2
 350 807 221 807 217 782 c 1
 145 575 84 375 51 250 c 0xac
EndSplineSet
Substitution2: "fina-1" u.fina
EndChar

StartChar: underscore
Encoding: 65 95 256
Width: 930
VWidth: 0
Flags: W
LayerCount: 2
Fore
SplineSet
121 37 m 1
 100 31 72 14 72 -49 c 0
 72 -92 119 -90 129 -90 c 0
 500 -72 578 -72 639 -72 c 0
 682 -72 727 -74 776 -74 c 0
 829 -74 877 -14 877 23 c 0
 877 55 780 63 668 63 c 0
 559 63 180 45 121 37 c 1
EndSplineSet
EndChar

StartChar: uni00AD
Encoding: 108 173 257
Width: 1038
VWidth: 0
Flags: W
LayerCount: 2
Fore
SplineSet
506 821 m 0
262 1090 m 0,1,2
 240 1083 213 1067 213 1004 c 0,3,4
 213 961 260 963 270 963 c 0,5,6
 526 981 571 981 616 981 c 0,7,8
 659 981 707 979 754 979 c 0,9,10
 807 979 854 1038 854 1075 c 0,11,12
 854 1108 758 1116 645 1116 c 0,13,14
 475 1116 291 1098 262 1090 c 0,1,2
EndSplineSet
EndChar

StartChar: uni030F
Encoding: 241 783 258
Width: 940
VWidth: 0
Flags: W
LayerCount: 2
Fore
SplineSet
512 805 m 0
504 1233 m 0,1,2
 465 1280 438 1319 438 1343 c 0,3,4
 438 1374 469 1389 545 1389 c 0,5,6
 633 1389 748 1104 782 973 c 1,7,-1
 737 934 l 1,8,9
 696 985 600 1118 504 1233 c 0,1,2
102 1288 m 1,10,11
 94 1292 92 1300 92 1309 c 0,12,13
 92 1343 158 1382 207 1382 c 0,14,15
 303 1382 477 1102 530 987 c 1,16,-1
 487 944 l 1,17,18
 428 991 295 1112 172 1225 c 1,19,-1
 102 1288 l 1,10,11
EndSplineSet
EndChar

StartChar: uni0311
Encoding: 242 785 259
Width: 965
VWidth: 0
Flags: W
LayerCount: 2
Fore
SplineSet
420 805 m 0
293 948 m 1,1,2
 293 948 377 1130 516 1130 c 0,3,4
 653 1130 653 950 653 948 c 1,5,-1
 774 973 l 1,6,7
 768 987 778 1282 522 1282 c 0,8,9
 313 1282 213 1096 190 973 c 1,10,-1
 293 948 l 1,1,2
EndSplineSet
EndChar

StartChar: uni0326
Encoding: 243 806 260
Width: 709
VWidth: 0
Flags: W
LayerCount: 2
Fore
SplineSet
365 0 m 0
360 -90 m 0,1,2
 281 -90 221 -180 221 -248 c 0,3,4
 221 -289 244 -326 299 -326 c 1,5,6
 291 -424 276 -520 276 -520 c 1,7,-1
 334 -541 l 1,8,9
 356 -483 465 -250 465 -166 c 0,10,11
 465 -119 438 -90 360 -90 c 0,1,2
EndSplineSet
EndChar

StartChar: v
Encoding: 88 118 262
Width: 778
VWidth: 0
Flags: W
LayerCount: 2
Fore
SplineSet
246 -29 m 0
 422 -29 477 57 563 211 c 1
 582 170 612 119 639 119 c 0
 702 119 807 229 907 334 c 1
 907 446 l 1
 774 313 690 213 647 213 c 1
 647 213 647 229 627 268 c 1
 643 309 739 590 739 743 c 0
 739 801 725 840 688 840 c 0
 569 840 522 528 522 348 c 0
 522 326 522 319 524 319 c 1
 496 276 414 117 375 117 c 0
 326 117 274 285 274 479 c 0
 274 590 293 743 305 807 c 1
 225 807 l 2
 227 807 74 807 68 758 c 1
 55 668 55 580 55 543 c 0
 55 248 119 -29 246 -29 c 0
EndSplineSet
EndChar

StartChar: w
Encoding: 89 119 263
Width: 1204
VWidth: 0
Flags: W
LayerCount: 2
Fore
SplineSet
668 -29 m 0
 819 -29 928 94 985 229 c 1
 1012 190 1036 174 1061 174 c 0
 1116 174 1176 252 1262 328 c 1
 1262 442 l 1
 1149 326 1098 279 1065 279 c 0
 1049 279 1036 291 1026 315 c 1
 1026 315 1120 535 1120 647 c 0
 1120 715 1102 840 1069 840 c 0
 907 840 915 389 895 297 c 1
 881 193 799 100 748 100 c 0
 688 100 651 152 651 246 c 0
 651 287 723 457 723 553 c 0
 723 596 709 625 672 625 c 0
 541 625 477 272 477 174 c 2
 477 160 l 1
 436 123 387 100 350 100 c 0
 291 100 254 152 254 246 c 0
 254 434 369 717 391 807 c 1
 332 807 l 2
 303 807 201 809 174 729 c 0
 90 477 39 272 39 174 c 0
 39 63 109 -29 229 -29 c 0
 338 -29 428 14 496 78 c 1
 524 14 584 -29 668 -29 c 0
EndSplineSet
EndChar

StartChar: x
Encoding: 90 120 264
Width: 903
VWidth: 0
Flags: W
LayerCount: 2
Fore
SplineSet
172 133 m 2
 125 76 27 45 27 10 c 0
 27 -29 51 -55 90 -55 c 0
 137 -55 199 -18 274 78 c 1
 317 131 365 190 414 248 c 1
 489 102 l 2
 528 27 559 -29 604 -29 c 0
 686 -29 838 152 1028 328 c 1
 1028 444 l 1
 934 342 762 174 723 174 c 0
 721 174 719 174 717 176 c 0
 676 219 621 319 565 428 c 1
 639 514 707 594 752 651 c 0
 797 709 897 735 897 774 c 0
 897 813 872 840 834 840 c 0
 788 840 721 803 649 707 c 1
 510 539 l 1
 449 662 399 774 387 797 c 1
 373 821 344 838 309 838 c 0
 213 838 53 672 -29 571 c 1
 -6 516 l 1
 35 561 158 670 180 670 c 0
 195 670 203 657 209 645 c 2
 358 356 l 1
 172 133 l 2
EndSplineSet
EndChar

StartChar: y
Encoding: 91 121 265
Width: 860
VWidth: 0
Flags: W
HStem: -489 69<176.12 329.849> -29 174<68 318> 328 112<871 983>
VStem: -4 213<97 369.282> 16 150<-415.527 -251.184> 176 197<666.156 800.427>
DStem2: 678 174 649 27 0.742852 0.669456<-15.6088 329.666>
LayerCount: 2
Fore
SplineSet
473 35 m 1xf0
 172 -156 l 1
 84 -205 16 -258 16 -332 c 0xe8
 16 -430 121 -489 205 -489 c 0
 371 -489 586 -330 649 23 c 1
 649 27 l 1
 983 328 l 1
 983 440 l 1
 879 340 811 285 678 174 c 2
 666 164 l 1
 664 154 811 709 846 807 c 1
 778 807 l 2
 707 807 657 813 625 688 c 2
 516 272 l 1
 500 240 360 145 276 145 c 0
 238 145 209 164 209 219 c 0xf0
 209 309 373 797 373 807 c 1
 338 807 l 2
 309 807 180 807 176 782 c 1xe4
 78 502 -4 256 -4 139 c 0
 -4 55 23 -29 113 -29 c 0
 236 -29 389 82 506 195 c 1
 473 35 l 1xf0
461 -88 m 1
 434 -274 365 -420 240 -420 c 0
 190 -420 166 -391 166 -338 c 0
 166 -274 225 -236 276 -205 c 1
 461 -88 l 1
EndSplineSet
Substitution2: "fina-1" y.fina
EndChar

StartChar: yen
Encoding: 101 165 268
Width: 1546
VWidth: 0
Flags: W
LayerCount: 2
Fore
SplineSet
283 315 m 1
 262 309 233 293 233 229 c 0
 233 186 281 188 291 188 c 2
 510 197 l 1
 492 106 l 1
 367 100 268 94 242 90 c 1
 221 84 193 68 193 4 c 0
 193 -39 240 -37 250 -37 c 2
 463 -27 l 1
 451 -94 438 -160 430 -225 c 1
 418 -279 403 -342 403 -391 c 0
 403 -410 408 -436 430 -436 c 2
 608 -436 l 2
 657 -436 686 -287 702 -215 c 2
 743 -18 l 1
 788 -16 817 -18 842 -18 c 0
 885 -18 930 -20 979 -20 c 0
 1032 -20 1079 39 1079 76 c 0
 1079 109 983 117 870 117 c 0
 838 117 805 115 772 115 c 1
 793 207 l 1
 883 207 l 2
 926 207 971 205 1020 205 c 0
 1073 205 1120 264 1120 301 c 0
 1120 334 1024 342 911 342 c 2
 897 342 l 1
 1085 520 1329 780 1372 958 c 1
 1485 979 1585 1044 1640 1085 c 1
 1640 1200 l 1
 1511 1085 1384 1063 1384 1063 c 1
 1384 1159 1386 1559 1182 1559 c 0
 1024 1559 967 1401 967 1286 c 0
 967 1073 1171 975 1245 963 c 1
 1167 764 739 387 739 387 c 1
 739 387 686 580 645 848 c 1
 588 1106 532 1516 532 1509 c 1
 532 1524 514 1530 506 1530 c 0
 459 1530 426 1481 188 1303 c 1
 188 1192 l 1
 221 1210 242 1225 256 1233 c 2
 287 1251 l 1
 309 1165 332 981 362 840 c 1
 385 670 440 485 479 330 c 1
 381 324 305 319 283 315 c 1
1147 1380 m 0
 1217 1380 1257 1229 1257 1108 c 0
 1257 1096 1255 1081 1255 1069 c 1
 1169 1087 1092 1178 1092 1307 c 0
 1092 1341 1102 1380 1147 1380 c 0
EndSplineSet
EndChar

StartChar: z
Encoding: 92 122 269
Width: 737
VWidth: 0
Flags: W
LayerCount: 2
Fore
SplineSet
158 -535 m 1
 387 -518 549 -264 575 63 c 1
 575 63 678 141 913 379 c 1
 872 453 l 1
 780 362 637 211 545 152 c 1
 545 152 543 190 481 213 c 1
 504 260 541 332 578 418 c 1
 713 700 l 2
 715 702 715 707 715 713 c 0
 715 725 709 743 688 743 c 0
 655 743 598 729 569 729 c 0
 500 729 444 741 414 772 c 1
 414 772 475 805 475 891 c 0
 475 928 444 940 424 940 c 0
 303 940 236 838 236 770 c 0
 236 692 266 659 309 637 c 1
 115 432 l 1
 115 322 l 1
 207 414 328 526 377 575 c 1
 438 561 l 1
 360 385 244 156 244 111 c 0
 244 96 340 82 389 70 c 1
 90 -27 -84 -154 -84 -369 c 0
 -84 -467 4 -535 158 -535 c 1
451 -4 m 1
 444 -184 281 -428 174 -428 c 0
 109 -428 90 -362 90 -311 c 0
 90 -76 236 -119 451 -4 c 1
EndSplineSet
EndChar

StartChar: zero
Encoding: 18 48 271
Width: 1210
VWidth: 0
Flags: W
LayerCount: 2
Fore
SplineSet
82 496 m 0
 94 287 170 -29 438 -29 c 0
 934 -29 1149 625 1126 1038 c 0
 1112 1284 1010 1518 727 1518 c 0
 293 1518 61 862 82 496 c 0
815 1327 m 0
 938 1327 967 1190 971 1096 c 1
 987 805 725 143 383 143 c 0
 279 143 258 252 254 332 c 0
 238 664 391 1044 641 1247 c 1
 692 1286 748 1327 815 1327 c 0
EndSplineSet
EndChar

StartChar: a.fina
Encoding: 272 -1 272
Width: 928
VWidth: 0
Flags: W
HStem: -29 160<86.5 309.875 641.494 840.668> 764 76<494.829 637>
VStem: -4 213<150.254 421.656> 523 191.916<126.178 199>
LayerCount: 2
Fore
SplineSet
714.916 227.596 m 4
 714.916 334.938 811.919 742.196 825 807 c 5
 768 825 717 840 657 840 c 4
 301 840 -4 520 -4 225 c 4
 -4 121 23 -29 150 -29 c 4
 296.092 -29 438.039 92 523 199 c 5
 523 25.9491 595.522 -30.7288 687.466 -30.7288 c 4
 819.643 -30.7288 993.094 106.986 1041 168 c 5
 1000 252.774 l 5
 934.489 183.601 850.696 118.498 791.608 118.498 c 4
 746.345 118.498 714.916 148.101 714.916 227.596 c 4
637 764 m 5
 522 272 l 5
 467 213 369 131 307 131 c 4
 233 131 209 203 209 281 c 4
 209 492 412 764 637 764 c 5
EndSplineSet
EndChar

StartChar: e.fina
Encoding: 273 -1 273
Width: 731
VWidth: 0
Flags: W
HStem: -30.5811 118.238<292.057 555.264> 381 86<358.95 558.842> 750 90<405.033 604.828>
VStem: 25.073 205.927<151.552 486.811> 614 140<522.841 740.435>
LayerCount: 2
Back
SplineSet
303 565 m 5
 324 625 401 750 520 750 c 4
 578 750 614 729 614 653 c 4
 614 559 549 467 471 467 c 4
 412 467 350 504 303 565 c 5
691 230.104 m 4
 585.807 149.258 479.681 82 399 82 c 4
 268 82 231 193 231 313 c 4
 231 369 244 426 274 489 c 5
 324 412 399 381 455 381 c 4
 606 381 754 510 754 664 c 4
 754 797 649 840 518 840 c 4
 227 840 27 547 27 258 c 4
 27 33 152 -29 330 -29 c 4
 457.823 -29 589.992 41.1932 731 153.163 c 4
 691 230.104 l 4
EndSplineSet
Fore
SplineSet
303 565 m 5
 324 625 401 750 520 750 c 4
 578 750 614 729 614 653 c 4
 614 559 549 467 471 467 c 4
 412 467 350 504 303 565 c 5
25.073 302.314 m 4
 25.073 68.1805 170.091 -30.5811 360.497 -30.5811 c 4
 515.277 -30.5811 677.57 60.0625 771 183.163 c 5
 731 250.104 l 5
 630.617 148.772 511.287 87.6572 413.069 87.6572 c 4
 309.512 87.6572 231 154.234 231 313 c 4
 231 369 244 426 274 489 c 5
 324 412 399 381 455 381 c 4
 606 381 754 510 754 664 c 4
 754 797 649 840 518 840 c 4
 241.928 840 25.073 542.298 25.073 302.314 c 4
EndSplineSet
EndChar

StartChar: b.fina
Encoding: 274 -1 274
Width: 986
VWidth: 0
Flags: W
HStem: -57 133<197.5 534.732> 1466 115<649.325 817.233>
VStem: 78 215<100.626 493.398> 737 176.344<308.53 596.025> 764 150<1261.3 1462.07>
LayerCount: 2
Back
SplineSet
400 784 m 1xe8
 400 875.856 613.169 1466 697 1466 c 0
 744 1466 764 1440 764 1399 c 0
 764 1234.57 556 895.348 400 784 c 1xe8
913.344 527.981 m 0xf0
 913.344 662.474 856.282 756 702 756 c 0
 627 756 500 652 481 580 c 1
 670 580 737 520.293 737 436 c 0xf0
 737 283 555 76 410 76 c 0
 322 76 293 141 293 236 c 0
 293 335.845 336.333 484.535 361 593 c 1
 784.598 1016.12 914 1283.86 914 1450 c 0xe8
 914 1528 873 1581 760 1581 c 0
 540.17 1581 340.994 1300.35 287 1108 c 0
 176.776 715.346 78 420 78 133 c 0
 78 37 104 -57 291 -57 c 0
 705.19 -57 913.344 256.749 913.344 527.981 c 0xf0
430 924 m 5xe8
 430 997 621.637 1466 697 1466 c 4
 744 1466 764 1440 764 1399 c 4
 764 1272 573.143 1010 430 924 c 5xe8
913.344 527.981 m 4xf0
 913.344 674.271 856.282 776 702 776 c 4
 627 776 500 672 481 600 c 5
 670 600 737 532 737 436 c 4xf0
 737 283 555 76 410 76 c 4
 322 76 293 141 293 236 c 4
 293 375 358 582 395 733 c 5
 792.554 1087 914 1311 914 1450 c 4xe8
 914 1528 873 1581 760 1581 c 4
 540.17 1581 340.994 1300.35 287 1108 c 4
 176.776 715.346 78 420 78 133 c 4
 78 37 104 -57 291 -57 c 4
 705.19 -57 913.344 256.749 913.344 527.981 c 4xf0
EndSplineSet
Fore
SplineSet
400 784 m 1xe8
 400 875.856 613.169 1466 697 1466 c 0
 744 1466 764 1440 764 1399 c 0
 764 1234.57 556 895.348 400 784 c 1xe8
913.344 527.981 m 0xf0
 913.344 662.474 856.282 756 702 756 c 0
 627 756 500 652 481 580 c 1
 670 580 737 520.293 737 436 c 0xf0
 737 283 555 76 410 76 c 0
 322 76 293 141 293 236 c 0
 293 335.845 336.333 484.535 361 593 c 1
 784.598 1016.12 914 1283.86 914 1450 c 0xe8
 914 1528 873 1581 760 1581 c 0
 540.17 1581 340.994 1300.35 287 1108 c 0
 176.776 715.346 78 420 78 133 c 0
 78 37 104 -57 291 -57 c 0
 705.19 -57 913.344 256.749 913.344 527.981 c 0xf0
EndSplineSet
EndChar

StartChar: c.fina
Encoding: 275 -1 275
Width: 696
VWidth: 0
Flags: W
HStem: -29 142.585<278.515 511.7> 743 97<348.546 546>
VStem: -1 217<179.17 447.646>
LayerCount: 2
Fore
SplineSet
399.137 113.585 m 0
 268.069 113.585 216 212.935 216 348 c 0
 216 519.654 312.885 743 435 743 c 0
 525 743 523 616 578 616 c 0
 654 616 710 659 710 717 c 0
 710 827 581 840 511 840 c 0
 212 840 -1 487 -1 231 c 0
 -1 86 93.2424 -29 310 -29 c 0
 474.773 -29 632.447 62.441 739 190.049 c 1
 704 256.687 l 1
 608.075 176.268 504.926 113.585 399.137 113.585 c 0
EndSplineSet
EndChar

StartChar: d.fina
Encoding: 276 -1 276
Width: 913
VWidth: 0
Flags: W
HStem: -29.4414 147.441<656.702 875.142> -29 187<89 349> 770 70<459.7 653.577>
VStem: 10 211<168.102 393.9> 555 186<128.857 235>
LayerCount: 2
Back
SplineSet
43 250 m 4x58
 35 219 29 178 29 139 c 4
 29 55 55 -29 146 -29 c 4x68
 272.68 -29 419.512 53.9821 552 199 c 5
 552.495 145.643 549.767 -31.3184 719.319 -31.3184 c 4
 827.405 -31.3184 975.711 62.4741 1083 178.479 c 5
 1028 253.42 l 5
 942.192 161.978 869.856 118.484 818.891 118.484 c 4xa8
 767.64 118.484 738 162.466 738 245.899 c 4
 738 347.963 878.991 806.962 879 807 c 6
 811 807 l 6
 804.781 807 798.723 807.046 792.824 807.046 c 4
 731.379 807.046 687.197 802.051 658 688 c 6
 549 272 l 5
 533 240 393 145 309 145 c 4
 271 145 242 164 242 219 c 4x68
 242 309 406 797 406 807 c 5
 371 807 l 6
 342 807 213 807 209 782 c 5
 137 575 76 375 43 250 c 4x58
EndSplineSet
Fore
SplineSet
555 235 m 1x78
 555 66.6827 591.892 -29.4414 721.513 -29.4414 c 4
 817.435 -29.4414 926.103 24.3696 1084 178 c 1
 1028 253 l 1
 928 143 849.5 118 824 118 c 0xb8
 765.097 118 741 145.429 741 262 c 0
 741 377 959.272 1129.6 1022 1321 c 0
 1037.27 1367.6 1055 1442 1057 1460 c 1
 1022 1460 l 2
 852 1460 846.734 1428.76 809 1294 c 2
 676 819 l 1
 649 827 610 840 545 840 c 0
 297 840 10 471 10 182 c 0
 10 98 31 -29 147 -29 c 0
 233.985 -29 397.599 59.9888 555 235 c 1x78
657 731 m 1
 569 344 l 2
 557 295 395 158 303 158 c 0x78
 254 158 221 190 221 285 c 0
 221 489 383 770 563 770 c 0
 623 770 655 737 657 731 c 1
EndSplineSet
EndChar

StartChar: f.fina
Encoding: 277 -1 277
Width: 683
VWidth: 0
Flags: W
HStem: 482 143<374.837 775.992> 1358 108<487.528 695>
VStem: -74 168<-336 -141.203> 616 127<1100.94 1354.14>
LayerCount: 2
Fore
SplineSet
-15 542 m 1
 -36 539.419 -64 532.105 -64 505 c 0
 -64 462 -17 464 -7 464 c 0
 316.754 482 369.525 482 428 482 c 0
 518.08 482 612.35 480 715 480 c 0
 752.96 480 786 530.103 786 561 c 0
 786 610.951 744.694 625 697 625 c 0
 555.433 625 66.193 566.593 -15 542 c 1
616 1255 m 0
 616 1059 395 774 274 586 c 1
 311 770 420 1358 547 1358 c 0
 606 1358 616 1305 616 1255 c 0
233 372 m 1
 233 479.887 743 899.447 743 1325 c 0
 743 1384 741 1466 649 1466 c 0
 485 1466 297 1315 262 1190 c 0
 150 786 -16 92 -74 -336 c 1
 94 -336 l 1
 115 -266 193 164 199 193 c 1
 233 372 l 1
EndSplineSet
EndChar

StartChar: ff.fina
Encoding: 278 -1 278
Width: 983
VWidth: 0
Flags: W
HStem: 456 145<888.402 1154.5> 464 78<-63.8649 84.7871> 1358 108<487.528 695 1021.31 1225>
VStem: -74 168<-336 -141.203> 456 168<-336 -141.586> 616 127<1100.94 1354.14> 1146 127<1100.56 1351.14>
LayerCount: 2
Fore
SplineSet
1146 1252 m 4x32
 1146 1061.57 925 784.661 804 602 c 1
 841 781.471 950 1355 1077 1355 c 4
 1136 1355 1146 1302 1146 1252 c 4x32
763 372 m 1
 763 479.547 1273 897.786 1273 1322 c 4
 1273 1381 1271 1463 1179 1463 c 4
 1015 1463 827 1312 792 1187 c 4
 680 783.794 514 91.1589 456 -336 c 1
 624 -336 l 1x3a
 645 -266 723 164 729 193 c 1
 763 372 l 1
-15 542 m 1x72
 -36 539.419 -64 532.105 -64 505 c 0
 -64 462 -17 464 -7 464 c 0x72
 316.754 462 369.525 462 428 462 c 0
 637.35 462 856.437 456 1095 456 c 0
 1132.96 456 1166 506.103 1166 537 c 0
 1166 586.951 1124.69 601 1077 601 c 0xb2
 859.878 601 109.526 559.482 -15 542 c 1x72
616 1255 m 0x36
 616 1059 395 774 274 586 c 1
 311 770 420 1358 547 1358 c 0
 606 1358 616 1305 616 1255 c 0x36
233 372 m 1
 233 479.887 743 899.447 743 1325 c 0
 743 1384 741 1466 649 1466 c 0
 485 1466 297 1315 262 1190 c 0
 150 786 -16 92 -74 -336 c 1
 94 -336 l 1
 115 -266 193 164 199 193 c 1
 233 372 l 1
EndSplineSet
EndChar

StartChar: t.fina
Encoding: 279 -1 279
Width: 735
VWidth: 0
Flags: W
HStem: -29.1738 125.262<185.521 432.001> 734.768 70.2322<73.5988 141.006 395 593.749>
VStem: 47.1396 210.86<115.18 452.693>
LayerCount: 2
Back
SplineSet
395 813 m 5
 436 958 536 1227 536 1237 c 5
 532 1241 l 5
 327 1241 266 1049 194 813 c 5
 110 805 l 6
 73 801 73 793 73 778 c 4
 73 729 125 735 166 735 c 5
 104 471 100 479 71 332 c 4
 63 289 45 211 45 137 c 4
 45 47 69 -29 164 -29 c 4
 359.412 -29 568.344 146.387 808 308 c 5
 808 421 l 5
 559.472 259.322 355.654 141 307 141 c 4
 260 141 258 184 258 233 c 4
 258 313 377 745 379 745 c 4
 477 745 655 748 678 791 c 5
 700 827 l 5
 395 813 l 5
EndSplineSet
Fore
SplineSet
395 813 m 1
 436 958 536 1227 536 1237 c 1
 532 1241 l 1
 327 1241 266 1049 194 813 c 1
 110 805 l 2
 73 801 73 793 73 778 c 0
 73 738.639 106.553 734.768 141.006 734.768 c 0
 149.443 734.768 157.934 735 166 735 c 1
 100.962 488.609 47.1396 317.351 47.1396 202.295 c 0
 47.1396 68.9888 106.521 -29.1738 264.521 -29.1738 c 0
 527.242 -29.1738 834.516 318.12 1027 633 c 1
 974 670 l 1
 840.13 473.194 521.845 96.0879 371.715 96.0879 c 0
 301.904 96.0879 258 135.321 258 233 c 0
 258 313 377 745 379 745 c 0
 477 745 655 748 678 791 c 1
 700 827 l 1
 395 813 l 1
EndSplineSet
EndChar

StartChar: o.fina
Encoding: 280 -1 280
Width: 987
VWidth: 0
Flags: W
HStem: -29 182<202.5 478.682> 174.779 72.8376<716 910.303> 586 96<592.5 732.715> 784 56<494.79 683.389>
VStem: 31 229<246.403 529.714> 475 101.367<337.938 575.108> 741 95<348.163 578.778>
LayerCount: 2
Fore
SplineSet
610 823 m 0,0,-1
675 184 m 1,1,-1
 706.085 177.811 736.288 174.779 765.642 174.779 c 0,4,-1
 929.735 174.779 1067.29 269.515 1184 437 c 1,7,-1
 1141 497 l 1,8,-1
 990.546 315.467 891.914 247.617 779.022 247.617 c 0,11,-1
 758.611 247.617 737.734 249.835 716 254 c 1,14,-1
 790.4 320.973 836 418.595 836 506 c 0,17,-1
 836 602 788 682 668 682 c 0,20,-1
 532 682 475 593.011 475 484 c 0,23,-1
 475 391.454 519.154 285.39 604 223 c 1,26,-1
 551.592 174 494.743 153 445 153 c 0,29,-1
 343 153 260 264 260 412 c 0,32,-1
 260 604 389 784 662 784 c 1,35,-1
 684 799 684 807 684 827 c 1,38,-1
 682 838 672 840 662 840 c 0,41,-1
 285 840 31 645 31 317 c 0,44,-1
 31 154 104 -29 301 -29 c 0,47,-1
 447.183 -29 585.772 64.7901 675 184 c 1,1,-1
576.367 466.055 m 0,50,-1
 576.367 529.822 598.022 586 659 586 c 0,53,-1
 721 586 741 545 741 494 c 0,56,-1
 741 426 695.667 324 661 290 c 1,59,-1
 618.244 331.299 576.367 397.841 576.367 466.055 c 0,50,-1
EndSplineSet
EndChar

StartChar: U.init
Encoding: 281 -1 281
Width: 1645
VWidth: 0
Flags: W
HStem: -57 204<573.33 899.261> 493.283 95.9561<1478.39 1713.08> 1370.69 150.083<1253.75 1405.37>
VStem: 223 238<260.878 719.921> 1056.86 145.197<855.675 1316.46> 1447.02 142.496<805.062 1327.08>
LayerCount: 2
Back
SplineSet
1377.2 1520.77 m 4
 1122.06 1520.77 1056.86 1336.45 1056.86 1143.55 c 4
 1056.86 888.444 1144.7 717.932 1340 592 c 5
 1261.55 424.88 1071.37 147 745 147 c 4
 535 147 461 276 461 457 c 4
 461 844 799 1464 799 1509 c 4
 799 1524 784 1530 772 1530 c 4
 709 1530 266 1235 -43 1057 c 5
 -43 946 l 5
 145 1059 365.941 1190.08 406 1221 c 6
 520 1309 l 6
 526 1313 528 1315 532 1315 c 4
 535 1315 537 1313 537 1311 c 5
 360 1069 223 696 223 403 c 4
 223 133 334 -57 625 -57 c 4
 1070.67 -57 1336.3 256.675 1463 542 c 5
 1485.64 535.961 1507.93 533.283 1529.76 533.283 c 4
 1670.76 533.283 1792.53 645.024 1865 685 c 5
 1865 799 l 5
 1703.66 661.496 1603.39 634.24 1549.24 634.24 c 4
 1513.67 634.24 1498 646 1498 646 c 5
 1562.25 827.014 1589.52 989.65 1589.52 1124.18 c 4
 1589.52 1369.03 1499.21 1520.77 1377.2 1520.77 c 4
1202.06 1078.72 m 4
 1202.06 1206.55 1221.33 1370.69 1337.49 1370.69 c 4
 1418.38 1370.69 1447.02 1240.64 1447.02 1101.68 c 4
 1447.02 952.858 1410.52 771.572 1381 673 c 5
 1381 673 1202.06 854.37 1202.06 1078.72 c 4
EndSplineSet
Fore
SplineSet
1377.2 1520.77 m 0
 1122.06 1520.77 1056.86 1336.45 1056.86 1143.55 c 0
 1056.86 869.943 1138.5 687.065 1320 552 c 1
 1244.18 399.902 1060.4 147 745 147 c 0
 535 147 461 276 461 457 c 0
 461 844 799 1464 799 1509 c 0
 799 1524 784 1530 772 1530 c 0
 709 1530 266 1235 -43 1057 c 1
 -43 946 l 1
 145 1059 365.941 1190.08 406 1221 c 2
 520 1309 l 2
 526 1313 528 1315 532 1315 c 0
 535 1315 537 1313 537 1311 c 1
 360 1069 223 696 223 403 c 0
 223 133 334 -57 625 -57 c 0
 1060.03 -57 1319.32 235.729 1443 502 c 1
 1465.64 495.962 1487.93 493.283 1509.76 493.283 c 0
 1688.61 493.283 1843.08 605.025 1935 645 c 1
 1935 759 l 1
 1727.68 617.323 1598.82 589.239 1529.24 589.239 c 4
 1493.67 589.239 1478 601 1478 601 c 5
 1556.29 799.048 1589.52 976.99 1589.52 1124.18 c 0
 1589.52 1369.03 1499.21 1520.77 1377.2 1520.77 c 0
1202.06 1078.72 m 0
 1202.06 1206.55 1221.33 1370.69 1337.49 1370.69 c 0
 1418.38 1370.69 1447.02 1240.64 1447.02 1101.68 c 0
 1447.02 940.708 1403.34 744.62 1368 638 c 1
 1368 638 1202.06 835.016 1202.06 1078.72 c 0
EndSplineSet
EndChar

StartChar: No
Encoding: 282 -1 282
Width: 2371
VWidth: 0
Flags: W
HStem: -57 204<1038.5 1266.13> 193.112 122.888<1423.23 2134.93> 383.84 114.414<1743.4 1941.51> 1150.39 106.058<1902.95 2108.21> 1318.2 197.803<1061.42 1307.62>
VStem: 66 206<0 204.46> 963 225<155.018 742.188> 1500.24 210.87<526.304 884.42> 2141.07 204.266<769.729 1089.46>
LayerCount: 2
Fore
SplineSet
1257 147 m 0
 1198 147 1188 260 1188 346 c 0
 1188 659 1354 1341 1354 1423 c 0
 1354 1475 1331 1516 1270 1516 c 0
 1188 1516 932 1495 549 1040 c 1
 565 1122 l 1
 565 1161 643 1397 643 1497 c 0
 643 1509 635 1516 623 1516 c 0
 580 1516 487 1460 453 1438 c 2
 23 1167 l 2
 2 1153 -2 1139 -2 1126 c 0
 -2 1100 4 1075 25 1075 c 1
 55 1085 l 1
 377 1313 l 1
 295 995 l 1
 209 612 66 211 66 0 c 1
 272 0 l 1
 297 100 330.913 299.691 371 442 c 0
 471 797 708.129 1144.57 1033 1309 c 0
 1045.52 1315.33 1056.62 1318.2 1066.23 1318.2 c 0
 1095.24 1318.2 1110.72 1292.14 1110.72 1256.85 c 0
 1110.72 1240.05 1107.22 1221.17 1100 1202 c 1
 1010 918.059 963 581.444 963 262 c 0
 963 143 977 -57 1100 -57 c 0
 1185.64 -57 1353.52 108.719 1438.16 193.112 c 1
 1739.53 188.004 1796.27 188 1853 188 c 0
 1915 188 1978 186 2052 186 c 0
 2105 186 2152 246 2152 283 c 0
 2152 308.756 2025 316 1882 316 c 0
 1795.3 316 1545.57 305.021 1402.43 296.24 c 1
 1373.65 288 1275.27 147 1257 147 c 0
1500.24 706.409 m 0
 1500.24 530.459 1598.35 383.84 1827.32 383.84 c 0
 2146.94 383.84 2345.33 664.125 2345.33 903.972 c 0
 2345.33 1089.21 2233.35 1256.45 1980.15 1256.45 c 0
 1692.96 1256.45 1500.24 954.951 1500.24 706.409 c 0
2016 1150.39 m 0
 2106.35 1150.39 2141.07 1075.96 2141.07 979.961 c 0
 2141.07 786.751 1996.95 498.254 1829.14 498.254 c 0
 1742.12 498.254 1711.11 568.509 1711.11 665.229 c 0
 1711.11 858.216 1847.02 1150.39 2016 1150.39 c 0
EndSplineSet
LCarets2: 2 0 0 
Ligature2: "alt-no" N o period
EndChar

StartChar: u.fina
Encoding: 283 -1 283
Width: 993
VWidth: 0
Flags: W
HStem: -31.3184 149.802<642.543 878.608> -29 174<108.5 321.017>
VStem: 37 213<97 357.648> 217 197<666.749 800.427> 560 186<131.335 199>
LayerCount: 2
Back
SplineSet
750.916 227.596 m 4
 750.916 334.938 847.919 742.196 861 807 c 5
 804 825 753 840 693 840 c 4
 337 840 32 520 32 225 c 4
 32 121 59 -29 186 -29 c 4
 332.092 -29 474.039 92 559 199 c 5
 559 25.9493 631.522 -30.7285 723.466 -30.7285 c 4
 855.643 -30.7285 1029.09 106.986 1077 168 c 5
 1036 252.774 l 5
 970.489 183.601 886.696 118.498 827.608 118.498 c 4
 782.345 118.498 750.916 148.101 750.916 227.596 c 4
673 764 m 5
 558 272 l 5
 503 213 405 131 343 131 c 4
 269 131 245 203 245 281 c 4
 245 492 448 764 673 764 c 5
EndSplineSet
Fore
SplineSet
51 250 m 4x58
 43 219 37 178 37 139 c 4
 37 55 63 -29 154 -29 c 4x68
 280.68 -29 427.512 53.9821 560 199 c 5
 560.495 145.643 557.767 -31.3184 727.32 -31.3184 c 4
 835.405 -31.3184 983.711 62.4741 1091 178.479 c 5
 1036 253.42 l 5
 950.192 161.978 877.856 118.484 826.891 118.484 c 4xa8
 775.64 118.484 746 162.466 746 245.9 c 4
 746 347.963 886.991 806.962 887 807 c 6
 819 807 l 6
 812.781 807 806.723 807.046 800.824 807.046 c 4
 739.379 807.046 695.197 802.051 666 688 c 6
 557 272 l 5
 541 240 401 145 317 145 c 4
 279 145 250 164 250 219 c 4x68
 250 309 414 797 414 807 c 5
 379 807 l 6
 350 807 221 807 217 782 c 5
 145 575 84 375 51 250 c 4x58
EndSplineSet
EndChar

StartChar: n.fina
Encoding: 284 -1 284
Width: 838
VWidth: 0
Flags: W
HStem: -31.0669 149.067<589.688 798.085> 655 185<467 752.5>
VStem: -25 191<0 141.198> 485.901 189.422<122.645 380.683> 588 229<539.27 773.01>
LayerCount: 2
Back
SplineSet
-30 250 m 4x58
 -38 219 -44 178 -44 139 c 4
 -44 55 -18 -29 73 -29 c 4x68
 199.68 -29 346.512 53.9821 479 199 c 5
 479.495 145.643 476.767 -31.3184 646.319 -31.3184 c 4
 754.405 -31.3184 902.711 62.4741 1010 178.479 c 5
 955 253.42 l 5
 869.192 161.978 796.856 118.484 745.891 118.484 c 4xa8
 694.64 118.484 665 162.466 665 245.899 c 4
 665 347.963 805.991 806.962 806 807 c 6
 738 807 l 6
 731.781 807 725.723 807.046 719.824 807.046 c 4
 658.379 807.046 614.197 802.051 585 688 c 6
 476 272 l 5
 460 240 320 145 236 145 c 4
 198 145 169 164 169 219 c 4x68
 169 309 333 797 333 807 c 5
 298 807 l 6
 269 807 140 807 136 782 c 5
 64 575 3 375 -30 250 c 4x58
EndSplineSet
Fore
SplineSet
485.901 146.7 m 4xf0
 485.901 48.3648 525.946 -31.0669 653.431 -31.0669 c 4
 747.802 -31.0669 900.727 57.8985 1010 178 c 5
 955 253 l 5
 908 204 822.371 118 744 118 c 4
 696.781 118 675.323 149.38 675.323 205.045 c 4xf0
 675.323 316.112 817 610.971 817 723 c 4
 817 799 786 840 719 840 c 4
 537 840 332 594 252 444 c 5
 287 555 360 807 360 807 c 5
 293 807 l 6
 223 807 170 797 143 727 c 4
 86 582 -23 154 -25 0 c 5
 166 0 l 5
 201 152 385 655 549 655 c 4
 569 655 588 635 588 600 c 4xe8
 588 527.856 485.901 306.864 485.901 146.7 c 4xf0
EndSplineSet
EndChar

StartChar: m.fina
Encoding: 285 -1 285
Width: 1348
VWidth: 0
Flags: W
HStem: -31 149.233<1079.95 1271.06> 655 184.296<482.887 679.106 1040.71 1164.61>
VStem: -25 191<0 159.113> 156 206<657.943 774.441> 463 192<0 129.385> 594 188<469.422 734.381> 966 188.553<122.648 359.899> 1080.24 209.221<575.729 766.934>
LayerCount: 2
Back
SplineSet
951.9 146.7 m 0xf0
 951.9 48.3645 991.945 -31.0674 1119.43 -31.0674 c 0
 1213.8 -31.0674 1366.73 57.8983 1476 178 c 1
 1421 253 l 1
 1374 204 1288.37 118 1210 118 c 0
 1162.78 118 1141.32 149.38 1141.32 205.045 c 0xf0
 1141.32 316.112 1283 610.971 1283 723 c 0
 1283 799 1252 840 1185 840 c 0
 1003 840 798 594 718 444 c 1
 753 555 826 807 826 807 c 1
 759 807 l 2
 689 807 636 797 609 727 c 0
 552 582 443 154 441 0 c 1
 632 0 l 1
 667 152 851 655 1015 655 c 0
 1035 655 1054 635 1054 600 c 0xe8
 1054 527.856 951.9 306.864 951.9 146.7 c 0xf0
EndSplineSet
Fore
SplineSet
782 705 m 0xc5
 782 763.763 764.8 839.296 682.644 839.296 c 0
 503.122 839.296 338.424 591.722 252 440 c 1
 285 557 338 686 362 807 c 1
 236 807 183.142 802.313 156 758 c 0xd5
 85.1417 642.313 -16 150 -25 0 c 1
 166 0 l 1
 187.538 195.5 414 659 547 659 c 0
 571 659 594 639 594 600 c 0xe4
 594 594 594 586 592 578 c 0
 557 389 463 199 463 0 c 1
 655 0 l 1
 695.331 139 871.131 655 1049 655 c 0
 1071.45 655 1080.24 640.047 1080.24 614.579 c 0xc9
 1080.24 522.76 966 294.259 966 137 c 0
 966 32 1027.9 -31 1132 -31 c 0
 1248.61 -31 1408.95 99 1476 178 c 1
 1421 253 l 1
 1368.05 190.215 1291.68 118.233 1226.69 118.233 c 0
 1182.55 118.233 1154.55 147.171 1154.55 187.936 c 0xc2
 1154.55 297.424 1229.07 459.822 1284 667 c 0
 1288.73 683.194 1289.46 699.409 1289.46 714.523 c 0
 1289.46 786.755 1248.98 840 1184 840 c 0
 1004 840 815 610 729 440 c 1
 754 522 782 616 782 705 c 0xc5
EndSplineSet
EndChar

StartChar: o_x
Encoding: 286 -1 286
Width: 1802
VWidth: 0
Flags: W
HStem: -29 203<1480.5 1641.5> -29 160<312.233 499.204> 185.989 73.1132<736.835 871.529> 328 116<1811 1927> 586 96<588.789 732.715> 784 56<494.79 683.327>
VStem: 31 209.391<207.608 529.453> 475 103<375.892 577.78> 741 95<355.078 578.778>
DStem2: 1296 767 1148 585 0.444987 -0.895537<62.1556 254.466 472.348 675.215> 1257 356 1313 248 0.639129 0.769099<-476.355 -47.2715 237.893 663.469>
LayerCount: 2
Fore
SplineSet
821 185.989 m 0xbf80
 777.74 185.989 737.801 194.526 695 214 c 1
 594.157 55 473.274 -29 331 -29 c 0
 112.111 -29 31 154 31 317 c 0
 31 645 285 840 662 840 c 0
 672 840 684 838.18 684 827 c 0
 684 807 684 799 662 784 c 1
 370.724 784 240.391 586.513 240.391 367.057 c 0
 240.391 210.265 328.64 131 426 131 c 0x7f80
 487.944 131 558.738 167.6 624 253 c 1
 526 313 475 415 475 504 c 0
 475 602 532 682 668 682 c 0
 788 682 836 602 836 506 c 0
 836 429 798 343 736 284 c 1
 762.541 266.931 789.472 259.103 816.726 259.103 c 0
 954.774 259.103 1024.59 837.592 1188.21 837.592 c 0
 1235.71 837.592 1271.47 816.504 1296 767 c 2
 1409 539 l 1
 1548 707 l 1
 1620 803 1687 840 1733 840 c 0
 1771 840 1796 813 1796 774 c 0
 1796 735 1696 709 1651 651 c 0
 1606 594 1538 514 1464 428 c 1
 1507.25 343.808 1584.57 174 1622 174 c 0
 1661 174 1833 342 1927 444 c 1
 1927 328 l 1
 1737 152 1585 -29 1503 -29 c 0
 1458 -29 1427 27 1388 102 c 2
 1313 248 l 1
 1238.16 159.412 1092.27 -55 989 -55 c 0
 950 -55 926 -29 926 10 c 0
 926 45 1024 76 1071 133 c 2
 1257 356 l 1
 1148 585 l 2
 1142 597 1134 610 1119 610 c 0
 1067.77 610 1013.86 185.989 821 185.989 c 0xbf80
681 320 m 1
 707 349 741 436 741 494 c 0
 741 545 721 586 659 586 c 0
 602 586 578 543 578 489 c 0
 578 433 622 359 681 320 c 1
EndSplineSet
LCarets2: 1 0 
Ligature2: "Standard Ligatures-1" o x
EndChar

StartChar: s.fina
Encoding: 287 -1 287
Width: 695
VWidth: 0
Flags: W
HStem: -29 76<81.3325 377.67> 709 148.362<332.545 554.275>
VStem: -86 102<100.034 253.184> 408 216.487<121.641 361.996>
LayerCount: 2
Fore
SplineSet
331 709 m 1
 442.667 709 599 740.611 599 810 c 0
 599 850.614 481.828 857.362 445.685 857.362 c 0
 271.27 857.362 149 715.628 149 605 c 0
 149 567.192 157 527.021 176 490 c 1
 103.345 404.808 -86 258.32 -86 143 c 0
 -86 6 86.0145 -29 200 -29 c 0
 436.564 -29 624.487 78.9994 624.487 256.506 c 0
 624.487 467.485 423.87 473.917 331 709 c 1
219 412 m 1
 294.353 331.208 408 235.727 408 135 c 0
 408 76 320.891 47 211 47 c 0
 120.351 47 16 100 16 184 c 0
 16 256.112 170.235 362.158 219 412 c 1
EndSplineSet
EndChar

StartChar: r.fina
Encoding: 288 -1 288
Width: 769
VWidth: 0
Flags: W
HStem: 442.046 125.245<696.649 890.396> 658.33 181.67<564.137 814.397>
VStem: 49 191<0 196.829> 630.058 192.942<567.292 656.687>
LayerCount: 2
Back
SplineSet
346 717 m 4xd0
 348 721 348 725 348 729 c 4
 348 739 336 743 319 743 c 4
 285 743 229 729 199 729 c 4
 133 729 76 739 41 770 c 5
 76 788 102 848 102 887 c 4
 102 918 88 940 57 940 c 4
 -66 940 -137 852 -137 764 c 4xe0
 -137 743 -107 680 29 647 c 5
 -174 436 l 5
 -174 324 l 5
 -47 455 -21 465 100 588 c 5
 67 510 -82 186 -82 102 c 0
 -82 41 -57 -29 6 -29 c 0
 108 -29 323 164 487 328 c 1
 487 440 l 1
 422 352 180 137 145 137 c 0
 115 137 121 170 121 182 c 0
 121 270 299 602 346 717 c 4xd0
EndSplineSet
Fore
SplineSet
966 527 m 1
 966 639 l 1
 954.594 631.672 859.314 567.291 830.941 567.291 c 0
 825.925 567.291 823 569.304 823 574 c 0
 823 618.953 866.306 703.077 866.306 764.725 c 0
 866.306 807.866 845.098 840 773 840 c 0
 598.794 840 402.574 594 326 444 c 1
 374.669 554.66 462 762.884 462 779 c 0
 462 789 450 793 433 793 c 0
 400.648 793 348.341 778.887 317.536 778.887 c 0
 232.057 778.887 239.799 831.405 224.38 831.405 c 0
 189.058 831.405 123.627 787.118 123.627 744.701 c 0
 123.627 722.72 198.228 682.311 214 638 c 1
 132.16 455.714 50.9643 135.147 49 0 c 1
 240 0 l 1
 240 255.463 529.48 658.33 618.695 658.33 c 0
 634.775 658.33 639.784 648.49 639.784 632.58 c 0
 639.784 595.247 630.058 557.654 630.058 526.51 c 0
 630.058 464.475 669.659 442.046 723.639 442.046 c 0
 799.334 442.046 903.305 486.152 966 527 c 1
EndSplineSet
EndChar

StartChar: y.fina
Encoding: 289 -1 289
Width: 860
VWidth: 0
Flags: W
HStem: -489 69<176.12 334.335> -29 174<68 318> 3 112<860 972>
VStem: -4 213<97 369.282> 16 150<-415.527 -248.35> 176 197<666.156 800.427>
DStem2: 516 272 625 -1 0.258701 0.965957<-68.1337 559.282> 625 -1 598 -119 0.956223 0.292637<0 332.98>
LayerCount: 2
Back
SplineSet
473 35 m 5xf0
 172 -156 l 5
 84 -205 16 -258 16 -332 c 4xe8
 16 -430 121 -489 205 -489 c 4
 371 -489 586 -330 649 23 c 5
 649 27 l 5
 983 328 l 5
 983 440 l 5
 879 340 811 285 678 174 c 6
 666 164 l 5
 664 154 811 709 846 807 c 5
 778 807 l 6
 707 807 657 813 625 688 c 6
 516 272 l 5
 500 240 360 145 276 145 c 4
 238 145 209 164 209 219 c 4xf0
 209 309 373 797 373 807 c 5
 338 807 l 6
 309 807 180 807 176 782 c 5xe4
 78 502 -4 256 -4 139 c 4
 -4 55 23 -29 113 -29 c 4
 236 -29 389 82 506 195 c 5
 473 35 l 5xf0
461 -88 m 5
 434 -274 365 -420 240 -420 c 4
 190 -420 166 -391 166 -338 c 4
 166 -274 225 -236 276 -205 c 5
 461 -88 l 5
EndSplineSet
Fore
SplineSet
461 -35 m 5xd0
 172 -156 l 6
 79 -195 16 -258 16 -332 c 4
 16 -430 121 -489 205 -489 c 4
 312.645 -489 510.233 -434.197 598 -119 c 5
 972 3 l 5
 972 115 l 5xa8
 625 -1 l 5
 625 -1 803.028 683.852 846 807 c 5
 778 807 l 6
 771.781 807 765.723 807.046 759.824 807.046 c 4
 698.379 807.046 654.197 802.051 625 688 c 6
 516 272 l 5
 500 240 360 145 276 145 c 4
 238 145 209 164 209 219 c 4xd0
 209 309 373 797 373 807 c 5
 338 807 l 6
 309 807 180 807 176 782 c 5xc4
 78 502 -4 256 -4 139 c 4
 -4 55 23 -29 113 -29 c 4
 236 -29 389 82 506 195 c 5
 461 -35 l 5xd0
449 -148 m 5
 423.466 -300.385 358.213 -420 240 -420 c 4
 190 -420 166 -391 166 -338 c 4
 166 -276.406 219 -230 276 -210 c 6
 449 -148 l 5
EndSplineSet
EndChar

StartChar: g.fina
Encoding: 290 -1 290
Width: 928
VWidth: 0
Flags: W
HStem: -529 69<239.12 399.614> -37 112<937 1049> -29 160<142 394.5> 784 56<504.999 696.624>
VStem: 51 219<153.757 406.78> 79 150<-455.527 -288.35>
DStem2: 584 279 702 -41 0.238726 0.971087<-72.8155 500.612> 702 -41 675 -159 0.950697 0.31012<0 331.132>
LayerCount: 2
Back
SplineSet
533 -35 m 5xd0
 244 -156 l 6
 151 -195 88 -258 88 -332 c 4
 88 -430 193 -489 277 -489 c 4
 384.645 -489 582.233 -434.197 670 -119 c 5
 1044 3 l 5
 1044 115 l 5xa8
 697 -1 l 5
 697 -1 875.028 683.852 918 807 c 1
 850 807 l 2
 843.781 807 837.723 807.046 831.824 807.046 c 0
 770.379 807.046 726.197 802.051 697 688 c 2
 588 272 l 1
 572 240 432 145 348 145 c 0
 310 145 281 164 281 219 c 0xd0
 281 309 445 797 445 807 c 1
 410 807 l 2
 381 807 252 807 248 782 c 1xc4
 150 502 68 256 68 139 c 0
 68 55 95 -29 185 -29 c 0
 308 -29 461 82 578 195 c 1
 533 -35 l 5xd0
521 -148 m 5
 495.466 -300.385 430.213 -420 312 -420 c 4
 262 -420 238 -391 238 -338 c 4
 238 -276.406 291 -230 348 -210 c 6
 521 -148 l 5
EndSplineSet
Fore
SplineSet
512 -188 m 1x94
 339 -250 l 2
 282 -270 229 -316.406 229 -378 c 0
 229 -431 253 -460 303 -460 c 0
 421.213 -460 486.466 -340.385 512 -188 c 1x94
702 -41 m 1
 1049 75 l 1
 1049 -37 l 1
 675 -159 l 1
 584.107 -474.197 379.48 -529 268 -529 c 0
 184 -529 79 -470 79 -372 c 0xd4
 79 -298 141 -235 235 -196 c 2
 524 -75 l 1
 569 164 l 1
 387 2 291 -29 186 -29 c 0
 98 -29 51 78 51 172 c 0xb8
 51 471 283 840 612 840 c 0
 694 840 825 817 911 801 c 1
 702 -41 l 1
584 279 m 1
 700 766 l 1
 651 778 627 784 602 784 c 0
 416 784 270 524 270 324 c 0
 270 193 307 131 367 131 c 0xb8
 422 131 498 182 584 279 c 1
EndSplineSet
EndChar

StartChar: V.init
Encoding: 291 -1 291
Width: 1415
VWidth: 0
Flags: W
HStem: -57 239<603.599 816.435> 462.007 108.532<1277 1487.55> 1350.58 168.816<1131.73 1272.46>
VStem: 260 283<244.195 809.567> 915.945 147.466<716.715 1269.83> 1296.02 152.344<967.124 1336.42>
LayerCount: 2
Back
SplineSet
698 182 m 0
 584 182 543 297 543 459 c 0
 543 850 778 1516 778 1509 c 1
 778 1524 760 1530 752 1530 c 0
 688 1530 246 1235 -63 1057 c 1
 -63 946 l 1
 125 1059 342 1196 385 1221 c 1
 500 1309 l 2
 506 1313 508 1315 512 1315 c 0
 514 1315 514 1313 514 1309 c 0
 514 1286 455 1188 430 1151 c 0
 348 1028 260 721 260 451 c 0
 260 180 348 -57 621 -57 c 0
 1047.2 -57 1328.69 558.368 1406 917 c 5
 1552 941 1695 1017 1767 1064 c 5
 1767 1179 l 5
 1597 1048 1418 1021 1418 1021 c 5
 1418 1117.19 1419.93 1518 1223 1518 c 0
 1065 1518 1008 1360 1008 1245 c 0
 1008 1031.34 1206.86 933.037 1279 921 c 5
 1190.07 652.364 910.44 182 698 182 c 0
1188 1339 m 0
 1257 1339 1298 1188 1298 1067 c 0
 1298 1054.69 1289 1039.31 1289 1027 c 5
 1206.69 1046.08 1133 1134.45 1133 1266 c 0
 1133 1300 1143 1339 1188 1339 c 0
EndSplineSet
Fore
SplineSet
1200.23 1519.4 m 0
 1011.07 1519.4 915.945 1259.32 915.945 1006.13 c 0
 915.945 729.993 981.737 611.707 1096 523 c 1
 1001.73 364.942 843.527 182 698 182 c 0
 584 182 543 297 543 459 c 0
 543 850 778 1516 778 1509 c 1
 778 1524 760 1530 752 1530 c 0
 688 1530 246 1235 -63 1057 c 1
 -63 946 l 1
 125 1059 345.499 1190.77 385 1221 c 2
 500 1309 l 2
 506 1313 508 1315 512 1315 c 0
 514 1315 514 1313 514 1309 c 0
 514 1286 455 1188 430 1151 c 0
 348 1028 260 721 260 451 c 0
 260 180 348 -57 621 -57 c 0
 953.273 -57 1130.67 294.692 1233 468 c 1
 1259.86 463.874 1285.09 462.007 1308.85 462.007 c 0
 1499.6 462.007 1598.89 573.387 1678 615 c 1
 1678 730 l 1
 1492.79 587.085 1360.14 570.539 1304.7 570.539 c 0
 1287.12 570.539 1277.6 572.336 1277 572 c 1
 1333.44 742.891 1448.36 1022.11 1448.36 1247.33 c 0
 1448.36 1386.15 1386.98 1519.4 1200.23 1519.4 c 0
1063.41 991.814 m 0
 1063.41 1159.23 1090.65 1350.58 1219.79 1350.58 c 0
 1267.24 1350.58 1296.02 1267.4 1296.02 1201.05 c 0
 1296.02 997.029 1203.59 726.711 1159 616 c 1
 1120.3 668.644 1063.41 798.193 1063.41 991.814 c 0
EndSplineSet
EndChar

StartChar: W.init
Encoding: 292 -1 292
Width: 1978
VWidth: 0
Flags: W
HStem: -57 274<1191.37 1413.78> -55 237<394.5 727> 1371.93 146.072<1680.63 1848.27>
VStem: 190 283<298.386 733.451> 920 194<308.292 507.41> 1464.64 155.271<858.267 1305.12> 1893.58 135.062<770.811 1329.38>
LayerCount: 2
Back
SplineSet
1788.68 1370.93 m 0x3e
 1866.5 1361.67 1893.58 1244.13 1893.58 1105.87 c 0
 1893.58 941.962 1846.55 735.434 1827 690 c 1
 1693.61 724.224 1619.91 928.911 1619.91 1105.19 c 0
 1619.91 1247.86 1668.19 1371.93 1772.17 1371.93 c 0
 1777.52 1371.93 1783.03 1371.6 1788.68 1370.93 c 0x3e
1221 1174 m 0
 993 1174 920 713 920 451 c 0
 920 399 922 356 928 326 c 1
 883 250 760 182 694 182 c 0
 498 182 473 403 473 553 c 0
 473 872 768 1419 768 1509 c 0
 768 1524 754 1530 741 1530 c 0
 678 1530 236 1235 -74 1057 c 1
 -74 946 l 1
 115 1059 335.627 1190.61 375 1221 c 2
 489 1309 l 1
 496 1313 498 1315 502 1315 c 0
 504 1315 504 1313 504 1309 c 0
 504 1288 446 1188 420 1151 c 0
 274 952 190 649 190 403 c 0
 190 211 279 -55 510 -55 c 0x7e
 643 -55 844 88 938 215 c 1
 938 215 983 -57 1235 -57 c 0
 1572.75 -57 1835.68 391.784 1907 575 c 1
 2037.36 592.959 2156.3 649.83 2221 685 c 1
 2221 800 l 1
 2087.83 702.165 1948 682 1948 682 c 1
 1993.59 756.248 2028.65 924.756 2028.65 1089.47 c 0
 2028.65 1306.88 1972.3 1518 1810 1518 c 0
 1569.43 1518 1464.64 1320.11 1464.64 1105.39 c 0
 1464.64 878.542 1581.6 632.912 1779 582 c 1
 1722 490.752 1579.41 217 1352 217 c 0xbe
 1233 217 1114 279 1114 401 c 0
 1114 406 1303 844 1303 1059 c 0
 1303 1122 1286 1174 1221 1174 c 0
1788.68 1370.93 m 0x3e
 1866.5 1361.67 1893.58 1244.13 1893.58 1105.87 c 0
 1893.58 941.962 1846.55 735.434 1827 690 c 1
 1693.61 724.224 1619.91 928.911 1619.91 1105.19 c 0
 1619.91 1247.86 1668.19 1371.93 1772.17 1371.93 c 0
 1777.52 1371.93 1783.03 1371.6 1788.68 1370.93 c 0x3e
1221 1174 m 0
 993 1174 920 713 920 451 c 0
 920 399 922 356 928 326 c 1
 883 250 760 182 694 182 c 0
 498 182 473 403 473 553 c 0
 473 872 768 1419 768 1509 c 0
 768 1524 754 1530 741 1530 c 0
 678 1530 236 1235 -74 1057 c 1
 -74 946 l 1
 115 1059 335.627 1190.61 375 1221 c 2
 489 1309 l 1
 496 1313 498 1315 502 1315 c 0
 504 1315 504 1313 504 1309 c 0
 504 1288 446 1188 420 1151 c 0
 274 952 190 649 190 403 c 0
 190 211 279 -55 510 -55 c 0x7e
 643 -55 844 88 938 215 c 1
 938 215 983 -57 1235 -57 c 0
 1572.75 -57 1835.68 391.784 1907 575 c 1
 2037.36 592.959 2156.3 649.83 2221 685 c 1
 2221 800 l 1
 2087.83 702.165 1948 682 1948 682 c 1
 1993.59 756.248 2028.65 924.756 2028.65 1089.47 c 0
 2028.65 1306.88 1972.3 1518 1810 1518 c 0
 1569.43 1518 1464.64 1320.11 1464.64 1105.39 c 0
 1464.64 878.542 1581.6 632.912 1779 582 c 1
 1722 490.752 1579.41 217 1352 217 c 0xbe
 1233 217 1114 279 1114 401 c 0
 1114 406 1303 844 1303 1059 c 0
 1303 1122 1286 1174 1221 1174 c 0
1788.68 1370.93 m 0x3e
 1866.5 1361.67 1893.58 1244.13 1893.58 1105.87 c 0
 1893.58 941.962 1846.55 735.434 1827 690 c 1
 1693.61 724.224 1619.91 928.911 1619.91 1105.19 c 0
 1619.91 1247.86 1668.19 1371.93 1772.17 1371.93 c 0
 1777.52 1371.93 1783.03 1371.6 1788.68 1370.93 c 0x3e
1221 1174 m 0
 993 1174 920 713 920 451 c 0
 920 399 922 356 928 326 c 1
 883 250 760 182 694 182 c 0
 498 182 473 403 473 553 c 0
 473 872 768 1419 768 1509 c 0
 768 1524 754 1530 741 1530 c 0
 678 1530 236 1235 -74 1057 c 1
 -74 946 l 1
 115 1059 335.627 1190.61 375 1221 c 2
 489 1309 l 1
 496 1313 498 1315 502 1315 c 0
 504 1315 504 1313 504 1309 c 0
 504 1288 446 1188 420 1151 c 0
 274 952 190 649 190 403 c 0
 190 211 279 -55 510 -55 c 0x7e
 643 -55 844 88 938 215 c 1
 938 215 983 -57 1235 -57 c 0
 1572.75 -57 1835.68 391.784 1907 575 c 1
 2037.36 592.959 2156.3 649.83 2221 685 c 1
 2221 800 l 1
 2087.83 702.165 1948 682 1948 682 c 1
 1993.59 756.248 2028.65 924.756 2028.65 1089.47 c 0
 2028.65 1306.88 1972.3 1518 1810 1518 c 0
 1569.43 1518 1464.64 1320.11 1464.64 1105.39 c 0
 1464.64 878.542 1581.6 632.912 1779 582 c 1
 1722 490.752 1579.41 217 1352 217 c 0xbe
 1233 217 1114 279 1114 401 c 0
 1114 406 1303 844 1303 1059 c 0
 1303 1122 1286 1174 1221 1174 c 0
1776 1339 m 4x3f
 1845 1339 1886 1188 1886 1067 c 4
 1886 1055 1884 1040 1884 1028 c 5
 1798 1047 1720 1135 1720 1266 c 4
 1720 1300 1731 1339 1776 1339 c 4x3f
1221 1174 m 4
 993 1174 920 713 920 451 c 4
 920 399 922 356 928 326 c 5
 883 250 760 182 694 182 c 4
 498 182 473 403 473 553 c 4
 473 872 768 1419 768 1509 c 4
 768 1524 754 1530 741 1530 c 4
 678 1530 236 1235 -74 1057 c 5
 -74 946 l 5
 115 1059 332 1196 375 1221 c 5
 489 1309 l 5
 496 1313 498 1315 502 1315 c 4
 504 1315 504 1313 504 1309 c 4
 504 1288 446 1188 420 1151 c 4
 274 952 190 649 190 403 c 4
 190 211 279 -55 510 -55 c 4x7f
 643 -55 844 88 938 215 c 5
 938 215 983 -57 1235 -57 c 4
 1620 -57 1978 553 2001 918 c 5
 2138 942 2263 1018 2331 1065 c 5
 2331 1180 l 5
 2171 1049 2003 1022 2003 1022 c 5
 2003 1118 2015 1518 1810 1518 c 4
 1653 1518 1595 1360 1595 1245 c 4
 1595 1032 1800 934 1874 922 c 5
 1874 672 1630 217 1352 217 c 4xbf
 1233 217 1114 279 1114 401 c 4
 1114 406 1303 844 1303 1059 c 4
 1303 1122 1286 1174 1221 1174 c 4
EndSplineSet
Fore
SplineSet
1772.17 1371.93 m 0x3e
 1868.18 1371.93 1893.58 1251.15 1893.58 1105.87 c 0
 1893.58 936.838 1842.31 723.855 1821 677 c 1
 1691.47 712.295 1619.91 923.392 1619.91 1105.19 c 0
 1619.91 1247.86 1668.19 1371.93 1772.17 1371.93 c 0x3e
1221 1174 m 0
 993 1174 920 713 920 451 c 0
 920 399 922 356 928 326 c 1
 883 250 760 182 694 182 c 0
 498 182 473 403 473 553 c 0
 473 872 768 1419 768 1509 c 0
 768 1524 754 1530 741 1530 c 0
 678 1530 236 1235 -74 1057 c 1
 -74 946 l 1
 115 1059 335.627 1190.61 375 1221 c 2
 489 1309 l 1
 496 1313 498 1315 502 1315 c 0
 504 1315 504 1313 504 1309 c 0
 504 1288 446 1188 420 1151 c 0
 274 952 190 649 190 403 c 0
 190 211 279 -55 510 -55 c 0x7e
 643 -55 844 88 938 215 c 1
 938 215 983 -57 1235 -57 c 0
 1569.74 -57 1830.32 382.552 1901 562 c 1
 2077.44 582.408 2238.42 647.034 2326 687 c 1
 2326 802 l 1
 2138.68 691.728 1942 669 1942 669 c 1
 1990.98 745.617 2028.65 919.501 2028.65 1089.47 c 0
 2028.65 1306.88 1972.3 1518 1810 1518 c 0
 1569.43 1518 1464.64 1320.11 1464.64 1105.39 c 0
 1464.64 872.907 1579.37 621.177 1773 569 c 1
 1716.8 481.002 1576.21 217 1352 217 c 0xbe
 1233 217 1114 279 1114 401 c 0
 1114 406 1303 844 1303 1059 c 0
 1303 1122 1286 1174 1221 1174 c 0
EndSplineSet
EndChar
